<?xml version="1.0" encoding="UTF-8"?>
<svg xmlns="http://www.w3.org/2000/svg" xmlns:xlink="http://www.w3.org/1999/xlink" width="3857.2" height="3857.2" viewBox="0 0 3857.2 3857.2">
<defs>
<clipPath id="clip-0">

</clipPath>
<clipPath id="clip-1">
<path clip-rule="evenodd" d="M 1928.601562 0 C 2993.738281 0 3857.199219 863.460938 3857.199219 1928.601562 C 3857.199219 2993.738281 2993.738281 3857.199219 1928.601562 3857.199219 C 863.464844 3857.199219 0 2993.738281 0 1928.601562 C 0 863.460938 863.464844 0 1928.601562 0 "/>
</clipPath>
<linearGradient id="linear-pattern-0" gradientUnits="userSpaceOnUse" x1="-0.194478" y1="0" x2="1.194458" y2="0" gradientTransform="matrix(2777.09, 2777.09, -2777.09, 2777.09, 540.085, 540.08)">
<stop offset="0" stop-color="rgb(90.979004%, 23.136902%, 54.901123%)" stop-opacity="1"/>
<stop offset="0.125" stop-color="rgb(90.979004%, 23.136902%, 54.901123%)" stop-opacity="1"/>
<stop offset="0.140625" stop-color="rgb(90.966797%, 23.130798%, 54.890442%)" stop-opacity="1"/>
<stop offset="0.148438" stop-color="rgb(90.805054%, 23.048401%, 54.745483%)" stop-opacity="1"/>
<stop offset="0.15625" stop-color="rgb(90.50293%, 22.894287%, 54.478455%)" stop-opacity="1"/>
<stop offset="0.164062" stop-color="rgb(90.200806%, 22.741699%, 54.2099%)" stop-opacity="1"/>
<stop offset="0.171875" stop-color="rgb(89.898682%, 22.587585%, 53.941345%)" stop-opacity="1"/>
<stop offset="0.179687" stop-color="rgb(89.596558%, 22.434998%, 53.674316%)" stop-opacity="1"/>
<stop offset="0.1875" stop-color="rgb(89.294434%, 22.28241%, 53.405762%)" stop-opacity="1"/>
<stop offset="0.195312" stop-color="rgb(88.99231%, 22.128296%, 53.137207%)" stop-opacity="1"/>
<stop offset="0.203125" stop-color="rgb(88.690186%, 21.975708%, 52.870178%)" stop-opacity="1"/>
<stop offset="0.210937" stop-color="rgb(88.388062%, 21.821594%, 52.601624%)" stop-opacity="1"/>
<stop offset="0.21875" stop-color="rgb(88.085938%, 21.669006%, 52.333069%)" stop-opacity="1"/>
<stop offset="0.226562" stop-color="rgb(87.783813%, 21.516418%, 52.06604%)" stop-opacity="1"/>
<stop offset="0.234375" stop-color="rgb(87.481689%, 21.362305%, 51.797485%)" stop-opacity="1"/>
<stop offset="0.242187" stop-color="rgb(87.179565%, 21.209717%, 51.528931%)" stop-opacity="1"/>
<stop offset="0.25" stop-color="rgb(86.877441%, 21.055603%, 51.260376%)" stop-opacity="1"/>
<stop offset="0.257812" stop-color="rgb(86.575317%, 20.903015%, 50.993347%)" stop-opacity="1"/>
<stop offset="0.265625" stop-color="rgb(86.273193%, 20.750427%, 50.724792%)" stop-opacity="1"/>
<stop offset="0.273438" stop-color="rgb(85.971069%, 20.596313%, 50.456238%)" stop-opacity="1"/>
<stop offset="0.28125" stop-color="rgb(85.668945%, 20.443726%, 50.189209%)" stop-opacity="1"/>
<stop offset="0.289062" stop-color="rgb(85.366821%, 20.289612%, 49.920654%)" stop-opacity="1"/>
<stop offset="0.296875" stop-color="rgb(85.064697%, 20.137024%, 49.6521%)" stop-opacity="1"/>
<stop offset="0.304688" stop-color="rgb(84.762573%, 19.984436%, 49.385071%)" stop-opacity="1"/>
<stop offset="0.3125" stop-color="rgb(84.460449%, 19.830322%, 49.116516%)" stop-opacity="1"/>
<stop offset="0.320312" stop-color="rgb(84.158325%, 19.677734%, 48.847961%)" stop-opacity="1"/>
<stop offset="0.328125" stop-color="rgb(83.856201%, 19.523621%, 48.580933%)" stop-opacity="1"/>
<stop offset="0.335938" stop-color="rgb(83.554077%, 19.371033%, 48.312378%)" stop-opacity="1"/>
<stop offset="0.34375" stop-color="rgb(83.251953%, 19.218445%, 48.043823%)" stop-opacity="1"/>
<stop offset="0.351562" stop-color="rgb(82.949829%, 19.064331%, 47.775269%)" stop-opacity="1"/>
<stop offset="0.359375" stop-color="rgb(82.647705%, 18.911743%, 47.50824%)" stop-opacity="1"/>
<stop offset="0.367187" stop-color="rgb(82.345581%, 18.757629%, 47.239685%)" stop-opacity="1"/>
<stop offset="0.375" stop-color="rgb(82.043457%, 18.605042%, 46.97113%)" stop-opacity="1"/>
<stop offset="0.382812" stop-color="rgb(81.741333%, 18.452454%, 46.704102%)" stop-opacity="1"/>
<stop offset="0.390625" stop-color="rgb(81.439209%, 18.29834%, 46.435547%)" stop-opacity="1"/>
<stop offset="0.398437" stop-color="rgb(81.137085%, 18.145752%, 46.166992%)" stop-opacity="1"/>
<stop offset="0.40625" stop-color="rgb(80.834961%, 17.993164%, 45.899963%)" stop-opacity="1"/>
<stop offset="0.414062" stop-color="rgb(80.532837%, 17.83905%, 45.631409%)" stop-opacity="1"/>
<stop offset="0.421875" stop-color="rgb(80.230713%, 17.686462%, 45.362854%)" stop-opacity="1"/>
<stop offset="0.429687" stop-color="rgb(79.928589%, 17.532349%, 45.095825%)" stop-opacity="1"/>
<stop offset="0.4375" stop-color="rgb(79.626465%, 17.379761%, 44.827271%)" stop-opacity="1"/>
<stop offset="0.445312" stop-color="rgb(79.324341%, 17.227173%, 44.558716%)" stop-opacity="1"/>
<stop offset="0.453125" stop-color="rgb(79.022217%, 17.073059%, 44.290161%)" stop-opacity="1"/>
<stop offset="0.460937" stop-color="rgb(78.720093%, 16.920471%, 44.023132%)" stop-opacity="1"/>
<stop offset="0.46875" stop-color="rgb(78.417969%, 16.766357%, 43.754578%)" stop-opacity="1"/>
<stop offset="0.476562" stop-color="rgb(78.115845%, 16.61377%, 43.486023%)" stop-opacity="1"/>
<stop offset="0.484375" stop-color="rgb(77.813721%, 16.461182%, 43.218994%)" stop-opacity="1"/>
<stop offset="0.492187" stop-color="rgb(77.511597%, 16.307068%, 42.950439%)" stop-opacity="1"/>
<stop offset="0.5" stop-color="rgb(77.209473%, 16.15448%, 42.681885%)" stop-opacity="1"/>
<stop offset="0.507812" stop-color="rgb(76.907349%, 16.000366%, 42.414856%)" stop-opacity="1"/>
<stop offset="0.515625" stop-color="rgb(76.605225%, 15.847778%, 42.146301%)" stop-opacity="1"/>
<stop offset="0.523438" stop-color="rgb(76.303101%, 15.69519%, 41.877747%)" stop-opacity="1"/>
<stop offset="0.53125" stop-color="rgb(76.000977%, 15.541077%, 41.610718%)" stop-opacity="1"/>
<stop offset="0.539062" stop-color="rgb(75.698853%, 15.388489%, 41.342163%)" stop-opacity="1"/>
<stop offset="0.546875" stop-color="rgb(75.396729%, 15.234375%, 41.073608%)" stop-opacity="1"/>
<stop offset="0.554687" stop-color="rgb(75.094604%, 15.081787%, 40.805054%)" stop-opacity="1"/>
<stop offset="0.5625" stop-color="rgb(74.79248%, 14.929199%, 40.538025%)" stop-opacity="1"/>
<stop offset="0.570312" stop-color="rgb(74.490356%, 14.775085%, 40.26947%)" stop-opacity="1"/>
<stop offset="0.578125" stop-color="rgb(74.188232%, 14.622498%, 40.000916%)" stop-opacity="1"/>
<stop offset="0.585937" stop-color="rgb(73.886108%, 14.468384%, 39.733887%)" stop-opacity="1"/>
<stop offset="0.59375" stop-color="rgb(73.583984%, 14.315796%, 39.465332%)" stop-opacity="1"/>
<stop offset="0.601562" stop-color="rgb(73.28186%, 14.163208%, 39.196777%)" stop-opacity="1"/>
<stop offset="0.609375" stop-color="rgb(72.979736%, 14.009094%, 38.929749%)" stop-opacity="1"/>
<stop offset="0.617187" stop-color="rgb(72.677612%, 13.856506%, 38.661194%)" stop-opacity="1"/>
<stop offset="0.625" stop-color="rgb(72.375488%, 13.702393%, 38.392639%)" stop-opacity="1"/>
<stop offset="0.632812" stop-color="rgb(72.073364%, 13.549805%, 38.12561%)" stop-opacity="1"/>
<stop offset="0.640625" stop-color="rgb(71.77124%, 13.397217%, 37.857056%)" stop-opacity="1"/>
<stop offset="0.648437" stop-color="rgb(71.469116%, 13.243103%, 37.588501%)" stop-opacity="1"/>
<stop offset="0.65625" stop-color="rgb(71.166992%, 13.090515%, 37.319946%)" stop-opacity="1"/>
<stop offset="0.664062" stop-color="rgb(70.864868%, 12.936401%, 37.052917%)" stop-opacity="1"/>
<stop offset="0.671875" stop-color="rgb(70.562744%, 12.783813%, 36.784363%)" stop-opacity="1"/>
<stop offset="0.679687" stop-color="rgb(70.26062%, 12.631226%, 36.515808%)" stop-opacity="1"/>
<stop offset="0.6875" stop-color="rgb(69.958496%, 12.477112%, 36.248779%)" stop-opacity="1"/>
<stop offset="0.695312" stop-color="rgb(69.656372%, 12.324524%, 35.980225%)" stop-opacity="1"/>
<stop offset="0.703125" stop-color="rgb(69.354248%, 12.17041%, 35.71167%)" stop-opacity="1"/>
<stop offset="0.710937" stop-color="rgb(69.052124%, 12.017822%, 35.444641%)" stop-opacity="1"/>
<stop offset="0.71875" stop-color="rgb(68.75%, 11.865234%, 35.176086%)" stop-opacity="1"/>
<stop offset="0.726562" stop-color="rgb(68.447876%, 11.711121%, 34.907532%)" stop-opacity="1"/>
<stop offset="0.734375" stop-color="rgb(68.145752%, 11.558533%, 34.640503%)" stop-opacity="1"/>
<stop offset="0.742187" stop-color="rgb(67.843628%, 11.404419%, 34.371948%)" stop-opacity="1"/>
<stop offset="0.75" stop-color="rgb(67.541504%, 11.251831%, 34.103394%)" stop-opacity="1"/>
<stop offset="0.757812" stop-color="rgb(67.23938%, 11.099243%, 33.834839%)" stop-opacity="1"/>
<stop offset="0.765625" stop-color="rgb(66.937256%, 10.945129%, 33.56781%)" stop-opacity="1"/>
<stop offset="0.773438" stop-color="rgb(66.635132%, 10.792542%, 33.299255%)" stop-opacity="1"/>
<stop offset="0.78125" stop-color="rgb(66.333008%, 10.639954%, 33.030701%)" stop-opacity="1"/>
<stop offset="0.789062" stop-color="rgb(66.030884%, 10.48584%, 32.763672%)" stop-opacity="1"/>
<stop offset="0.796875" stop-color="rgb(65.72876%, 10.333252%, 32.495117%)" stop-opacity="1"/>
<stop offset="0.804688" stop-color="rgb(65.426636%, 10.179138%, 32.226562%)" stop-opacity="1"/>
<stop offset="0.8125" stop-color="rgb(65.124512%, 10.02655%, 31.959534%)" stop-opacity="1"/>
<stop offset="0.820312" stop-color="rgb(64.822388%, 9.873962%, 31.690979%)" stop-opacity="1"/>
<stop offset="0.828125" stop-color="rgb(64.520264%, 9.719849%, 31.422424%)" stop-opacity="1"/>
<stop offset="0.835937" stop-color="rgb(64.21814%, 9.567261%, 31.155396%)" stop-opacity="1"/>
<stop offset="0.84375" stop-color="rgb(63.916016%, 9.413147%, 30.886841%)" stop-opacity="1"/>
<stop offset="0.851562" stop-color="rgb(63.613892%, 9.260559%, 30.618286%)" stop-opacity="1"/>
<stop offset="0.859375" stop-color="rgb(63.311768%, 9.107971%, 30.349731%)" stop-opacity="1"/>
<stop offset="0.875" stop-color="rgb(63.148499%, 9.025574%, 30.206299%)" stop-opacity="1"/>
<stop offset="1" stop-color="rgb(63.136292%, 9.01947%, 30.195618%)" stop-opacity="1"/>
</linearGradient>
</defs>
<g clip-path="url(#clip-0)">
<g clip-path="url(#clip-1)">
<path fill-rule="nonzero" fill="url(#linear-pattern-0)" d="M 1928.601562 -1928.601562 L -1928.601562 1928.601562 L 1928.601562 5785.800781 L 5785.800781 1928.601562 Z M 1928.601562 -1928.601562 "/>
</g>
</g>
<path fill-rule="evenodd" fill="rgb(100%, 100%, 100%)" fill-opacity="1" d="M 2977.300781 1201.800781 C 2951 1201.800781 2929.601562 1180.5 2929.601562 1154.101562 L 2929.601562 1003.699219 C 2929.601562 977.398438 2950.898438 956 2977.300781 956 C 3003.601562 956 3025 977.300781 3025 1003.699219 L 3025 1154.101562 C 3025 1180.398438 3003.699219 1201.800781 2977.300781 1201.800781 Z M 879.898438 1201.800781 C 853.601562 1201.800781 832.199219 1180.5 832.199219 1154.101562 L 832.199219 1003.699219 C 832.199219 977.398438 853.5 956 879.898438 956 C 906.199219 956 927.601562 977.300781 927.601562 1003.699219 L 927.601562 1154.101562 C 927.601562 1180.398438 906.199219 1201.800781 879.898438 1201.800781 "/>
<path fill-rule="evenodd" fill="rgb(100%, 100%, 100%)" fill-opacity="1" d="M 1928.601562 2520.5 C 1903.300781 2525.199219 1789.398438 2605.800781 1785.199219 2703.398438 L 1785.199219 2901.101562 L 2072 2901.101562 L 2072 2703.398438 C 2067.699219 2605.800781 1954 2525.199219 1928.601562 2520.5 "/>
<path fill-rule="evenodd" fill="rgb(100%, 100%, 100%)" fill-opacity="1" d="M 2006.101562 2211.300781 L 2006.101562 2348.101562 C 2006.101562 2354.199219 2011.300781 2359.398438 2017.398438 2359.398438 L 2071.601562 2359.398438 C 2077.699219 2359.398438 2082.898438 2354.199219 2082.898438 2348.101562 L 2082.898438 2211.300781 C 2082.898438 2205.199219 2077.699219 2200 2071.601562 2200 L 2017.398438 2200 C 2011.199219 2200 2006.101562 2205.199219 2006.101562 2211.300781 "/>
<path fill-rule="evenodd" fill="rgb(100%, 100%, 100%)" fill-opacity="1" d="M 2006.101562 1898.5 L 2006.101562 2035.300781 C 2006.101562 2041.398438 2011.300781 2046.601562 2017.398438 2046.601562 L 2071.601562 2046.601562 C 2077.699219 2046.601562 2082.898438 2041.398438 2082.898438 2035.300781 L 2082.898438 1898.5 C 2082.898438 1892.398438 2077.699219 1887.199219 2071.601562 1887.199219 L 2017.398438 1887.199219 C 2011.199219 1887.300781 2006.101562 1892.398438 2006.101562 1898.5 "/>
<path fill-rule="evenodd" fill="rgb(100%, 100%, 100%)" fill-opacity="1" d="M 1856.699219 1367 C 1691.898438 1399.300781 1570 1538.800781 1557.601562 1704.300781 L 1617.300781 1704.300781 C 1617.898438 1704.300781 1618.398438 1704.199219 1619 1704.199219 L 2238.398438 1704.199219 C 2239 1704.199219 2239.5 1704.199219 2240.101562 1704.300781 L 2299.800781 1704.300781 C 2287.398438 1538.800781 2165.398438 1399.300781 2000.699219 1367 C 1991.800781 1365.300781 1984.199219 1359.300781 1980.601562 1350.898438 C 1946.398438 1273.601562 1938.101562 1210.398438 1932.601562 1168.601562 C 1931.398438 1159.898438 1930.199219 1150.101562 1928.699219 1141.898438 C 1927.300781 1150.101562 1926 1159.800781 1924.800781 1168.601562 C 1919.300781 1210.398438 1911 1273.601562 1876.800781 1350.898438 C 1873.101562 1359.300781 1865.601562 1365.300781 1856.699219 1367 "/>
<path fill-rule="evenodd" fill="rgb(100%, 100%, 100%)" fill-opacity="1" d="M 1774.5 1898.5 L 1774.5 2035.300781 C 1774.5 2041.398438 1779.601562 2046.601562 1785.800781 2046.601562 L 1840 2046.601562 C 1846.101562 2046.601562 1851.300781 2041.398438 1851.300781 2035.300781 L 1851.300781 1898.5 C 1851.300781 1892.398438 1846.101562 1887.199219 1840 1887.199219 L 1785.800781 1887.199219 C 1779.699219 1887.300781 1774.5 1892.398438 1774.5 1898.5 "/>
<path fill-rule="evenodd" fill="rgb(100%, 100%, 100%)" fill-opacity="1" d="M 1774.5 2211.300781 L 1774.5 2348.101562 C 1774.5 2354.199219 1779.601562 2359.398438 1785.800781 2359.398438 L 1840 2359.398438 C 1846.101562 2359.398438 1851.300781 2354.199219 1851.300781 2348.101562 L 1851.300781 2211.300781 C 1851.300781 2205.199219 1846.101562 2200 1840 2200 L 1785.800781 2200 C 1779.699219 2200 1774.5 2205.199219 1774.5 2211.300781 "/>
<path fill-rule="evenodd" fill="rgb(100%, 100%, 100%)" fill-opacity="1" d="M 1950.398438 2348.101562 L 1950.398438 2211.300781 C 1950.398438 2174.398438 1980.398438 2144.398438 2017.300781 2144.398438 L 2071.5 2144.398438 C 2108.398438 2144.398438 2138.398438 2174.398438 2138.398438 2211.300781 L 2138.398438 2348.101562 C 2138.398438 2384.898438 2108.398438 2415 2071.5 2415 L 2017.300781 2415 C 1980.398438 2414.898438 1950.398438 2385 1950.398438 2348.101562 Z M 1785.800781 2102.199219 C 1748.898438 2102.199219 1718.898438 2072.199219 1718.898438 2035.300781 L 1718.898438 1898.5 C 1718.898438 1861.601562 1748.898438 1831.601562 1785.800781 1831.601562 L 1840 1831.601562 C 1876.898438 1831.601562 1906.898438 1861.601562 1906.898438 1898.5 L 1906.898438 2035.300781 C 1906.898438 2072.101562 1876.898438 2102.199219 1840 2102.199219 Z M 2017.398438 2102.199219 C 1980.5 2102.199219 1950.5 2072.199219 1950.5 2035.300781 L 1950.5 1898.5 C 1950.5 1861.601562 1980.5 1831.601562 2017.398438 1831.601562 L 2071.601562 1831.601562 C 2108.5 1831.601562 2138.5 1861.601562 2138.5 1898.5 L 2138.5 2035.300781 C 2138.5 2072.101562 2108.5 2102.199219 2071.601562 2102.199219 Z M 1839.898438 2414.898438 L 1785.699219 2414.898438 C 1748.800781 2414.898438 1718.800781 2384.898438 1718.800781 2348 L 1718.800781 2211.199219 C 1718.800781 2174.300781 1748.800781 2144.300781 1785.699219 2144.300781 L 1839.898438 2144.300781 C 1876.800781 2144.300781 1906.800781 2174.300781 1906.800781 2211.199219 L 1906.800781 2348 C 1906.800781 2385 1876.800781 2414.898438 1839.898438 2414.898438 Z M 1646.699219 1760.101562 L 1646.699219 2901.199219 L 1729.5 2901.199219 L 1729.5 2701.699219 C 1731.800781 2644.800781 1761.398438 2585.199219 1812.898438 2534 C 1846.5 2500.601562 1897.101562 2464.699219 1928.5 2464.699219 C 1959.898438 2464.699219 2010.5 2500.601562 2044.101562 2534 C 2095.699219 2585.199219 2125.300781 2644.800781 2127.5 2701.699219 L 2127.5 2901.199219 L 2210.300781 2901.199219 L 2210.300781 1760.101562 L 1646.699219 1760.101562 "/>
<path fill-rule="evenodd" fill="rgb(100%, 100%, 100%)" fill-opacity="1" d="M 1351.5 2190.800781 C 1333 2198.199219 1279 2240.898438 1276.699219 2288.898438 L 1276.699219 2396 L 1426.300781 2396 L 1426.300781 2288.898438 C 1424 2240.898438 1370 2198.199219 1351.5 2190.800781 "/>
<path fill-rule="evenodd" fill="rgb(100%, 100%, 100%)" fill-opacity="1" d="M 1138.699219 2288.300781 L 1138.699219 2423.898438 C 1138.699219 2439.300781 1126.300781 2451.800781 1110.800781 2451.800781 L 905.601562 2451.800781 C 890.199219 2451.800781 877.699219 2439.398438 877.699219 2423.898438 L 877.699219 2287.199219 C 881.101562 2202.199219 973.101562 2134.5 1008.101562 2134.5 C 1043.199219 2134.5 1135.199219 2202.199219 1138.5 2287.199219 Z M 1008.300781 2510.300781 C 1043.398438 2510.300781 1135.398438 2578.101562 1138.699219 2663.101562 L 1138.699219 2799.800781 C 1138.699219 2815.199219 1126.300781 2827.699219 1110.800781 2827.699219 L 905.601562 2827.699219 C 890.199219 2827.699219 877.699219 2815.300781 877.699219 2799.800781 L 877.699219 2663.199219 C 881.199219 2578.101562 973.199219 2510.300781 1008.300781 2510.300781 Z M 1351.5 2510.300781 C 1386.5 2510.300781 1478.601562 2578.101562 1481.898438 2663.101562 L 1481.898438 2799.800781 C 1481.898438 2815.199219 1469.5 2827.699219 1454 2827.699219 L 1248.800781 2827.699219 C 1233.398438 2827.699219 1220.898438 2815.300781 1220.898438 2799.800781 L 1220.898438 2663.199219 C 1224.300781 2578.101562 1316.398438 2510.300781 1351.5 2510.300781 Z M 1351.5 2134.398438 C 1386.5 2134.398438 1478.601562 2202.101562 1481.898438 2287.101562 L 1481.898438 2423.800781 C 1481.898438 2439.199219 1469.5 2451.699219 1454 2451.699219 L 1248.800781 2451.699219 C 1233.398438 2451.699219 1220.898438 2439.300781 1220.898438 2423.800781 L 1220.898438 2287.101562 C 1224.300781 2202.101562 1316.398438 2134.398438 1351.5 2134.398438 Z M 1360 2060.800781 L 768.601562 2060.800781 L 768.601562 2901.199219 L 1591 2901.199219 L 1591 2060.800781 L 1360 2060.800781 "/>
<path fill-rule="evenodd" fill="rgb(100%, 100%, 100%)" fill-opacity="1" d="M 1008.300781 2190.800781 C 989.800781 2198.199219 935.800781 2240.898438 933.5 2288.898438 L 933.5 2396 L 1083.101562 2396 L 1083.101562 2288.898438 C 1080.800781 2240.898438 1026.800781 2198.199219 1008.300781 2190.800781 "/>
<path fill-rule="evenodd" fill="rgb(100%, 100%, 100%)" fill-opacity="1" d="M 1008.300781 2566.601562 C 989.800781 2574 935.800781 2616.699219 933.5 2664.699219 L 933.5 2771.800781 L 1083.101562 2771.800781 L 1083.101562 2664.699219 C 1080.800781 2616.800781 1026.800781 2574 1008.300781 2566.601562 "/>
<path fill-rule="evenodd" fill="rgb(100%, 100%, 100%)" fill-opacity="1" d="M 1351.5 2566.601562 C 1333 2574 1279 2616.699219 1276.699219 2664.699219 L 1276.699219 2771.800781 L 1426.300781 2771.800781 L 1426.300781 2664.699219 C 1424 2616.800781 1370 2574 1351.5 2566.601562 "/>
<path fill-rule="evenodd" fill="rgb(100%, 100%, 100%)" fill-opacity="1" d="M 2774.199219 2288.800781 L 2774.199219 2395.898438 L 2923.800781 2395.898438 L 2923.800781 2288.800781 C 2921.601562 2240.898438 2867.5 2198.101562 2849 2190.699219 C 2830.5 2198.199219 2776.398438 2240.898438 2774.199219 2288.800781 "/>
<path fill-rule="evenodd" fill="rgb(100%, 100%, 100%)" fill-opacity="1" d="M 2505.800781 2190.800781 C 2487.300781 2198.199219 2433.300781 2240.898438 2431 2288.898438 L 2431 2396 L 2580.601562 2396 L 2580.601562 2288.898438 C 2578.300781 2240.898438 2524.300781 2198.199219 2505.800781 2190.800781 "/>
<path fill-rule="evenodd" fill="rgb(100%, 100%, 100%)" fill-opacity="1" d="M 2505.800781 2566.601562 C 2487.300781 2574 2433.300781 2616.699219 2431 2664.699219 L 2431 2771.800781 L 2580.601562 2771.800781 L 2580.601562 2664.699219 C 2578.300781 2616.800781 2524.300781 2574 2505.800781 2566.601562 "/>
<path fill-rule="evenodd" fill="rgb(100%, 100%, 100%)" fill-opacity="1" d="M 2849 2566.601562 C 2830.5 2574 2776.398438 2616.699219 2774.199219 2664.699219 L 2774.199219 2771.800781 L 2923.800781 2771.800781 L 2923.800781 2664.699219 C 2921.5 2616.800781 2867.5 2574 2849 2566.601562 "/>
<path fill-rule="evenodd" fill="rgb(100%, 100%, 100%)" fill-opacity="1" d="M 2951.601562 2451.601562 L 2746.398438 2451.601562 C 2731 2451.601562 2718.5 2439.199219 2718.5 2423.699219 L 2718.5 2287 C 2721.898438 2202 2813.800781 2134.300781 2848.898438 2134.300781 C 2883.898438 2134.300781 2976 2202 2979.300781 2287 C 2979.300781 2287.398438 2979.300781 2287.699219 2979.300781 2288.101562 L 2979.300781 2423.699219 C 2979.5 2439.199219 2966.898438 2451.601562 2951.601562 2451.601562 Z M 2718.601562 2663.101562 C 2722 2578.101562 2813.898438 2510.300781 2849 2510.300781 C 2884 2510.300781 2976.101562 2578.101562 2979.398438 2663.101562 C 2979.398438 2663.398438 2979.398438 2663.800781 2979.398438 2664.199219 L 2979.398438 2799.800781 C 2979.398438 2815.199219 2967 2827.699219 2951.5 2827.699219 L 2746.300781 2827.699219 C 2730.898438 2827.699219 2718.398438 2815.300781 2718.398438 2799.800781 L 2718.398438 2664.199219 Z M 2505.800781 2510.300781 C 2540.800781 2510.300781 2632.898438 2578.101562 2636.199219 2663.101562 L 2636.199219 2799.800781 C 2636.199219 2815.199219 2623.800781 2827.699219 2608.300781 2827.699219 L 2403.101562 2827.699219 C 2387.699219 2827.699219 2375.199219 2815.300781 2375.199219 2799.800781 L 2375.199219 2663.199219 C 2378.800781 2578.101562 2470.800781 2510.300781 2505.800781 2510.300781 Z M 2266.199219 2060.800781 L 2266.199219 2901.199219 L 3088.601562 2901.199219 L 3088.601562 2060.800781 Z M 2608.5 2451.601562 L 2403.300781 2451.601562 C 2387.898438 2451.601562 2375.398438 2439.199219 2375.398438 2423.699219 L 2375.398438 2287 C 2378.800781 2202 2470.800781 2134.300781 2505.800781 2134.300781 C 2540.800781 2134.300781 2632.898438 2202 2636.199219 2287 L 2636.199219 2423.699219 C 2636.199219 2439.199219 2623.800781 2451.601562 2608.5 2451.601562 "/>
<path fill-rule="evenodd" fill="rgb(100%, 100%, 100%)" fill-opacity="1" d="M 2977.300781 1078.898438 C 2956.101562 1089.300781 2887.101562 1182.800781 2869.800781 1301.398438 L 3084.601562 1301.398438 C 3067.5 1182.800781 2998.5 1089.300781 2977.300781 1078.898438 "/>
<path fill-rule="evenodd" fill="rgb(100%, 100%, 100%)" fill-opacity="1" d="M 2866.101562 1357.101562 L 3088.601562 1357.101562 L 3088.601562 1480.800781 L 2866.101562 1480.800781 L 2866.101562 1357.101562 "/>
<path fill-rule="evenodd" fill="rgb(100%, 100%, 100%)" fill-opacity="1" d="M 2866.101562 1740.699219 L 2866.101562 2005.101562 L 3088.601562 2005.101562 L 3088.601562 1740.699219 L 2866.101562 1740.699219 "/>
<path fill-rule="evenodd" fill="rgb(100%, 100%, 100%)" fill-opacity="1" d="M 2525.101562 1867.199219 L 2525.101562 2005.101562 L 2647 2005.101562 L 2647 1867.199219 L 2525.101562 1867.199219 "/>
<path fill-rule="evenodd" fill="rgb(100%, 100%, 100%)" fill-opacity="1" d="M 2613.898438 1666.800781 L 2613.898438 1811.5 L 2694.699219 1811.5 L 2694.699219 1666.800781 L 2613.898438 1666.800781 "/>
<path fill-rule="evenodd" fill="rgb(100%, 100%, 100%)" fill-opacity="1" d="M 2558.199219 1528.800781 C 2534.699219 1546.101562 2504.800781 1575.699219 2488.800781 1611.101562 L 2558.199219 1611.101562 L 2558.199219 1528.800781 "/>
<path fill-rule="evenodd" fill="rgb(100%, 100%, 100%)" fill-opacity="1" d="M 2477.5 1666.800781 L 2558.300781 1666.800781 L 2558.300781 1811.5 L 2477.5 1811.5 L 2477.5 1666.800781 "/>
<path fill-rule="evenodd" fill="rgb(100%, 100%, 100%)" fill-opacity="1" d="M 2613.898438 1528.800781 L 2613.898438 1611.101562 L 2683.300781 1611.101562 C 2667.300781 1575.800781 2637.398438 1546.101562 2613.898438 1528.800781 "/>
<path fill-rule="evenodd" fill="rgb(100%, 100%, 100%)" fill-opacity="1" d="M 2866.101562 1536.398438 L 2902.101562 1536.398438 L 2902.101562 1685 L 2866.101562 1685 L 2866.101562 1536.398438 "/>
<path fill-rule="evenodd" fill="rgb(100%, 100%, 100%)" fill-opacity="1" d="M 2957.800781 1536.398438 L 2996.898438 1536.398438 L 2996.898438 1685 L 2957.800781 1685 L 2957.800781 1536.398438 "/>
<path fill-rule="evenodd" fill="rgb(100%, 100%, 100%)" fill-opacity="1" d="M 3052.601562 1536.398438 L 3088.699219 1536.398438 L 3088.699219 1685 L 3052.601562 1685 L 3052.601562 1536.398438 "/>
<path fill-rule="evenodd" fill="rgb(100%, 100%, 100%)" fill-opacity="1" d="M 1210.199219 1867.199219 L 1210.199219 2005.101562 L 1332.199219 2005.101562 L 1332.199219 1867.199219 L 1210.199219 1867.199219 "/>
<path fill-rule="evenodd" fill="rgb(100%, 100%, 100%)" fill-opacity="1" d="M 1299 1666.800781 L 1299 1811.5 L 1379.800781 1811.5 L 1379.800781 1666.800781 L 1299 1666.800781 "/>
<path fill-rule="evenodd" fill="rgb(100%, 100%, 100%)" fill-opacity="1" d="M 1299 1528.800781 L 1299 1611.101562 L 1368.398438 1611.101562 C 1352.398438 1575.800781 1322.601562 1546.101562 1299 1528.800781 "/>
<path fill-rule="evenodd" fill="rgb(100%, 100%, 100%)" fill-opacity="1" d="M 1243.398438 1528.800781 C 1219.898438 1546.101562 1190 1575.699219 1174 1611.101562 L 1243.398438 1611.101562 L 1243.398438 1528.800781 "/>
<path fill-rule="evenodd" fill="rgb(100%, 100%, 100%)" fill-opacity="1" d="M 1162.601562 1666.800781 L 1243.398438 1666.800781 L 1243.398438 1811.5 L 1162.601562 1811.5 L 1162.601562 1666.800781 "/>
<path fill-rule="evenodd" fill="rgb(100%, 100%, 100%)" fill-opacity="1" d="M 768.601562 1740.699219 L 768.601562 2005.101562 L 991.199219 2005.101562 L 991.199219 1740.699219 L 768.601562 1740.699219 "/>
<path fill-rule="evenodd" fill="rgb(100%, 100%, 100%)" fill-opacity="1" d="M 955.101562 1536.398438 L 991.199219 1536.398438 L 991.199219 1685 L 955.101562 1685 L 955.101562 1536.398438 "/>
<path fill-rule="evenodd" fill="rgb(100%, 100%, 100%)" fill-opacity="1" d="M 768.601562 1357.101562 L 991.101562 1357.101562 L 991.101562 1480.800781 L 768.601562 1480.800781 L 768.601562 1357.101562 "/>
<path fill-rule="evenodd" fill="rgb(100%, 100%, 100%)" fill-opacity="1" d="M 860.300781 1536.398438 L 899.398438 1536.398438 L 899.398438 1685 L 860.300781 1685 L 860.300781 1536.398438 "/>
<path fill-rule="evenodd" fill="rgb(100%, 100%, 100%)" fill-opacity="1" d="M 768.601562 1536.398438 L 804.699219 1536.398438 L 804.699219 1685 L 768.601562 1685 L 768.601562 1536.398438 "/>
<path fill-rule="evenodd" fill="rgb(100%, 100%, 100%)" fill-opacity="1" d="M 879.898438 1078.898438 C 858.699219 1089.300781 789.699219 1182.800781 772.398438 1301.398438 L 987.199219 1301.398438 C 970.101562 1182.800781 901 1089.300781 879.898438 1078.898438 "/>
</svg>
