<?xml version="1.0" encoding="UTF-8"?>
<svg xmlns="http://www.w3.org/2000/svg" xmlns:xlink="http://www.w3.org/1999/xlink" width="2000" height="2000" viewBox="0 0 2000 2000">

<path fill-rule="evenodd" fill="rgb(95.701599%, 96.875%, 98.046875%)" fill-opacity="1" d="M 1908.238281 1915.15625 L 1889.179688 1915.15625 C 1888.300781 1915.15625 1887.589844 1915.871094 1887.589844 1916.746094 L 1887.589844 1935.800781 C 1887.589844 1936.679688 1888.300781 1937.394531 1889.179688 1937.394531 L 1908.238281 1937.394531 C 1909.109375 1937.394531 1909.828125 1936.679688 1909.828125 1935.800781 L 1909.828125 1916.746094 C 1909.828125 1915.871094 1909.109375 1915.15625 1908.238281 1915.15625 "/>
<path fill-rule="evenodd" fill="rgb(95.701599%, 96.875%, 98.046875%)" fill-opacity="1" d="M 1865.28125 1916.171875 L 1847.089844 1916.171875 C 1846.261719 1916.171875 1845.578125 1916.855469 1845.578125 1917.691406 L 1845.578125 1935.875 C 1845.578125 1936.710938 1846.261719 1937.394531 1847.089844 1937.394531 L 1865.28125 1937.394531 C 1866.109375 1937.394531 1866.800781 1936.710938 1866.800781 1935.875 L 1866.800781 1917.691406 C 1866.800781 1916.855469 1866.109375 1916.171875 1865.28125 1916.171875 "/>
<path fill-rule="evenodd" fill="rgb(95.701599%, 96.875%, 98.046875%)" fill-opacity="1" d="M 1822.320312 1917.1875 L 1805.011719 1917.1875 C 1804.210938 1917.1875 1803.558594 1917.839844 1803.558594 1918.636719 L 1803.558594 1935.949219 C 1803.558594 1936.742188 1804.210938 1937.394531 1805.011719 1937.394531 L 1822.320312 1937.394531 C 1823.121094 1937.394531 1823.769531 1936.742188 1823.769531 1935.949219 L 1823.769531 1918.636719 C 1823.769531 1917.839844 1823.121094 1917.1875 1822.320312 1917.1875 "/>
<path fill-rule="evenodd" fill="rgb(95.701599%, 96.875%, 98.046875%)" fill-opacity="1" d="M 1779.371094 1918.207031 L 1762.929688 1918.207031 C 1762.171875 1918.207031 1761.550781 1918.824219 1761.550781 1919.582031 L 1761.550781 1936.019531 C 1761.550781 1936.777344 1762.171875 1937.394531 1762.929688 1937.394531 L 1779.371094 1937.394531 C 1780.121094 1937.394531 1780.738281 1936.777344 1780.738281 1936.019531 L 1780.738281 1919.582031 C 1780.738281 1918.824219 1780.121094 1918.207031 1779.371094 1918.207031 "/>
<path fill-rule="evenodd" fill="rgb(95.701599%, 96.875%, 98.046875%)" fill-opacity="1" d="M 1736.410156 1919.222656 L 1720.839844 1919.222656 C 1720.128906 1919.222656 1719.539062 1919.808594 1719.539062 1920.523438 L 1719.539062 1936.09375 C 1719.539062 1936.808594 1720.128906 1937.394531 1720.839844 1937.394531 L 1736.410156 1937.394531 C 1737.128906 1937.394531 1737.710938 1936.808594 1737.710938 1936.09375 L 1737.710938 1920.523438 C 1737.710938 1919.808594 1737.128906 1919.222656 1736.410156 1919.222656 "/>
<path fill-rule="evenodd" fill="rgb(95.701599%, 96.875%, 98.046875%)" fill-opacity="1" d="M 1693.460938 1920.238281 L 1678.761719 1920.238281 C 1678.078125 1920.238281 1677.53125 1920.792969 1677.53125 1921.46875 L 1677.53125 1936.167969 C 1677.53125 1936.84375 1678.078125 1937.394531 1678.761719 1937.394531 L 1693.460938 1937.394531 C 1694.128906 1937.394531 1694.679688 1936.84375 1694.679688 1936.167969 L 1694.679688 1921.46875 C 1694.679688 1920.792969 1694.128906 1920.238281 1693.460938 1920.238281 "/>
<path fill-rule="evenodd" fill="rgb(95.701599%, 96.875%, 98.046875%)" fill-opacity="1" d="M 1650.5 1921.257812 L 1636.671875 1921.257812 C 1636.039062 1921.257812 1635.519531 1921.777344 1635.519531 1922.414062 L 1635.519531 1936.238281 C 1635.519531 1936.875 1636.039062 1937.394531 1636.671875 1937.394531 L 1650.5 1937.394531 C 1651.140625 1937.394531 1651.648438 1936.875 1651.648438 1936.238281 L 1651.648438 1922.414062 C 1651.648438 1921.777344 1651.140625 1921.257812 1650.5 1921.257812 "/>
<path fill-rule="evenodd" fill="rgb(95.701599%, 96.875%, 98.046875%)" fill-opacity="1" d="M 1607.539062 1922.273438 L 1594.589844 1922.273438 C 1593.988281 1922.273438 1593.511719 1922.761719 1593.511719 1923.355469 L 1593.511719 1936.3125 C 1593.511719 1936.90625 1593.988281 1937.394531 1594.589844 1937.394531 L 1607.539062 1937.394531 C 1608.140625 1937.394531 1608.628906 1936.90625 1608.628906 1936.3125 L 1608.628906 1923.355469 C 1608.628906 1922.761719 1608.140625 1922.273438 1607.539062 1922.273438 "/>
<path fill-rule="evenodd" fill="rgb(95.701599%, 96.875%, 98.046875%)" fill-opacity="1" d="M 1564.589844 1923.292969 L 1552.5 1923.292969 C 1551.949219 1923.292969 1551.488281 1923.746094 1551.488281 1924.300781 L 1551.488281 1936.386719 C 1551.488281 1936.941406 1551.949219 1937.394531 1552.5 1937.394531 L 1564.589844 1937.394531 C 1565.140625 1937.394531 1565.601562 1936.941406 1565.601562 1936.386719 L 1565.601562 1924.300781 C 1565.601562 1923.746094 1565.140625 1923.292969 1564.589844 1923.292969 "/>
<path fill-rule="evenodd" fill="rgb(80.076599%, 53.318787%, 71.289062%)" fill-opacity="1" d="M 999.960938 69.859375 C 1511.558594 69.859375 1930.140625 488.441406 1930.140625 1000.039062 C 1930.140625 1511.636719 1511.558594 1930.21875 999.960938 1930.21875 C 488.363281 1930.21875 69.78125 1511.636719 69.78125 1000.039062 C 69.78125 488.441406 488.363281 69.859375 999.960938 69.859375 "/>
<path fill-rule="evenodd" fill="rgb(92.96875%, 79.296875%, 47.851562%)" fill-opacity="1" d="M 999.960938 1291.589844 L 427.089844 1291.589844 L 427.089844 947.871094 L 1572.828125 947.871094 L 1572.828125 1291.589844 L 999.960938 1291.589844 "/>
<path fill-rule="evenodd" fill="rgb(85.15625%, 85.15625%, 86.326599%)" fill-opacity="1" d="M 999.960938 1291.589844 L 1075.378906 1291.589844 L 1075.378906 1111.710938 C 1075.378906 1070.226562 1041.441406 1036.289062 999.960938 1036.289062 C 958.480469 1036.289062 924.539062 1070.226562 924.539062 1111.710938 L 924.539062 1291.589844 Z M 838.0625 1291.589844 L 720.996094 1291.589844 L 720.996094 1143.390625 C 720.996094 1111.195312 747.335938 1084.859375 779.527344 1084.859375 C 811.722656 1084.859375 838.0625 1111.195312 838.0625 1143.390625 Z M 628.839844 1291.589844 L 511.773438 1291.589844 L 511.773438 1096.066406 C 511.773438 1063.871094 538.113281 1037.535156 570.308594 1037.535156 C 602.5 1037.535156 628.839844 1063.871094 628.839844 1096.066406 Z M 1161.859375 1291.589844 L 1278.921875 1291.589844 L 1278.921875 1143.390625 C 1278.921875 1111.195312 1252.578125 1084.859375 1220.390625 1084.859375 C 1188.199219 1084.859375 1161.859375 1111.195312 1161.859375 1143.390625 Z M 1371.078125 1291.589844 L 1488.148438 1291.589844 L 1488.148438 1096.066406 C 1488.148438 1063.871094 1461.808594 1037.535156 1429.609375 1037.535156 C 1397.421875 1037.535156 1371.078125 1063.871094 1371.078125 1096.066406 L 1371.078125 1291.589844 "/>
<path fill-rule="evenodd" fill="rgb(91.796875%, 91.796875%, 91.796875%)" fill-opacity="1" d="M 790.738281 536.890625 L 1209.179688 536.890625 L 1209.179688 947.871094 L 790.738281 947.871094 L 790.738281 536.890625 "/>
<path fill-rule="evenodd" fill="rgb(85.15625%, 85.15625%, 86.326599%)" fill-opacity="1" d="M 790.738281 947.871094 L 499.320312 947.871094 L 499.320312 696.300781 L 790.738281 696.300781 Z M 1209.179688 947.871094 L 1500.601562 947.871094 L 1500.601562 696.300781 L 1209.179688 696.300781 L 1209.179688 947.871094 "/>
<path fill-rule="evenodd" fill="rgb(37.646484%, 37.646484%, 38.426208%)" fill-opacity="1" d="M 1282.351562 947.871094 L 1427.429688 947.871094 L 1427.429688 849.289062 C 1427.429688 809.390625 1394.789062 776.738281 1354.890625 776.738281 C 1314.988281 776.738281 1282.351562 809.390625 1282.351562 849.289062 Z M 717.570312 947.871094 L 572.484375 947.871094 L 572.484375 849.289062 C 572.484375 809.390625 605.128906 776.738281 645.027344 776.738281 C 684.925781 776.738281 717.570312 809.390625 717.570312 849.289062 L 717.570312 947.871094 "/>
<path fill-rule="evenodd" fill="rgb(37.646484%, 37.646484%, 38.426208%)" fill-opacity="1" d="M 999.960938 947.871094 L 1126.988281 947.871094 L 1126.988281 723.699219 C 1126.988281 643.351562 1037.988281 679.96875 999.960938 614.109375 C 961.933594 679.96875 872.933594 643.351562 872.933594 723.699219 L 872.933594 947.871094 L 999.960938 947.871094 "/>
<path fill-rule="evenodd" fill="rgb(92.96875%, 79.296875%, 47.851562%)" fill-opacity="1" d="M 999.960938 536.890625 L 817.949219 536.890625 L 817.949219 482.828125 C 817.949219 367.699219 945.472656 420.179688 999.960938 325.808594 C 1054.449219 420.179688 1181.96875 367.699219 1181.96875 482.828125 L 1181.96875 536.890625 L 999.960938 536.890625 "/>
<path fill-rule="evenodd" fill="rgb(95.3125%, 92.96875%, 48.631287%)" fill-opacity="1" d="M 663.398438 544.058594 L 663.398438 696.300781 L 594.28125 696.300781 L 594.28125 544.058594 Z M 1336.519531 544.058594 L 1336.519531 696.300781 L 1405.640625 696.300781 L 1405.640625 544.058594 L 1336.519531 544.058594 "/>
<path fill-rule="evenodd" fill="rgb(91.014099%, 62.304688%, 62.304688%)" fill-opacity="1" d="M 1276.121094 544.058594 C 1276.121094 373.179688 1466.039062 373.179688 1466.039062 544.058594 Z M 723.800781 544.058594 C 723.800781 373.179688 533.878906 373.179688 533.878906 544.058594 L 723.800781 544.058594 "/>
<path fill-rule="evenodd" fill="rgb(91.014099%, 62.304688%, 62.304688%)" fill-opacity="1" d="M 999.960938 175.121094 C 1041.570312 175.121094 1075.300781 208.851562 1075.300781 250.460938 C 1075.300781 292.070312 1041.570312 325.808594 999.960938 325.808594 C 958.347656 325.808594 924.613281 292.070312 924.613281 250.460938 C 924.613281 208.851562 958.347656 175.121094 999.960938 175.121094 "/>
<path fill-rule="evenodd" fill="rgb(91.014099%, 62.304688%, 62.304688%)" fill-opacity="1" d="M 401.589844 1291.589844 L 1598.328125 1291.589844 C 1648.660156 1291.589844 1689.839844 1332.765625 1689.839844 1383.089844 L 1689.839844 1383.09375 C 1689.839844 1433.414062 1648.660156 1474.59375 1598.328125 1474.59375 L 401.589844 1474.59375 C 351.261719 1474.59375 310.085938 1433.417969 310.085938 1383.09375 L 310.085938 1383.089844 C 310.085938 1332.765625 351.261719 1291.589844 401.589844 1291.589844 "/>
<path fill="none" stroke-width="339.999" stroke-linecap="round" stroke-linejoin="round" stroke="rgb(24.31488%, 27.050781%, 30.589294%)" stroke-opacity="1" stroke-miterlimit="2.61313" d="M 9999.609375 7084.101562 L 4270.898438 7084.101562 L 4270.898438 10521.289062 L 15728.28125 10521.289062 L 15728.28125 7084.101562 Z M 9999.609375 7084.101562 " transform="matrix(0.1, 0, 0, -0.1, 0, 2000)"/>
<path fill="none" stroke-width="339.999" stroke-linecap="round" stroke-linejoin="round" stroke="rgb(24.31488%, 27.050781%, 30.589294%)" stroke-opacity="1" stroke-miterlimit="2.61313" d="M 9999.609375 7084.101562 L 10753.789062 7084.101562 L 10753.789062 8882.890625 C 10753.789062 9297.734375 10414.414062 9637.109375 9999.609375 9637.109375 C 9584.804688 9637.109375 9245.390625 9297.734375 9245.390625 8882.890625 L 9245.390625 7084.101562 Z M 8380.625 7084.101562 L 7209.960938 7084.101562 L 7209.960938 8566.09375 C 7209.960938 8888.046875 7473.359375 9151.40625 7795.273438 9151.40625 C 8117.226562 9151.40625 8380.625 8888.046875 8380.625 8566.09375 Z M 6288.398438 7084.101562 L 5117.734375 7084.101562 L 5117.734375 9039.335938 C 5117.734375 9361.289062 5381.132812 9624.648438 5703.085938 9624.648438 C 6025 9624.648438 6288.398438 9361.289062 6288.398438 9039.335938 Z M 11618.59375 7084.101562 L 12789.21875 7084.101562 L 12789.21875 8566.09375 C 12789.21875 8888.046875 12525.78125 9151.40625 12203.90625 9151.40625 C 11881.992188 9151.40625 11618.59375 8888.046875 11618.59375 8566.09375 Z M 13710.78125 7084.101562 L 14881.484375 7084.101562 L 14881.484375 9039.335938 C 14881.484375 9361.289062 14618.085938 9624.648438 14296.09375 9624.648438 C 13974.21875 9624.648438 13710.78125 9361.289062 13710.78125 9039.335938 Z M 13710.78125 7084.101562 " transform="matrix(0.1, 0, 0, -0.1, 0, 2000)"/>
<path fill="none" stroke-width="339.999" stroke-linecap="round" stroke-linejoin="round" stroke="rgb(24.31488%, 27.050781%, 30.589294%)" stroke-opacity="1" stroke-miterlimit="2.61313" d="M 7907.382812 14631.09375 L 12091.796875 14631.09375 L 12091.796875 10521.289062 L 7907.382812 10521.289062 Z M 7907.382812 14631.09375 " transform="matrix(0.1, 0, 0, -0.1, 0, 2000)"/>
<path fill="none" stroke-width="339.999" stroke-linecap="round" stroke-linejoin="round" stroke="rgb(24.31488%, 27.050781%, 30.589294%)" stroke-opacity="1" stroke-miterlimit="2.61313" d="M 7907.382812 10521.289062 L 4993.203125 10521.289062 L 4993.203125 13036.992188 L 7907.382812 13036.992188 Z M 12091.796875 10521.289062 L 15006.015625 10521.289062 L 15006.015625 13036.992188 L 12091.796875 13036.992188 Z M 12091.796875 10521.289062 " transform="matrix(0.1, 0, 0, -0.1, 0, 2000)"/>
<path fill="none" stroke-width="339.999" stroke-linecap="round" stroke-linejoin="round" stroke="rgb(24.31488%, 27.050781%, 30.589294%)" stroke-opacity="1" stroke-miterlimit="2.61313" d="M 12823.515625 10521.289062 L 14274.296875 10521.289062 L 14274.296875 11507.109375 C 14274.296875 11906.09375 13947.890625 12232.617188 13548.90625 12232.617188 C 13149.882812 12232.617188 12823.515625 11906.09375 12823.515625 11507.109375 Z M 7175.703125 10521.289062 L 5724.84375 10521.289062 L 5724.84375 11507.109375 C 5724.84375 11906.09375 6051.289062 12232.617188 6450.273438 12232.617188 C 6849.257812 12232.617188 7175.703125 11906.09375 7175.703125 11507.109375 Z M 7175.703125 10521.289062 " transform="matrix(0.1, 0, 0, -0.1, 0, 2000)"/>
<path fill="none" stroke-width="339.999" stroke-linecap="round" stroke-linejoin="round" stroke="rgb(24.31488%, 27.050781%, 30.589294%)" stroke-opacity="1" stroke-miterlimit="2.61313" d="M 9999.609375 10521.289062 L 11269.882812 10521.289062 L 11269.882812 12763.007812 C 11269.882812 13566.484375 10379.882812 13200.3125 9999.609375 13858.90625 C 9619.335938 13200.3125 8729.335938 13566.484375 8729.335938 12763.007812 L 8729.335938 10521.289062 Z M 9999.609375 10521.289062 " transform="matrix(0.1, 0, 0, -0.1, 0, 2000)"/>
<path fill="none" stroke-width="339.999" stroke-linecap="round" stroke-linejoin="round" stroke="rgb(24.31488%, 27.050781%, 30.589294%)" stroke-opacity="1" stroke-miterlimit="2.61313" d="M 9999.609375 14631.09375 L 8179.492188 14631.09375 L 8179.492188 15171.71875 C 8179.492188 16323.007812 9454.726562 15798.203125 9999.609375 16741.914062 C 10544.492188 15798.203125 11819.6875 16323.007812 11819.6875 15171.71875 L 11819.6875 14631.09375 Z M 9999.609375 14631.09375 " transform="matrix(0.1, 0, 0, -0.1, 0, 2000)"/>
<path fill="none" stroke-width="339.999" stroke-linecap="round" stroke-linejoin="round" stroke="rgb(24.31488%, 27.050781%, 30.589294%)" stroke-opacity="1" stroke-miterlimit="2.61313" d="M 6633.984375 14559.414062 L 6633.984375 13036.992188 L 5942.8125 13036.992188 L 5942.8125 14559.414062 Z M 13365.195312 14559.414062 L 13365.195312 13036.992188 L 14056.40625 13036.992188 L 14056.40625 14559.414062 Z M 13365.195312 14559.414062 " transform="matrix(0.1, 0, 0, -0.1, 0, 2000)"/>
<path fill="none" stroke-width="339.999" stroke-linecap="round" stroke-linejoin="round" stroke="rgb(24.31488%, 27.050781%, 30.589294%)" stroke-opacity="1" stroke-miterlimit="2.61313" d="M 12761.210938 14559.414062 C 12761.210938 16268.203125 14660.390625 16268.203125 14660.390625 14559.414062 Z M 7238.007812 14559.414062 C 7238.007812 16268.203125 5338.789062 16268.203125 5338.789062 14559.414062 Z M 7238.007812 14559.414062 " transform="matrix(0.1, 0, 0, -0.1, 0, 2000)"/>
<path fill="none" stroke-width="339.999" stroke-linecap="round" stroke-linejoin="round" stroke="rgb(24.31488%, 27.050781%, 30.589294%)" stroke-opacity="1" stroke-miterlimit="2.61313" d="M 9999.609375 18248.789062 C 10415.703125 18248.789062 10753.007812 17911.484375 10753.007812 17495.390625 C 10753.007812 17079.296875 10415.703125 16741.914062 9999.609375 16741.914062 C 9583.476562 16741.914062 9246.132812 17079.296875 9246.132812 17495.390625 C 9246.132812 17911.484375 9583.476562 18248.789062 9999.609375 18248.789062 Z M 9999.609375 18248.789062 " transform="matrix(0.1, 0, 0, -0.1, 0, 2000)"/>
<path fill="none" stroke-width="339.999" stroke-linecap="round" stroke-linejoin="round" stroke="rgb(24.31488%, 27.050781%, 30.589294%)" stroke-opacity="1" stroke-miterlimit="2.61313" d="M 4015.898438 7084.101562 L 15983.28125 7084.101562 C 16486.601562 7084.101562 16898.398438 6672.34375 16898.398438 6169.101562 L 16898.398438 6169.0625 C 16898.398438 5665.859375 16486.601562 5254.0625 15983.28125 5254.0625 L 4015.898438 5254.0625 C 3512.617188 5254.0625 3100.859375 5665.820312 3100.859375 6169.0625 L 3100.859375 6169.101562 C 3100.859375 6672.34375 3512.617188 7084.101562 4015.898438 7084.101562 Z M 4015.898438 7084.101562 " transform="matrix(0.1, 0, 0, -0.1, 0, 2000)"/>
</svg>
