<?xml version="1.0" encoding="utf-8"?>
<!-- Generator: Adobe Illustrator 19.0.0, SVG Export Plug-In . SVG Version: 6.00 Build 0)  -->
<svg version="1.1" id="Mumbai" xmlns="http://www.w3.org/2000/svg" xmlns:xlink="http://www.w3.org/1999/xlink" x="0px" y="0px"
	 viewBox="0 0 1400 980" style="enable-background:new 0 0 1400 980;" xml:space="preserve">
<style type="text/css">
	.st0{fill:#A5ECFF;}
	.st1{fill:#FFFFFF;}
	.st2{fill:#C6AE87;}
	.st3{fill:#594532;}
	.st4{fill:#F6EEC9;}
	.st5{fill:#967D65;}
	.st6{fill:#C27750;}
	.st7{fill:#C6B98C;}
	.st8{fill:#7F4C36;}
	.st9{fill:#0095A5;}
	.st10{fill:#231F20;}
</style>
<rect class="st0" width="1400" height="753.9"/>
<path class="st1" d="M1034.8,252H836.2c-14.3,0-26-11.7-26-26v0c0-14.3,11.7-26,26-26h198.6c14.3,0,26,11.7,26,26v0
	C1060.8,240.3,1049.1,252,1034.8,252z"/>
<g>
	<rect x="760.7" y="347.6" class="st2" width="215" height="398"/>
	<rect x="760.7" y="307.8" class="st2" width="215" height="50.7"/>
	<rect x="760.7" y="245.8" class="st2" width="6" height="62"/>
	<rect x="865.2" y="221" class="st2" width="6" height="62"/>
	<rect x="969.7" y="245.8" class="st2" width="6" height="62"/>
	<rect x="766.7" y="301.1" class="st3" width="203" height="6.7"/>
	<rect x="766.7" y="278.3" class="st2" width="203" height="22.9"/>
	<polygon class="st3" points="766.7,350 766.7,321.3 770.9,316.3 775.2,321.3 775.2,350 	"/>
	<polygon class="st3" points="778.7,350 778.7,321.3 782.9,316.3 787.2,321.3 787.2,350 	"/>
	<polygon class="st3" points="790.7,350 790.7,321.3 794.9,316.3 799.2,321.3 799.2,350 	"/>
	<polygon class="st3" points="802.7,350 802.7,321.3 806.9,316.3 811.2,321.3 811.2,350 	"/>
	<polygon class="st3" points="814.7,350 814.7,321.3 818.9,316.3 823.2,321.3 823.2,350 	"/>
	<polygon class="st3" points="826.7,350 826.7,321.3 830.9,316.3 835.2,321.3 835.2,350 	"/>
	<polygon class="st3" points="838.7,350 838.7,321.3 842.9,316.3 847.2,321.3 847.2,350 	"/>
	<polygon class="st3" points="850.7,350 850.7,321.3 854.9,316.3 859.2,321.3 859.2,350 	"/>
	<polygon class="st3" points="862.7,350 862.7,321.3 866.9,316.3 871.2,321.3 871.2,350 	"/>
	<polygon class="st3" points="874.7,350 874.7,321.3 878.9,316.3 883.2,321.3 883.2,350 	"/>
	<polygon class="st3" points="886.7,350 886.7,321.3 890.9,316.3 895.2,321.3 895.2,350 	"/>
	<polygon class="st3" points="898.7,350 898.7,321.3 902.9,316.3 907.2,321.3 907.2,350 	"/>
	<polygon class="st3" points="910.7,350 910.7,321.3 914.9,316.3 919.2,321.3 919.2,350 	"/>
	<polygon class="st3" points="922.7,350 922.7,321.3 926.9,316.3 931.2,321.3 931.2,350 	"/>
	<polygon class="st3" points="934.7,350 934.7,321.3 938.9,316.3 943.2,321.3 943.2,350 	"/>
	<polygon class="st3" points="946.7,350 946.7,321.3 950.9,316.3 955.2,321.3 955.2,350 	"/>
	<polygon class="st3" points="958.7,350 958.7,321.3 962.9,316.3 967.2,321.3 967.2,350 	"/>
	<rect x="760.7" y="734.5" class="st4" width="215" height="22"/>
	<rect x="786.3" y="358.5" class="st4" width="163.8" height="365.2"/>
	<path class="st2" d="M803.1,392.6h-9.7v-19.2c0-2.3,1.9-4.2,4.2-4.2h1.2c2.3,0,4.2,1.9,4.2,4.2V392.6z"/>
	<path class="st3" d="M798.3,369.1c-0.5,0-0.9,0.1-1.3,0.2c2,0.6,3.5,2.4,3.5,4.6v18.6h2.7V374C803.1,371.3,801,369.1,798.3,369.1z"
		/>
	<path class="st2" d="M812.9,392.6h-9.7v-19.2c0-2.3,1.9-4.2,4.2-4.2h1.2c2.3,0,4.2,1.9,4.2,4.2V392.6z"/>
	<path class="st3" d="M808,369.1c-0.5,0-0.9,0.1-1.3,0.2c2,0.6,3.5,2.4,3.5,4.6v18.6h2.7V374C812.9,371.3,810.7,369.1,808,369.1z"/>
	<path class="st2" d="M822.6,392.6h-9.7v-19.2c0-2.3,1.9-4.2,4.2-4.2h1.2c2.3,0,4.2,1.9,4.2,4.2V392.6z"/>
	<path class="st3" d="M817.7,369.1c-0.5,0-0.9,0.1-1.3,0.2c2,0.6,3.5,2.4,3.5,4.6v18.6h2.7V374C822.6,371.3,820.4,369.1,817.7,369.1
		z"/>
	<path class="st2" d="M843.4,392.6h-9.7v-19.2c0-2.3,1.9-4.2,4.2-4.2h1.2c2.3,0,4.2,1.9,4.2,4.2V392.6z"/>
	<path class="st3" d="M838.6,369.1c-0.5,0-0.9,0.1-1.3,0.2c2,0.6,3.5,2.4,3.5,4.6v18.6h2.7V374C843.4,371.3,841.3,369.1,838.6,369.1
		z"/>
	<path class="st2" d="M853.1,392.6h-9.7v-19.2c0-2.3,1.9-4.2,4.2-4.2h1.2c2.3,0,4.2,1.9,4.2,4.2V392.6z"/>
	<path class="st3" d="M848.3,369.1c-0.5,0-0.9,0.1-1.3,0.2c2,0.6,3.5,2.4,3.5,4.6v18.6h2.7V374C853.1,371.3,851,369.1,848.3,369.1z"
		/>
	<path class="st2" d="M862.9,392.6h-9.7v-19.2c0-2.3,1.9-4.2,4.2-4.2h1.2c2.3,0,4.2,1.9,4.2,4.2V392.6z"/>
	<path class="st3" d="M858,369.1c-0.5,0-0.9,0.1-1.3,0.2c2,0.6,3.5,2.4,3.5,4.6v18.6h2.7V374C862.9,371.3,860.7,369.1,858,369.1z"/>
	<path class="st2" d="M883.7,392.6H874v-19.2c0-2.3,1.9-4.2,4.2-4.2h1.2c2.3,0,4.2,1.9,4.2,4.2V392.6z"/>
	<path class="st3" d="M878.9,369.1c-0.5,0-0.9,0.1-1.3,0.2c2,0.6,3.5,2.4,3.5,4.6v18.6h2.7V374C883.7,371.3,881.5,369.1,878.9,369.1
		z"/>
	<path class="st2" d="M893.4,392.6h-9.7v-19.2c0-2.3,1.9-4.2,4.2-4.2h1.2c2.3,0,4.2,1.9,4.2,4.2V392.6z"/>
	<path class="st3" d="M888.6,369.1c-0.5,0-0.9,0.1-1.3,0.2c2,0.6,3.5,2.4,3.5,4.6v18.6h2.7V374C893.4,371.3,891.3,369.1,888.6,369.1
		z"/>
	<path class="st2" d="M903.1,392.6h-9.7v-19.2c0-2.3,1.9-4.2,4.2-4.2h1.2c2.3,0,4.2,1.9,4.2,4.2V392.6z"/>
	<path class="st3" d="M898.3,369.1c-0.5,0-0.9,0.1-1.3,0.2c2,0.6,3.5,2.4,3.5,4.6v18.6h2.7V374C903.1,371.3,901,369.1,898.3,369.1z"
		/>
	<path class="st2" d="M924,392.6h-9.7v-19.2c0-2.3,1.9-4.2,4.2-4.2h1.2c2.3,0,4.2,1.9,4.2,4.2V392.6z"/>
	<path class="st3" d="M919.1,369.1c-0.5,0-0.9,0.1-1.3,0.2c2,0.6,3.5,2.4,3.5,4.6v18.6h2.7V374C924,371.3,921.8,369.1,919.1,369.1z"
		/>
	<path class="st2" d="M933.7,392.6H924v-19.2c0-2.3,1.9-4.2,4.2-4.2h1.2c2.3,0,4.2,1.9,4.2,4.2V392.6z"/>
	<path class="st3" d="M928.9,369.1c-0.5,0-0.9,0.1-1.3,0.2c2,0.6,3.5,2.4,3.5,4.6v18.6h2.7V374C933.7,371.3,931.5,369.1,928.9,369.1
		z"/>
	<path class="st2" d="M943.4,392.6h-9.7v-19.2c0-2.3,1.9-4.2,4.2-4.2h1.2c2.3,0,4.2,1.9,4.2,4.2V392.6z"/>
	<path class="st3" d="M938.6,369.1c-0.5,0-0.9,0.1-1.3,0.2c2,0.6,3.5,2.4,3.5,4.6v18.6h2.7V374C943.4,371.3,941.3,369.1,938.6,369.1
		z"/>
	<g>
		<path class="st4" d="M962.9,392.6h-9.7v-19.2c0-2.3,1.9-4.2,4.2-4.2h1.2c2.3,0,4.2,1.9,4.2,4.2V392.6z"/>
		<path class="st3" d="M958.1,369.1c-0.5,0-0.9,0.1-1.3,0.2c2,0.6,3.5,2.4,3.5,4.6v18.6h2.7V374
			C962.9,371.3,960.7,369.1,958.1,369.1z"/>
		<path class="st4" d="M972.6,392.6h-9.7v-19.2c0-2.3,1.9-4.2,4.2-4.2h1.2c2.3,0,4.2,1.9,4.2,4.2V392.6z"/>
		<path class="st3" d="M967.8,369.1c-0.5,0-0.9,0.1-1.3,0.2c2,0.6,3.5,2.4,3.5,4.6v18.6h2.7V374
			C972.6,371.3,970.5,369.1,967.8,369.1z"/>
	</g>
	<g>
		<path class="st4" d="M962.9,425.2h-9.7V406c0-2.3,1.9-4.2,4.2-4.2h1.2c2.3,0,4.2,1.9,4.2,4.2V425.2z"/>
		<path class="st3" d="M958.1,401.8c-0.5,0-0.9,0.1-1.3,0.2c2,0.6,3.5,2.4,3.5,4.6v18.6h2.7v-18.6
			C962.9,404,960.7,401.8,958.1,401.8z"/>
		<path class="st4" d="M972.6,425.2h-9.7V406c0-2.3,1.9-4.2,4.2-4.2h1.2c2.3,0,4.2,1.9,4.2,4.2V425.2z"/>
		<path class="st3" d="M967.8,401.8c-0.5,0-0.9,0.1-1.3,0.2c2,0.6,3.5,2.4,3.5,4.6v18.6h2.7v-18.6
			C972.6,404,970.5,401.8,967.8,401.8z"/>
	</g>
	<g>
		<path class="st4" d="M962.9,457.9h-9.7v-19.2c0-2.3,1.9-4.2,4.2-4.2h1.2c2.3,0,4.2,1.9,4.2,4.2V457.9z"/>
		<path class="st3" d="M958.1,434.5c-0.5,0-0.9,0.1-1.3,0.2c2,0.6,3.5,2.4,3.5,4.6v18.6h2.7v-18.6
			C962.9,436.6,960.7,434.5,958.1,434.5z"/>
		<path class="st4" d="M972.6,457.9h-9.7v-19.2c0-2.3,1.9-4.2,4.2-4.2h1.2c2.3,0,4.2,1.9,4.2,4.2V457.9z"/>
		<path class="st3" d="M967.8,434.5c-0.5,0-0.9,0.1-1.3,0.2c2,0.6,3.5,2.4,3.5,4.6v18.6h2.7v-18.6
			C972.6,436.6,970.5,434.5,967.8,434.5z"/>
	</g>
	<g>
		<path class="st4" d="M962.9,490.6h-9.7v-19.2c0-2.3,1.9-4.2,4.2-4.2h1.2c2.3,0,4.2,1.9,4.2,4.2V490.6z"/>
		<path class="st3" d="M958.1,467.1c-0.5,0-0.9,0.1-1.3,0.2c2,0.6,3.5,2.4,3.5,4.6v18.6h2.7V472
			C962.9,469.3,960.7,467.1,958.1,467.1z"/>
		<path class="st4" d="M972.6,490.6h-9.7v-19.2c0-2.3,1.9-4.2,4.2-4.2h1.2c2.3,0,4.2,1.9,4.2,4.2V490.6z"/>
		<path class="st3" d="M967.8,467.1c-0.5,0-0.9,0.1-1.3,0.2c2,0.6,3.5,2.4,3.5,4.6v18.6h2.7V472
			C972.6,469.3,970.5,467.1,967.8,467.1z"/>
	</g>
	<g>
		<path class="st4" d="M962.9,523.2h-9.7V504c0-2.3,1.9-4.2,4.2-4.2h1.2c2.3,0,4.2,1.9,4.2,4.2V523.2z"/>
		<path class="st3" d="M958.1,499.8c-0.5,0-0.9,0.1-1.3,0.2c2,0.6,3.5,2.4,3.5,4.6v18.6h2.7v-18.6
			C962.9,502,960.7,499.8,958.1,499.8z"/>
		<path class="st4" d="M972.6,523.2h-9.7V504c0-2.3,1.9-4.2,4.2-4.2h1.2c2.3,0,4.2,1.9,4.2,4.2V523.2z"/>
		<path class="st3" d="M967.8,499.8c-0.5,0-0.9,0.1-1.3,0.2c2,0.6,3.5,2.4,3.5,4.6v18.6h2.7v-18.6
			C972.6,502,970.5,499.8,967.8,499.8z"/>
	</g>
	<g>
		<path class="st4" d="M962.9,555.9h-9.7v-19.2c0-2.3,1.9-4.2,4.2-4.2h1.2c2.3,0,4.2,1.9,4.2,4.2V555.9z"/>
		<path class="st3" d="M958.1,532.5c-0.5,0-0.9,0.1-1.3,0.2c2,0.6,3.5,2.4,3.5,4.6v18.6h2.7v-18.6
			C962.9,534.6,960.7,532.5,958.1,532.5z"/>
		<path class="st4" d="M972.6,555.9h-9.7v-19.2c0-2.3,1.9-4.2,4.2-4.2h1.2c2.3,0,4.2,1.9,4.2,4.2V555.9z"/>
		<path class="st3" d="M967.8,532.5c-0.5,0-0.9,0.1-1.3,0.2c2,0.6,3.5,2.4,3.5,4.6v18.6h2.7v-18.6
			C972.6,534.6,970.5,532.5,967.8,532.5z"/>
	</g>
	<g>
		<path class="st4" d="M962.9,588.6h-9.7v-19.2c0-2.3,1.9-4.2,4.2-4.2h1.2c2.3,0,4.2,1.9,4.2,4.2V588.6z"/>
		<path class="st3" d="M958.1,565.1c-0.5,0-0.9,0.1-1.3,0.2c2,0.6,3.5,2.4,3.5,4.6v18.6h2.7V570
			C962.9,567.3,960.7,565.1,958.1,565.1z"/>
		<path class="st4" d="M972.6,588.6h-9.7v-19.2c0-2.3,1.9-4.2,4.2-4.2h1.2c2.3,0,4.2,1.9,4.2,4.2V588.6z"/>
		<path class="st3" d="M967.8,565.1c-0.5,0-0.9,0.1-1.3,0.2c2,0.6,3.5,2.4,3.5,4.6v18.6h2.7V570
			C972.6,567.3,970.5,565.1,967.8,565.1z"/>
	</g>
	<g>
		<path class="st4" d="M962.9,621.2h-9.7V602c0-2.3,1.9-4.2,4.2-4.2h1.2c2.3,0,4.2,1.9,4.2,4.2V621.2z"/>
		<path class="st3" d="M958.1,597.8c-0.5,0-0.9,0.1-1.3,0.2c2,0.6,3.5,2.4,3.5,4.6v18.6h2.7v-18.6
			C962.9,600,960.7,597.8,958.1,597.8z"/>
		<path class="st4" d="M972.6,621.2h-9.7V602c0-2.3,1.9-4.2,4.2-4.2h1.2c2.3,0,4.2,1.9,4.2,4.2V621.2z"/>
		<path class="st3" d="M967.8,597.8c-0.5,0-0.9,0.1-1.3,0.2c2,0.6,3.5,2.4,3.5,4.6v18.6h2.7v-18.6
			C972.6,600,970.5,597.8,967.8,597.8z"/>
	</g>
	<g>
		<path class="st4" d="M962.9,653.9h-9.7v-19.2c0-2.3,1.9-4.2,4.2-4.2h1.2c2.3,0,4.2,1.9,4.2,4.2V653.9z"/>
		<path class="st3" d="M958.1,630.5c-0.5,0-0.9,0.1-1.3,0.2c2,0.6,3.5,2.4,3.5,4.6v18.6h2.7v-18.6
			C962.9,632.6,960.7,630.5,958.1,630.5z"/>
		<path class="st4" d="M972.6,653.9h-9.7v-19.2c0-2.3,1.9-4.2,4.2-4.2h1.2c2.3,0,4.2,1.9,4.2,4.2V653.9z"/>
		<path class="st3" d="M967.8,630.5c-0.5,0-0.9,0.1-1.3,0.2c2,0.6,3.5,2.4,3.5,4.6v18.6h2.7v-18.6
			C972.6,632.6,970.5,630.5,967.8,630.5z"/>
	</g>
	<g>
		<path class="st4" d="M962.9,686.6h-9.7v-19.2c0-2.3,1.9-4.2,4.2-4.2h1.2c2.3,0,4.2,1.9,4.2,4.2V686.6z"/>
		<path class="st3" d="M958.1,663.1c-0.5,0-0.9,0.1-1.3,0.2c2,0.6,3.5,2.4,3.5,4.6v18.6h2.7V668
			C962.9,665.3,960.7,663.1,958.1,663.1z"/>
		<path class="st4" d="M972.6,686.6h-9.7v-19.2c0-2.3,1.9-4.2,4.2-4.2h1.2c2.3,0,4.2,1.9,4.2,4.2V686.6z"/>
		<path class="st3" d="M967.8,663.1c-0.5,0-0.9,0.1-1.3,0.2c2,0.6,3.5,2.4,3.5,4.6v18.6h2.7V668
			C972.6,665.3,970.5,663.1,967.8,663.1z"/>
	</g>
	<g>
		<path class="st4" d="M962.9,719.2h-9.7V700c0-2.3,1.9-4.2,4.2-4.2h1.2c2.3,0,4.2,1.9,4.2,4.2V719.2z"/>
		<path class="st3" d="M958.1,695.8c-0.5,0-0.9,0.1-1.3,0.2c2,0.6,3.5,2.4,3.5,4.6v18.6h2.7v-18.6
			C962.9,698,960.7,695.8,958.1,695.8z"/>
		<path class="st4" d="M972.6,719.2h-9.7V700c0-2.3,1.9-4.2,4.2-4.2h1.2c2.3,0,4.2,1.9,4.2,4.2V719.2z"/>
		<path class="st3" d="M967.8,695.8c-0.5,0-0.9,0.1-1.3,0.2c2,0.6,3.5,2.4,3.5,4.6v18.6h2.7v-18.6
			C972.6,698,970.5,695.8,967.8,695.8z"/>
	</g>
	<g>
		<path class="st4" d="M773.2,392.6h-9.7v-19.2c0-2.3,1.9-4.2,4.2-4.2h1.2c2.3,0,4.2,1.9,4.2,4.2V392.6z"/>
		<path class="st3" d="M768.3,369.1c-0.5,0-0.9,0.1-1.3,0.2c2,0.6,3.5,2.4,3.5,4.6v18.6h2.7V374C773.2,371.3,771,369.1,768.3,369.1z
			"/>
		<path class="st4" d="M782.9,392.6h-9.7v-19.2c0-2.3,1.9-4.2,4.2-4.2h1.2c2.3,0,4.2,1.9,4.2,4.2V392.6z"/>
		<path class="st3" d="M778,369.1c-0.5,0-0.9,0.1-1.3,0.2c2,0.6,3.5,2.4,3.5,4.6v18.6h2.7V374C782.9,371.3,780.7,369.1,778,369.1z"
			/>
	</g>
	<g>
		<path class="st4" d="M773.2,425.2h-9.7V406c0-2.3,1.9-4.2,4.2-4.2h1.2c2.3,0,4.2,1.9,4.2,4.2V425.2z"/>
		<path class="st3" d="M768.3,401.8c-0.5,0-0.9,0.1-1.3,0.2c2,0.6,3.5,2.4,3.5,4.6v18.6h2.7v-18.6C773.2,404,771,401.8,768.3,401.8z
			"/>
		<path class="st4" d="M782.9,425.2h-9.7V406c0-2.3,1.9-4.2,4.2-4.2h1.2c2.3,0,4.2,1.9,4.2,4.2V425.2z"/>
		<path class="st3" d="M778,401.8c-0.5,0-0.9,0.1-1.3,0.2c2,0.6,3.5,2.4,3.5,4.6v18.6h2.7v-18.6C782.9,404,780.7,401.8,778,401.8z"
			/>
	</g>
	<g>
		<path class="st4" d="M773.2,457.9h-9.7v-19.2c0-2.3,1.9-4.2,4.2-4.2h1.2c2.3,0,4.2,1.9,4.2,4.2V457.9z"/>
		<path class="st3" d="M768.3,434.5c-0.5,0-0.9,0.1-1.3,0.2c2,0.6,3.5,2.4,3.5,4.6v18.6h2.7v-18.6
			C773.2,436.6,771,434.5,768.3,434.5z"/>
		<path class="st4" d="M782.9,457.9h-9.7v-19.2c0-2.3,1.9-4.2,4.2-4.2h1.2c2.3,0,4.2,1.9,4.2,4.2V457.9z"/>
		<path class="st3" d="M778,434.5c-0.5,0-0.9,0.1-1.3,0.2c2,0.6,3.5,2.4,3.5,4.6v18.6h2.7v-18.6C782.9,436.6,780.7,434.5,778,434.5z
			"/>
	</g>
	<g>
		<path class="st4" d="M773.2,490.6h-9.7v-19.2c0-2.3,1.9-4.2,4.2-4.2h1.2c2.3,0,4.2,1.9,4.2,4.2V490.6z"/>
		<path class="st3" d="M768.3,467.1c-0.5,0-0.9,0.1-1.3,0.2c2,0.6,3.5,2.4,3.5,4.6v18.6h2.7V472C773.2,469.3,771,467.1,768.3,467.1z
			"/>
		<path class="st4" d="M782.9,490.6h-9.7v-19.2c0-2.3,1.9-4.2,4.2-4.2h1.2c2.3,0,4.2,1.9,4.2,4.2V490.6z"/>
		<path class="st3" d="M778,467.1c-0.5,0-0.9,0.1-1.3,0.2c2,0.6,3.5,2.4,3.5,4.6v18.6h2.7V472C782.9,469.3,780.7,467.1,778,467.1z"
			/>
	</g>
	<g>
		<path class="st4" d="M773.2,523.2h-9.7V504c0-2.3,1.9-4.2,4.2-4.2h1.2c2.3,0,4.2,1.9,4.2,4.2V523.2z"/>
		<path class="st3" d="M768.3,499.8c-0.5,0-0.9,0.1-1.3,0.2c2,0.6,3.5,2.4,3.5,4.6v18.6h2.7v-18.6C773.2,502,771,499.8,768.3,499.8z
			"/>
		<path class="st4" d="M782.9,523.2h-9.7V504c0-2.3,1.9-4.2,4.2-4.2h1.2c2.3,0,4.2,1.9,4.2,4.2V523.2z"/>
		<path class="st3" d="M778,499.8c-0.5,0-0.9,0.1-1.3,0.2c2,0.6,3.5,2.4,3.5,4.6v18.6h2.7v-18.6C782.9,502,780.7,499.8,778,499.8z"
			/>
	</g>
	<g>
		<path class="st4" d="M773.2,555.9h-9.7v-19.2c0-2.3,1.9-4.2,4.2-4.2h1.2c2.3,0,4.2,1.9,4.2,4.2V555.9z"/>
		<path class="st3" d="M768.3,532.5c-0.5,0-0.9,0.1-1.3,0.2c2,0.6,3.5,2.4,3.5,4.6v18.6h2.7v-18.6
			C773.2,534.6,771,532.5,768.3,532.5z"/>
		<path class="st4" d="M782.9,555.9h-9.7v-19.2c0-2.3,1.9-4.2,4.2-4.2h1.2c2.3,0,4.2,1.9,4.2,4.2V555.9z"/>
		<path class="st3" d="M778,532.5c-0.5,0-0.9,0.1-1.3,0.2c2,0.6,3.5,2.4,3.5,4.6v18.6h2.7v-18.6C782.9,534.6,780.7,532.5,778,532.5z
			"/>
	</g>
	<g>
		<path class="st4" d="M773.2,588.6h-9.7v-19.2c0-2.3,1.9-4.2,4.2-4.2h1.2c2.3,0,4.2,1.9,4.2,4.2V588.6z"/>
		<path class="st3" d="M768.3,565.1c-0.5,0-0.9,0.1-1.3,0.2c2,0.6,3.5,2.4,3.5,4.6v18.6h2.7V570C773.2,567.3,771,565.1,768.3,565.1z
			"/>
		<path class="st4" d="M782.9,588.6h-9.7v-19.2c0-2.3,1.9-4.2,4.2-4.2h1.2c2.3,0,4.2,1.9,4.2,4.2V588.6z"/>
		<path class="st3" d="M778,565.1c-0.5,0-0.9,0.1-1.3,0.2c2,0.6,3.5,2.4,3.5,4.6v18.6h2.7V570C782.9,567.3,780.7,565.1,778,565.1z"
			/>
	</g>
	<g>
		<path class="st4" d="M773.2,621.2h-9.7V602c0-2.3,1.9-4.2,4.2-4.2h1.2c2.3,0,4.2,1.9,4.2,4.2V621.2z"/>
		<path class="st3" d="M768.3,597.8c-0.5,0-0.9,0.1-1.3,0.2c2,0.6,3.5,2.4,3.5,4.6v18.6h2.7v-18.6C773.2,600,771,597.8,768.3,597.8z
			"/>
		<path class="st4" d="M782.9,621.2h-9.7V602c0-2.3,1.9-4.2,4.2-4.2h1.2c2.3,0,4.2,1.9,4.2,4.2V621.2z"/>
		<path class="st3" d="M778,597.8c-0.5,0-0.9,0.1-1.3,0.2c2,0.6,3.5,2.4,3.5,4.6v18.6h2.7v-18.6C782.9,600,780.7,597.8,778,597.8z"
			/>
	</g>
	<g>
		<path class="st4" d="M773.2,653.9h-9.7v-19.2c0-2.3,1.9-4.2,4.2-4.2h1.2c2.3,0,4.2,1.9,4.2,4.2V653.9z"/>
		<path class="st3" d="M768.3,630.5c-0.5,0-0.9,0.1-1.3,0.2c2,0.6,3.5,2.4,3.5,4.6v18.6h2.7v-18.6
			C773.2,632.6,771,630.5,768.3,630.5z"/>
		<path class="st4" d="M782.9,653.9h-9.7v-19.2c0-2.3,1.9-4.2,4.2-4.2h1.2c2.3,0,4.2,1.9,4.2,4.2V653.9z"/>
		<path class="st3" d="M778,630.5c-0.5,0-0.9,0.1-1.3,0.2c2,0.6,3.5,2.4,3.5,4.6v18.6h2.7v-18.6C782.9,632.6,780.7,630.5,778,630.5z
			"/>
	</g>
	<g>
		<path class="st4" d="M773.2,686.6h-9.7v-19.2c0-2.3,1.9-4.2,4.2-4.2h1.2c2.3,0,4.2,1.9,4.2,4.2V686.6z"/>
		<path class="st3" d="M768.3,663.1c-0.5,0-0.9,0.1-1.3,0.2c2,0.6,3.5,2.4,3.5,4.6v18.6h2.7V668C773.2,665.3,771,663.1,768.3,663.1z
			"/>
		<path class="st4" d="M782.9,686.6h-9.7v-19.2c0-2.3,1.9-4.2,4.2-4.2h1.2c2.3,0,4.2,1.9,4.2,4.2V686.6z"/>
		<path class="st3" d="M778,663.1c-0.5,0-0.9,0.1-1.3,0.2c2,0.6,3.5,2.4,3.5,4.6v18.6h2.7V668C782.9,665.3,780.7,663.1,778,663.1z"
			/>
	</g>
	<g>
		<path class="st4" d="M773.2,719.2h-9.7V700c0-2.3,1.9-4.2,4.2-4.2h1.2c2.3,0,4.2,1.9,4.2,4.2V719.2z"/>
		<path class="st3" d="M768.3,695.8c-0.5,0-0.9,0.1-1.3,0.2c2,0.6,3.5,2.4,3.5,4.6v18.6h2.7v-18.6C773.2,698,771,695.8,768.3,695.8z
			"/>
		<path class="st4" d="M782.9,719.2h-9.7V700c0-2.3,1.9-4.2,4.2-4.2h1.2c2.3,0,4.2,1.9,4.2,4.2V719.2z"/>
		<path class="st3" d="M778,695.8c-0.5,0-0.9,0.1-1.3,0.2c2,0.6,3.5,2.4,3.5,4.6v18.6h2.7v-18.6C782.9,698,780.7,695.8,778,695.8z"
			/>
	</g>
	<path class="st2" d="M803.1,425.2h-9.7V406c0-2.3,1.9-4.2,4.2-4.2h1.2c2.3,0,4.2,1.9,4.2,4.2V425.2z"/>
	<path class="st3" d="M798.3,401.8c-0.5,0-0.9,0.1-1.3,0.2c2,0.6,3.5,2.4,3.5,4.6v18.6h2.7v-18.6C803.1,404,801,401.8,798.3,401.8z"
		/>
	<path class="st2" d="M812.9,425.2h-9.7V406c0-2.3,1.9-4.2,4.2-4.2h1.2c2.3,0,4.2,1.9,4.2,4.2V425.2z"/>
	<path class="st3" d="M808,401.8c-0.5,0-0.9,0.1-1.3,0.2c2,0.6,3.5,2.4,3.5,4.6v18.6h2.7v-18.6C812.9,404,810.7,401.8,808,401.8z"/>
	<path class="st2" d="M822.6,425.2h-9.7V406c0-2.3,1.9-4.2,4.2-4.2h1.2c2.3,0,4.2,1.9,4.2,4.2V425.2z"/>
	<path class="st3" d="M817.7,401.8c-0.5,0-0.9,0.1-1.3,0.2c2,0.6,3.5,2.4,3.5,4.6v18.6h2.7v-18.6C822.6,404,820.4,401.8,817.7,401.8
		z"/>
	<path class="st2" d="M843.4,425.2h-9.7V406c0-2.3,1.9-4.2,4.2-4.2h1.2c2.3,0,4.2,1.9,4.2,4.2V425.2z"/>
	<path class="st3" d="M838.6,401.8c-0.5,0-0.9,0.1-1.3,0.2c2,0.6,3.5,2.4,3.5,4.6v18.6h2.7v-18.6C843.4,404,841.3,401.8,838.6,401.8
		z"/>
	<path class="st2" d="M853.1,425.2h-9.7V406c0-2.3,1.9-4.2,4.2-4.2h1.2c2.3,0,4.2,1.9,4.2,4.2V425.2z"/>
	<path class="st3" d="M848.3,401.8c-0.5,0-0.9,0.1-1.3,0.2c2,0.6,3.5,2.4,3.5,4.6v18.6h2.7v-18.6C853.1,404,851,401.8,848.3,401.8z"
		/>
	<path class="st2" d="M862.9,425.2h-9.7V406c0-2.3,1.9-4.2,4.2-4.2h1.2c2.3,0,4.2,1.9,4.2,4.2V425.2z"/>
	<path class="st3" d="M858,401.8c-0.5,0-0.9,0.1-1.3,0.2c2,0.6,3.5,2.4,3.5,4.6v18.6h2.7v-18.6C862.9,404,860.7,401.8,858,401.8z"/>
	<path class="st2" d="M883.7,425.2H874V406c0-2.3,1.9-4.2,4.2-4.2h1.2c2.3,0,4.2,1.9,4.2,4.2V425.2z"/>
	<path class="st3" d="M878.9,401.8c-0.5,0-0.9,0.1-1.3,0.2c2,0.6,3.5,2.4,3.5,4.6v18.6h2.7v-18.6C883.7,404,881.5,401.8,878.9,401.8
		z"/>
	<path class="st2" d="M893.4,425.2h-9.7V406c0-2.3,1.9-4.2,4.2-4.2h1.2c2.3,0,4.2,1.9,4.2,4.2V425.2z"/>
	<path class="st3" d="M888.6,401.8c-0.5,0-0.9,0.1-1.3,0.2c2,0.6,3.5,2.4,3.5,4.6v18.6h2.7v-18.6C893.4,404,891.3,401.8,888.6,401.8
		z"/>
	<path class="st2" d="M903.1,425.2h-9.7V406c0-2.3,1.9-4.2,4.2-4.2h1.2c2.3,0,4.2,1.9,4.2,4.2V425.2z"/>
	<path class="st3" d="M898.3,401.8c-0.5,0-0.9,0.1-1.3,0.2c2,0.6,3.5,2.4,3.5,4.6v18.6h2.7v-18.6C903.1,404,901,401.8,898.3,401.8z"
		/>
	<path class="st2" d="M924,425.2h-9.7V406c0-2.3,1.9-4.2,4.2-4.2h1.2c2.3,0,4.2,1.9,4.2,4.2V425.2z"/>
	<path class="st3" d="M919.1,401.8c-0.5,0-0.9,0.1-1.3,0.2c2,0.6,3.5,2.4,3.5,4.6v18.6h2.7v-18.6C924,404,921.8,401.8,919.1,401.8z"
		/>
	<path class="st2" d="M933.7,425.2H924V406c0-2.3,1.9-4.2,4.2-4.2h1.2c2.3,0,4.2,1.9,4.2,4.2V425.2z"/>
	<path class="st3" d="M928.9,401.8c-0.5,0-0.9,0.1-1.3,0.2c2,0.6,3.5,2.4,3.5,4.6v18.6h2.7v-18.6C933.7,404,931.5,401.8,928.9,401.8
		z"/>
	<path class="st2" d="M943.4,425.2h-9.7V406c0-2.3,1.9-4.2,4.2-4.2h1.2c2.3,0,4.2,1.9,4.2,4.2V425.2z"/>
	<path class="st3" d="M938.6,401.8c-0.5,0-0.9,0.1-1.3,0.2c2,0.6,3.5,2.4,3.5,4.6v18.6h2.7v-18.6C943.4,404,941.3,401.8,938.6,401.8
		z"/>
	<path class="st2" d="M803.1,457.9h-9.7v-19.2c0-2.3,1.9-4.2,4.2-4.2h1.2c2.3,0,4.2,1.9,4.2,4.2V457.9z"/>
	<path class="st3" d="M798.3,434.5c-0.5,0-0.9,0.1-1.3,0.2c2,0.6,3.5,2.4,3.5,4.6v18.6h2.7v-18.6C803.1,436.6,801,434.5,798.3,434.5
		z"/>
	<path class="st2" d="M812.9,457.9h-9.7v-19.2c0-2.3,1.9-4.2,4.2-4.2h1.2c2.3,0,4.2,1.9,4.2,4.2V457.9z"/>
	<path class="st3" d="M808,434.5c-0.5,0-0.9,0.1-1.3,0.2c2,0.6,3.5,2.4,3.5,4.6v18.6h2.7v-18.6C812.9,436.6,810.7,434.5,808,434.5z"
		/>
	<path class="st2" d="M822.6,457.9h-9.7v-19.2c0-2.3,1.9-4.2,4.2-4.2h1.2c2.3,0,4.2,1.9,4.2,4.2V457.9z"/>
	<path class="st3" d="M817.7,434.5c-0.5,0-0.9,0.1-1.3,0.2c2,0.6,3.5,2.4,3.5,4.6v18.6h2.7v-18.6
		C822.6,436.6,820.4,434.5,817.7,434.5z"/>
	<path class="st2" d="M843.4,457.9h-9.7v-19.2c0-2.3,1.9-4.2,4.2-4.2h1.2c2.3,0,4.2,1.9,4.2,4.2V457.9z"/>
	<path class="st3" d="M838.6,434.5c-0.5,0-0.9,0.1-1.3,0.2c2,0.6,3.5,2.4,3.5,4.6v18.6h2.7v-18.6
		C843.4,436.6,841.3,434.5,838.6,434.5z"/>
	<path class="st2" d="M853.1,457.9h-9.7v-19.2c0-2.3,1.9-4.2,4.2-4.2h1.2c2.3,0,4.2,1.9,4.2,4.2V457.9z"/>
	<path class="st3" d="M848.3,434.5c-0.5,0-0.9,0.1-1.3,0.2c2,0.6,3.5,2.4,3.5,4.6v18.6h2.7v-18.6C853.1,436.6,851,434.5,848.3,434.5
		z"/>
	<path class="st2" d="M862.9,457.9h-9.7v-19.2c0-2.3,1.9-4.2,4.2-4.2h1.2c2.3,0,4.2,1.9,4.2,4.2V457.9z"/>
	<path class="st3" d="M858,434.5c-0.5,0-0.9,0.1-1.3,0.2c2,0.6,3.5,2.4,3.5,4.6v18.6h2.7v-18.6C862.9,436.6,860.7,434.5,858,434.5z"
		/>
	<path class="st2" d="M883.7,457.9H874v-19.2c0-2.3,1.9-4.2,4.2-4.2h1.2c2.3,0,4.2,1.9,4.2,4.2V457.9z"/>
	<path class="st3" d="M878.9,434.5c-0.5,0-0.9,0.1-1.3,0.2c2,0.6,3.5,2.4,3.5,4.6v18.6h2.7v-18.6
		C883.7,436.6,881.5,434.5,878.9,434.5z"/>
	<path class="st2" d="M893.4,457.9h-9.7v-19.2c0-2.3,1.9-4.2,4.2-4.2h1.2c2.3,0,4.2,1.9,4.2,4.2V457.9z"/>
	<path class="st3" d="M888.6,434.5c-0.5,0-0.9,0.1-1.3,0.2c2,0.6,3.5,2.4,3.5,4.6v18.6h2.7v-18.6
		C893.4,436.6,891.3,434.5,888.6,434.5z"/>
	<path class="st2" d="M903.1,457.9h-9.7v-19.2c0-2.3,1.9-4.2,4.2-4.2h1.2c2.3,0,4.2,1.9,4.2,4.2V457.9z"/>
	<path class="st3" d="M898.3,434.5c-0.5,0-0.9,0.1-1.3,0.2c2,0.6,3.5,2.4,3.5,4.6v18.6h2.7v-18.6C903.1,436.6,901,434.5,898.3,434.5
		z"/>
	<path class="st2" d="M924,457.9h-9.7v-19.2c0-2.3,1.9-4.2,4.2-4.2h1.2c2.3,0,4.2,1.9,4.2,4.2V457.9z"/>
	<path class="st3" d="M919.1,434.5c-0.5,0-0.9,0.1-1.3,0.2c2,0.6,3.5,2.4,3.5,4.6v18.6h2.7v-18.6C924,436.6,921.8,434.5,919.1,434.5
		z"/>
	<path class="st2" d="M933.7,457.9H924v-19.2c0-2.3,1.9-4.2,4.2-4.2h1.2c2.3,0,4.2,1.9,4.2,4.2V457.9z"/>
	<path class="st3" d="M928.9,434.5c-0.5,0-0.9,0.1-1.3,0.2c2,0.6,3.5,2.4,3.5,4.6v18.6h2.7v-18.6
		C933.7,436.6,931.5,434.5,928.9,434.5z"/>
	<path class="st2" d="M943.4,457.9h-9.7v-19.2c0-2.3,1.9-4.2,4.2-4.2h1.2c2.3,0,4.2,1.9,4.2,4.2V457.9z"/>
	<path class="st3" d="M938.6,434.5c-0.5,0-0.9,0.1-1.3,0.2c2,0.6,3.5,2.4,3.5,4.6v18.6h2.7v-18.6
		C943.4,436.6,941.3,434.5,938.6,434.5z"/>
	<path class="st2" d="M803.1,490.6h-9.7v-19.2c0-2.3,1.9-4.2,4.2-4.2h1.2c2.3,0,4.2,1.9,4.2,4.2V490.6z"/>
	<path class="st3" d="M798.3,467.1c-0.5,0-0.9,0.1-1.3,0.2c2,0.6,3.5,2.4,3.5,4.6v18.6h2.7V472C803.1,469.3,801,467.1,798.3,467.1z"
		/>
	<path class="st2" d="M812.9,490.6h-9.7v-19.2c0-2.3,1.9-4.2,4.2-4.2h1.2c2.3,0,4.2,1.9,4.2,4.2V490.6z"/>
	<path class="st3" d="M808,467.1c-0.5,0-0.9,0.1-1.3,0.2c2,0.6,3.5,2.4,3.5,4.6v18.6h2.7V472C812.9,469.3,810.7,467.1,808,467.1z"/>
	<path class="st2" d="M822.6,490.6h-9.7v-19.2c0-2.3,1.9-4.2,4.2-4.2h1.2c2.3,0,4.2,1.9,4.2,4.2V490.6z"/>
	<path class="st3" d="M817.7,467.1c-0.5,0-0.9,0.1-1.3,0.2c2,0.6,3.5,2.4,3.5,4.6v18.6h2.7V472C822.6,469.3,820.4,467.1,817.7,467.1
		z"/>
	<path class="st2" d="M843.4,490.6h-9.7v-19.2c0-2.3,1.9-4.2,4.2-4.2h1.2c2.3,0,4.2,1.9,4.2,4.2V490.6z"/>
	<path class="st3" d="M838.6,467.1c-0.5,0-0.9,0.1-1.3,0.2c2,0.6,3.5,2.4,3.5,4.6v18.6h2.7V472C843.4,469.3,841.3,467.1,838.6,467.1
		z"/>
	<path class="st2" d="M853.1,490.6h-9.7v-19.2c0-2.3,1.9-4.2,4.2-4.2h1.2c2.3,0,4.2,1.9,4.2,4.2V490.6z"/>
	<path class="st3" d="M848.3,467.1c-0.5,0-0.9,0.1-1.3,0.2c2,0.6,3.5,2.4,3.5,4.6v18.6h2.7V472C853.1,469.3,851,467.1,848.3,467.1z"
		/>
	<path class="st2" d="M862.9,490.6h-9.7v-19.2c0-2.3,1.9-4.2,4.2-4.2h1.2c2.3,0,4.2,1.9,4.2,4.2V490.6z"/>
	<path class="st3" d="M858,467.1c-0.5,0-0.9,0.1-1.3,0.2c2,0.6,3.5,2.4,3.5,4.6v18.6h2.7V472C862.9,469.3,860.7,467.1,858,467.1z"/>
	<path class="st2" d="M883.7,490.6H874v-19.2c0-2.3,1.9-4.2,4.2-4.2h1.2c2.3,0,4.2,1.9,4.2,4.2V490.6z"/>
	<path class="st3" d="M878.9,467.1c-0.5,0-0.9,0.1-1.3,0.2c2,0.6,3.5,2.4,3.5,4.6v18.6h2.7V472C883.7,469.3,881.5,467.1,878.9,467.1
		z"/>
	<path class="st2" d="M893.4,490.6h-9.7v-19.2c0-2.3,1.9-4.2,4.2-4.2h1.2c2.3,0,4.2,1.9,4.2,4.2V490.6z"/>
	<path class="st3" d="M888.6,467.1c-0.5,0-0.9,0.1-1.3,0.2c2,0.6,3.5,2.4,3.5,4.6v18.6h2.7V472C893.4,469.3,891.3,467.1,888.6,467.1
		z"/>
	<path class="st2" d="M903.1,490.6h-9.7v-19.2c0-2.3,1.9-4.2,4.2-4.2h1.2c2.3,0,4.2,1.9,4.2,4.2V490.6z"/>
	<path class="st3" d="M898.3,467.1c-0.5,0-0.9,0.1-1.3,0.2c2,0.6,3.5,2.4,3.5,4.6v18.6h2.7V472C903.1,469.3,901,467.1,898.3,467.1z"
		/>
	<path class="st2" d="M924,490.6h-9.7v-19.2c0-2.3,1.9-4.2,4.2-4.2h1.2c2.3,0,4.2,1.9,4.2,4.2V490.6z"/>
	<path class="st3" d="M919.1,467.1c-0.5,0-0.9,0.1-1.3,0.2c2,0.6,3.5,2.4,3.5,4.6v18.6h2.7V472C924,469.3,921.8,467.1,919.1,467.1z"
		/>
	<path class="st2" d="M933.7,490.6H924v-19.2c0-2.3,1.9-4.2,4.2-4.2h1.2c2.3,0,4.2,1.9,4.2,4.2V490.6z"/>
	<path class="st3" d="M928.9,467.1c-0.5,0-0.9,0.1-1.3,0.2c2,0.6,3.5,2.4,3.5,4.6v18.6h2.7V472C933.7,469.3,931.5,467.1,928.9,467.1
		z"/>
	<path class="st2" d="M943.4,490.6h-9.7v-19.2c0-2.3,1.9-4.2,4.2-4.2h1.2c2.3,0,4.2,1.9,4.2,4.2V490.6z"/>
	<path class="st3" d="M938.6,467.1c-0.5,0-0.9,0.1-1.3,0.2c2,0.6,3.5,2.4,3.5,4.6v18.6h2.7V472C943.4,469.3,941.3,467.1,938.6,467.1
		z"/>
	<path class="st2" d="M803.1,523.2h-9.7V504c0-2.3,1.9-4.2,4.2-4.2h1.2c2.3,0,4.2,1.9,4.2,4.2V523.2z"/>
	<path class="st3" d="M798.3,499.8c-0.5,0-0.9,0.1-1.3,0.2c2,0.6,3.5,2.4,3.5,4.6v18.6h2.7v-18.6C803.1,502,801,499.8,798.3,499.8z"
		/>
	<path class="st2" d="M812.9,523.2h-9.7V504c0-2.3,1.9-4.2,4.2-4.2h1.2c2.3,0,4.2,1.9,4.2,4.2V523.2z"/>
	<path class="st3" d="M808,499.8c-0.5,0-0.9,0.1-1.3,0.2c2,0.6,3.5,2.4,3.5,4.6v18.6h2.7v-18.6C812.9,502,810.7,499.8,808,499.8z"/>
	<path class="st2" d="M822.6,523.2h-9.7V504c0-2.3,1.9-4.2,4.2-4.2h1.2c2.3,0,4.2,1.9,4.2,4.2V523.2z"/>
	<path class="st3" d="M817.7,499.8c-0.5,0-0.9,0.1-1.3,0.2c2,0.6,3.5,2.4,3.5,4.6v18.6h2.7v-18.6C822.6,502,820.4,499.8,817.7,499.8
		z"/>
	<path class="st2" d="M843.4,523.2h-9.7V504c0-2.3,1.9-4.2,4.2-4.2h1.2c2.3,0,4.2,1.9,4.2,4.2V523.2z"/>
	<path class="st3" d="M838.6,499.8c-0.5,0-0.9,0.1-1.3,0.2c2,0.6,3.5,2.4,3.5,4.6v18.6h2.7v-18.6C843.4,502,841.3,499.8,838.6,499.8
		z"/>
	<path class="st2" d="M853.1,523.2h-9.7V504c0-2.3,1.9-4.2,4.2-4.2h1.2c2.3,0,4.2,1.9,4.2,4.2V523.2z"/>
	<path class="st3" d="M848.3,499.8c-0.5,0-0.9,0.1-1.3,0.2c2,0.6,3.5,2.4,3.5,4.6v18.6h2.7v-18.6C853.1,502,851,499.8,848.3,499.8z"
		/>
	<path class="st2" d="M862.9,523.2h-9.7V504c0-2.3,1.9-4.2,4.2-4.2h1.2c2.3,0,4.2,1.9,4.2,4.2V523.2z"/>
	<path class="st3" d="M858,499.8c-0.5,0-0.9,0.1-1.3,0.2c2,0.6,3.5,2.4,3.5,4.6v18.6h2.7v-18.6C862.9,502,860.7,499.8,858,499.8z"/>
	<path class="st2" d="M883.7,523.2H874V504c0-2.3,1.9-4.2,4.2-4.2h1.2c2.3,0,4.2,1.9,4.2,4.2V523.2z"/>
	<path class="st3" d="M878.9,499.8c-0.5,0-0.9,0.1-1.3,0.2c2,0.6,3.5,2.4,3.5,4.6v18.6h2.7v-18.6C883.7,502,881.5,499.8,878.9,499.8
		z"/>
	<path class="st2" d="M893.4,523.2h-9.7V504c0-2.3,1.9-4.2,4.2-4.2h1.2c2.3,0,4.2,1.9,4.2,4.2V523.2z"/>
	<path class="st3" d="M888.6,499.8c-0.5,0-0.9,0.1-1.3,0.2c2,0.6,3.5,2.4,3.5,4.6v18.6h2.7v-18.6C893.4,502,891.3,499.8,888.6,499.8
		z"/>
	<path class="st2" d="M903.1,523.2h-9.7V504c0-2.3,1.9-4.2,4.2-4.2h1.2c2.3,0,4.2,1.9,4.2,4.2V523.2z"/>
	<path class="st3" d="M898.3,499.8c-0.5,0-0.9,0.1-1.3,0.2c2,0.6,3.5,2.4,3.5,4.6v18.6h2.7v-18.6C903.1,502,901,499.8,898.3,499.8z"
		/>
	<path class="st2" d="M924,523.2h-9.7V504c0-2.3,1.9-4.2,4.2-4.2h1.2c2.3,0,4.2,1.9,4.2,4.2V523.2z"/>
	<path class="st3" d="M919.1,499.8c-0.5,0-0.9,0.1-1.3,0.2c2,0.6,3.5,2.4,3.5,4.6v18.6h2.7v-18.6C924,502,921.8,499.8,919.1,499.8z"
		/>
	<path class="st2" d="M933.7,523.2H924V504c0-2.3,1.9-4.2,4.2-4.2h1.2c2.3,0,4.2,1.9,4.2,4.2V523.2z"/>
	<path class="st3" d="M928.9,499.8c-0.5,0-0.9,0.1-1.3,0.2c2,0.6,3.5,2.4,3.5,4.6v18.6h2.7v-18.6C933.7,502,931.5,499.8,928.9,499.8
		z"/>
	<path class="st2" d="M943.4,523.2h-9.7V504c0-2.3,1.9-4.2,4.2-4.2h1.2c2.3,0,4.2,1.9,4.2,4.2V523.2z"/>
	<path class="st3" d="M938.6,499.8c-0.5,0-0.9,0.1-1.3,0.2c2,0.6,3.5,2.4,3.5,4.6v18.6h2.7v-18.6C943.4,502,941.3,499.8,938.6,499.8
		z"/>
	<path class="st2" d="M803.1,555.9h-9.7v-19.2c0-2.3,1.9-4.2,4.2-4.2h1.2c2.3,0,4.2,1.9,4.2,4.2V555.9z"/>
	<path class="st3" d="M798.3,532.5c-0.5,0-0.9,0.1-1.3,0.2c2,0.6,3.5,2.4,3.5,4.6v18.6h2.7v-18.6C803.1,534.6,801,532.5,798.3,532.5
		z"/>
	<path class="st2" d="M812.9,555.9h-9.7v-19.2c0-2.3,1.9-4.2,4.2-4.2h1.2c2.3,0,4.2,1.9,4.2,4.2V555.9z"/>
	<path class="st3" d="M808,532.5c-0.5,0-0.9,0.1-1.3,0.2c2,0.6,3.5,2.4,3.5,4.6v18.6h2.7v-18.6C812.9,534.6,810.7,532.5,808,532.5z"
		/>
	<path class="st2" d="M822.6,555.9h-9.7v-19.2c0-2.3,1.9-4.2,4.2-4.2h1.2c2.3,0,4.2,1.9,4.2,4.2V555.9z"/>
	<path class="st3" d="M817.7,532.5c-0.5,0-0.9,0.1-1.3,0.2c2,0.6,3.5,2.4,3.5,4.6v18.6h2.7v-18.6
		C822.6,534.6,820.4,532.5,817.7,532.5z"/>
	<path class="st2" d="M843.4,555.9h-9.7v-19.2c0-2.3,1.9-4.2,4.2-4.2h1.2c2.3,0,4.2,1.9,4.2,4.2V555.9z"/>
	<path class="st3" d="M838.6,532.5c-0.5,0-0.9,0.1-1.3,0.2c2,0.6,3.5,2.4,3.5,4.6v18.6h2.7v-18.6
		C843.4,534.6,841.3,532.5,838.6,532.5z"/>
	<path class="st2" d="M853.1,555.9h-9.7v-19.2c0-2.3,1.9-4.2,4.2-4.2h1.2c2.3,0,4.2,1.9,4.2,4.2V555.9z"/>
	<path class="st3" d="M848.3,532.5c-0.5,0-0.9,0.1-1.3,0.2c2,0.6,3.5,2.4,3.5,4.6v18.6h2.7v-18.6C853.1,534.6,851,532.5,848.3,532.5
		z"/>
	<path class="st2" d="M862.9,555.9h-9.7v-19.2c0-2.3,1.9-4.2,4.2-4.2h1.2c2.3,0,4.2,1.9,4.2,4.2V555.9z"/>
	<path class="st3" d="M858,532.5c-0.5,0-0.9,0.1-1.3,0.2c2,0.6,3.5,2.4,3.5,4.6v18.6h2.7v-18.6C862.9,534.6,860.7,532.5,858,532.5z"
		/>
	<path class="st2" d="M883.7,555.9H874v-19.2c0-2.3,1.9-4.2,4.2-4.2h1.2c2.3,0,4.2,1.9,4.2,4.2V555.9z"/>
	<path class="st3" d="M878.9,532.5c-0.5,0-0.9,0.1-1.3,0.2c2,0.6,3.5,2.4,3.5,4.6v18.6h2.7v-18.6
		C883.7,534.6,881.5,532.5,878.9,532.5z"/>
	<path class="st2" d="M893.4,555.9h-9.7v-19.2c0-2.3,1.9-4.2,4.2-4.2h1.2c2.3,0,4.2,1.9,4.2,4.2V555.9z"/>
	<path class="st3" d="M888.6,532.5c-0.5,0-0.9,0.1-1.3,0.2c2,0.6,3.5,2.4,3.5,4.6v18.6h2.7v-18.6
		C893.4,534.6,891.3,532.5,888.6,532.5z"/>
	<path class="st2" d="M903.1,555.9h-9.7v-19.2c0-2.3,1.9-4.2,4.2-4.2h1.2c2.3,0,4.2,1.9,4.2,4.2V555.9z"/>
	<path class="st3" d="M898.3,532.5c-0.5,0-0.9,0.1-1.3,0.2c2,0.6,3.5,2.4,3.5,4.6v18.6h2.7v-18.6C903.1,534.6,901,532.5,898.3,532.5
		z"/>
	<path class="st2" d="M924,555.9h-9.7v-19.2c0-2.3,1.9-4.2,4.2-4.2h1.2c2.3,0,4.2,1.9,4.2,4.2V555.9z"/>
	<path class="st3" d="M919.1,532.5c-0.5,0-0.9,0.1-1.3,0.2c2,0.6,3.5,2.4,3.5,4.6v18.6h2.7v-18.6C924,534.6,921.8,532.5,919.1,532.5
		z"/>
	<path class="st2" d="M933.7,555.9H924v-19.2c0-2.3,1.9-4.2,4.2-4.2h1.2c2.3,0,4.2,1.9,4.2,4.2V555.9z"/>
	<path class="st3" d="M928.9,532.5c-0.5,0-0.9,0.1-1.3,0.2c2,0.6,3.5,2.4,3.5,4.6v18.6h2.7v-18.6
		C933.7,534.6,931.5,532.5,928.9,532.5z"/>
	<path class="st2" d="M943.4,555.9h-9.7v-19.2c0-2.3,1.9-4.2,4.2-4.2h1.2c2.3,0,4.2,1.9,4.2,4.2V555.9z"/>
	<path class="st3" d="M938.6,532.5c-0.5,0-0.9,0.1-1.3,0.2c2,0.6,3.5,2.4,3.5,4.6v18.6h2.7v-18.6
		C943.4,534.6,941.3,532.5,938.6,532.5z"/>
	<path class="st2" d="M803.1,588.6h-9.7v-19.2c0-2.3,1.9-4.2,4.2-4.2h1.2c2.3,0,4.2,1.9,4.2,4.2V588.6z"/>
	<path class="st3" d="M798.3,565.1c-0.5,0-0.9,0.1-1.3,0.2c2,0.6,3.5,2.4,3.5,4.6v18.6h2.7V570C803.1,567.3,801,565.1,798.3,565.1z"
		/>
	<path class="st2" d="M812.9,588.6h-9.7v-19.2c0-2.3,1.9-4.2,4.2-4.2h1.2c2.3,0,4.2,1.9,4.2,4.2V588.6z"/>
	<path class="st3" d="M808,565.1c-0.5,0-0.9,0.1-1.3,0.2c2,0.6,3.5,2.4,3.5,4.6v18.6h2.7V570C812.9,567.3,810.7,565.1,808,565.1z"/>
	<path class="st2" d="M822.6,588.6h-9.7v-19.2c0-2.3,1.9-4.2,4.2-4.2h1.2c2.3,0,4.2,1.9,4.2,4.2V588.6z"/>
	<path class="st3" d="M817.7,565.1c-0.5,0-0.9,0.1-1.3,0.2c2,0.6,3.5,2.4,3.5,4.6v18.6h2.7V570C822.6,567.3,820.4,565.1,817.7,565.1
		z"/>
	<path class="st2" d="M843.4,588.6h-9.7v-19.2c0-2.3,1.9-4.2,4.2-4.2h1.2c2.3,0,4.2,1.9,4.2,4.2V588.6z"/>
	<path class="st3" d="M838.6,565.1c-0.5,0-0.9,0.1-1.3,0.2c2,0.6,3.5,2.4,3.5,4.6v18.6h2.7V570C843.4,567.3,841.3,565.1,838.6,565.1
		z"/>
	<path class="st2" d="M853.1,588.6h-9.7v-19.2c0-2.3,1.9-4.2,4.2-4.2h1.2c2.3,0,4.2,1.9,4.2,4.2V588.6z"/>
	<path class="st3" d="M848.3,565.1c-0.5,0-0.9,0.1-1.3,0.2c2,0.6,3.5,2.4,3.5,4.6v18.6h2.7V570C853.1,567.3,851,565.1,848.3,565.1z"
		/>
	<path class="st2" d="M862.9,588.6h-9.7v-19.2c0-2.3,1.9-4.2,4.2-4.2h1.2c2.3,0,4.2,1.9,4.2,4.2V588.6z"/>
	<path class="st3" d="M858,565.1c-0.5,0-0.9,0.1-1.3,0.2c2,0.6,3.5,2.4,3.5,4.6v18.6h2.7V570C862.9,567.3,860.7,565.1,858,565.1z"/>
	<path class="st2" d="M883.7,588.6H874v-19.2c0-2.3,1.9-4.2,4.2-4.2h1.2c2.3,0,4.2,1.9,4.2,4.2V588.6z"/>
	<path class="st3" d="M878.9,565.1c-0.5,0-0.9,0.1-1.3,0.2c2,0.6,3.5,2.4,3.5,4.6v18.6h2.7V570C883.7,567.3,881.5,565.1,878.9,565.1
		z"/>
	<path class="st2" d="M893.4,588.6h-9.7v-19.2c0-2.3,1.9-4.2,4.2-4.2h1.2c2.3,0,4.2,1.9,4.2,4.2V588.6z"/>
	<path class="st3" d="M888.6,565.1c-0.5,0-0.9,0.1-1.3,0.2c2,0.6,3.5,2.4,3.5,4.6v18.6h2.7V570C893.4,567.3,891.3,565.1,888.6,565.1
		z"/>
	<path class="st2" d="M903.1,588.6h-9.7v-19.2c0-2.3,1.9-4.2,4.2-4.2h1.2c2.3,0,4.2,1.9,4.2,4.2V588.6z"/>
	<path class="st3" d="M898.3,565.1c-0.5,0-0.9,0.1-1.3,0.2c2,0.6,3.5,2.4,3.5,4.6v18.6h2.7V570C903.1,567.3,901,565.1,898.3,565.1z"
		/>
	<path class="st2" d="M924,588.6h-9.7v-19.2c0-2.3,1.9-4.2,4.2-4.2h1.2c2.3,0,4.2,1.9,4.2,4.2V588.6z"/>
	<path class="st3" d="M919.1,565.1c-0.5,0-0.9,0.1-1.3,0.2c2,0.6,3.5,2.4,3.5,4.6v18.6h2.7V570C924,567.3,921.8,565.1,919.1,565.1z"
		/>
	<path class="st2" d="M933.7,588.6H924v-19.2c0-2.3,1.9-4.2,4.2-4.2h1.2c2.3,0,4.2,1.9,4.2,4.2V588.6z"/>
	<path class="st3" d="M928.9,565.1c-0.5,0-0.9,0.1-1.3,0.2c2,0.6,3.5,2.4,3.5,4.6v18.6h2.7V570C933.7,567.3,931.5,565.1,928.9,565.1
		z"/>
	<path class="st2" d="M943.4,588.6h-9.7v-19.2c0-2.3,1.9-4.2,4.2-4.2h1.2c2.3,0,4.2,1.9,4.2,4.2V588.6z"/>
	<path class="st3" d="M938.6,565.1c-0.5,0-0.9,0.1-1.3,0.2c2,0.6,3.5,2.4,3.5,4.6v18.6h2.7V570C943.4,567.3,941.3,565.1,938.6,565.1
		z"/>
	<path class="st2" d="M803.1,621.2h-9.7V602c0-2.3,1.9-4.2,4.2-4.2h1.2c2.3,0,4.2,1.9,4.2,4.2V621.2z"/>
	<path class="st3" d="M798.3,597.8c-0.5,0-0.9,0.1-1.3,0.2c2,0.6,3.5,2.4,3.5,4.6v18.6h2.7v-18.6C803.1,600,801,597.8,798.3,597.8z"
		/>
	<path class="st2" d="M812.9,621.2h-9.7V602c0-2.3,1.9-4.2,4.2-4.2h1.2c2.3,0,4.2,1.9,4.2,4.2V621.2z"/>
	<path class="st3" d="M808,597.8c-0.5,0-0.9,0.1-1.3,0.2c2,0.6,3.5,2.4,3.5,4.6v18.6h2.7v-18.6C812.9,600,810.7,597.8,808,597.8z"/>
	<path class="st2" d="M822.6,621.2h-9.7V602c0-2.3,1.9-4.2,4.2-4.2h1.2c2.3,0,4.2,1.9,4.2,4.2V621.2z"/>
	<path class="st3" d="M817.7,597.8c-0.5,0-0.9,0.1-1.3,0.2c2,0.6,3.5,2.4,3.5,4.6v18.6h2.7v-18.6C822.6,600,820.4,597.8,817.7,597.8
		z"/>
	<path class="st2" d="M843.4,621.2h-9.7V602c0-2.3,1.9-4.2,4.2-4.2h1.2c2.3,0,4.2,1.9,4.2,4.2V621.2z"/>
	<path class="st3" d="M838.6,597.8c-0.5,0-0.9,0.1-1.3,0.2c2,0.6,3.5,2.4,3.5,4.6v18.6h2.7v-18.6C843.4,600,841.3,597.8,838.6,597.8
		z"/>
	<path class="st2" d="M853.1,621.2h-9.7V602c0-2.3,1.9-4.2,4.2-4.2h1.2c2.3,0,4.2,1.9,4.2,4.2V621.2z"/>
	<path class="st3" d="M848.3,597.8c-0.5,0-0.9,0.1-1.3,0.2c2,0.6,3.5,2.4,3.5,4.6v18.6h2.7v-18.6C853.1,600,851,597.8,848.3,597.8z"
		/>
	<path class="st2" d="M862.9,621.2h-9.7V602c0-2.3,1.9-4.2,4.2-4.2h1.2c2.3,0,4.2,1.9,4.2,4.2V621.2z"/>
	<path class="st3" d="M858,597.8c-0.5,0-0.9,0.1-1.3,0.2c2,0.6,3.5,2.4,3.5,4.6v18.6h2.7v-18.6C862.9,600,860.7,597.8,858,597.8z"/>
	<path class="st2" d="M883.7,621.2H874V602c0-2.3,1.9-4.2,4.2-4.2h1.2c2.3,0,4.2,1.9,4.2,4.2V621.2z"/>
	<path class="st3" d="M878.9,597.8c-0.5,0-0.9,0.1-1.3,0.2c2,0.6,3.5,2.4,3.5,4.6v18.6h2.7v-18.6C883.7,600,881.5,597.8,878.9,597.8
		z"/>
	<path class="st2" d="M893.4,621.2h-9.7V602c0-2.3,1.9-4.2,4.2-4.2h1.2c2.3,0,4.2,1.9,4.2,4.2V621.2z"/>
	<path class="st3" d="M888.6,597.8c-0.5,0-0.9,0.1-1.3,0.2c2,0.6,3.5,2.4,3.5,4.6v18.6h2.7v-18.6C893.4,600,891.3,597.8,888.6,597.8
		z"/>
	<path class="st2" d="M903.1,621.2h-9.7V602c0-2.3,1.9-4.2,4.2-4.2h1.2c2.3,0,4.2,1.9,4.2,4.2V621.2z"/>
	<path class="st3" d="M898.3,597.8c-0.5,0-0.9,0.1-1.3,0.2c2,0.6,3.5,2.4,3.5,4.6v18.6h2.7v-18.6C903.1,600,901,597.8,898.3,597.8z"
		/>
	<path class="st2" d="M924,621.2h-9.7V602c0-2.3,1.9-4.2,4.2-4.2h1.2c2.3,0,4.2,1.9,4.2,4.2V621.2z"/>
	<path class="st3" d="M919.1,597.8c-0.5,0-0.9,0.1-1.3,0.2c2,0.6,3.5,2.4,3.5,4.6v18.6h2.7v-18.6C924,600,921.8,597.8,919.1,597.8z"
		/>
	<path class="st2" d="M933.7,621.2H924V602c0-2.3,1.9-4.2,4.2-4.2h1.2c2.3,0,4.2,1.9,4.2,4.2V621.2z"/>
	<path class="st3" d="M928.9,597.8c-0.5,0-0.9,0.1-1.3,0.2c2,0.6,3.5,2.4,3.5,4.6v18.6h2.7v-18.6C933.7,600,931.5,597.8,928.9,597.8
		z"/>
	<path class="st2" d="M943.4,621.2h-9.7V602c0-2.3,1.9-4.2,4.2-4.2h1.2c2.3,0,4.2,1.9,4.2,4.2V621.2z"/>
	<path class="st3" d="M938.6,597.8c-0.5,0-0.9,0.1-1.3,0.2c2,0.6,3.5,2.4,3.5,4.6v18.6h2.7v-18.6C943.4,600,941.3,597.8,938.6,597.8
		z"/>
	<path class="st2" d="M803.1,653.9h-9.7v-19.2c0-2.3,1.9-4.2,4.2-4.2h1.2c2.3,0,4.2,1.9,4.2,4.2V653.9z"/>
	<path class="st3" d="M798.3,630.5c-0.5,0-0.9,0.1-1.3,0.2c2,0.6,3.5,2.4,3.5,4.6v18.6h2.7v-18.6C803.1,632.6,801,630.5,798.3,630.5
		z"/>
	<path class="st2" d="M812.9,653.9h-9.7v-19.2c0-2.3,1.9-4.2,4.2-4.2h1.2c2.3,0,4.2,1.9,4.2,4.2V653.9z"/>
	<path class="st3" d="M808,630.5c-0.5,0-0.9,0.1-1.3,0.2c2,0.6,3.5,2.4,3.5,4.6v18.6h2.7v-18.6C812.9,632.6,810.7,630.5,808,630.5z"
		/>
	<path class="st2" d="M822.6,653.9h-9.7v-19.2c0-2.3,1.9-4.2,4.2-4.2h1.2c2.3,0,4.2,1.9,4.2,4.2V653.9z"/>
	<path class="st3" d="M817.7,630.5c-0.5,0-0.9,0.1-1.3,0.2c2,0.6,3.5,2.4,3.5,4.6v18.6h2.7v-18.6
		C822.6,632.6,820.4,630.5,817.7,630.5z"/>
	<path class="st2" d="M843.4,653.9h-9.7v-19.2c0-2.3,1.9-4.2,4.2-4.2h1.2c2.3,0,4.2,1.9,4.2,4.2V653.9z"/>
	<path class="st3" d="M838.6,630.5c-0.5,0-0.9,0.1-1.3,0.2c2,0.6,3.5,2.4,3.5,4.6v18.6h2.7v-18.6
		C843.4,632.6,841.3,630.5,838.6,630.5z"/>
	<path class="st2" d="M853.1,653.9h-9.7v-19.2c0-2.3,1.9-4.2,4.2-4.2h1.2c2.3,0,4.2,1.9,4.2,4.2V653.9z"/>
	<path class="st3" d="M848.3,630.5c-0.5,0-0.9,0.1-1.3,0.2c2,0.6,3.5,2.4,3.5,4.6v18.6h2.7v-18.6C853.1,632.6,851,630.5,848.3,630.5
		z"/>
	<path class="st2" d="M862.9,653.9h-9.7v-19.2c0-2.3,1.9-4.2,4.2-4.2h1.2c2.3,0,4.2,1.9,4.2,4.2V653.9z"/>
	<path class="st3" d="M858,630.5c-0.5,0-0.9,0.1-1.3,0.2c2,0.6,3.5,2.4,3.5,4.6v18.6h2.7v-18.6C862.9,632.6,860.7,630.5,858,630.5z"
		/>
	<path class="st2" d="M883.7,653.9H874v-19.2c0-2.3,1.9-4.2,4.2-4.2h1.2c2.3,0,4.2,1.9,4.2,4.2V653.9z"/>
	<path class="st3" d="M878.9,630.5c-0.5,0-0.9,0.1-1.3,0.2c2,0.6,3.5,2.4,3.5,4.6v18.6h2.7v-18.6
		C883.7,632.6,881.5,630.5,878.9,630.5z"/>
	<path class="st2" d="M893.4,653.9h-9.7v-19.2c0-2.3,1.9-4.2,4.2-4.2h1.2c2.3,0,4.2,1.9,4.2,4.2V653.9z"/>
	<path class="st3" d="M888.6,630.5c-0.5,0-0.9,0.1-1.3,0.2c2,0.6,3.5,2.4,3.5,4.6v18.6h2.7v-18.6
		C893.4,632.6,891.3,630.5,888.6,630.5z"/>
	<path class="st2" d="M903.1,653.9h-9.7v-19.2c0-2.3,1.9-4.2,4.2-4.2h1.2c2.3,0,4.2,1.9,4.2,4.2V653.9z"/>
	<path class="st3" d="M898.3,630.5c-0.5,0-0.9,0.1-1.3,0.2c2,0.6,3.5,2.4,3.5,4.6v18.6h2.7v-18.6C903.1,632.6,901,630.5,898.3,630.5
		z"/>
	<path class="st2" d="M924,653.9h-9.7v-19.2c0-2.3,1.9-4.2,4.2-4.2h1.2c2.3,0,4.2,1.9,4.2,4.2V653.9z"/>
	<path class="st3" d="M919.1,630.5c-0.5,0-0.9,0.1-1.3,0.2c2,0.6,3.5,2.4,3.5,4.6v18.6h2.7v-18.6C924,632.6,921.8,630.5,919.1,630.5
		z"/>
	<path class="st2" d="M933.7,653.9H924v-19.2c0-2.3,1.9-4.2,4.2-4.2h1.2c2.3,0,4.2,1.9,4.2,4.2V653.9z"/>
	<path class="st3" d="M928.9,630.5c-0.5,0-0.9,0.1-1.3,0.2c2,0.6,3.5,2.4,3.5,4.6v18.6h2.7v-18.6
		C933.7,632.6,931.5,630.5,928.9,630.5z"/>
	<path class="st2" d="M943.4,653.9h-9.7v-19.2c0-2.3,1.9-4.2,4.2-4.2h1.2c2.3,0,4.2,1.9,4.2,4.2V653.9z"/>
	<path class="st3" d="M938.6,630.5c-0.5,0-0.9,0.1-1.3,0.2c2,0.6,3.5,2.4,3.5,4.6v18.6h2.7v-18.6
		C943.4,632.6,941.3,630.5,938.6,630.5z"/>
	<path class="st2" d="M803.1,686.6h-9.7v-19.2c0-2.3,1.9-4.2,4.2-4.2h1.2c2.3,0,4.2,1.9,4.2,4.2V686.6z"/>
	<path class="st3" d="M798.3,663.1c-0.5,0-0.9,0.1-1.3,0.2c2,0.6,3.5,2.4,3.5,4.6v18.6h2.7V668C803.1,665.3,801,663.1,798.3,663.1z"
		/>
	<path class="st2" d="M812.9,686.6h-9.7v-19.2c0-2.3,1.9-4.2,4.2-4.2h1.2c2.3,0,4.2,1.9,4.2,4.2V686.6z"/>
	<path class="st3" d="M808,663.1c-0.5,0-0.9,0.1-1.3,0.2c2,0.6,3.5,2.4,3.5,4.6v18.6h2.7V668C812.9,665.3,810.7,663.1,808,663.1z"/>
	<path class="st2" d="M822.6,686.6h-9.7v-19.2c0-2.3,1.9-4.2,4.2-4.2h1.2c2.3,0,4.2,1.9,4.2,4.2V686.6z"/>
	<path class="st3" d="M817.7,663.1c-0.5,0-0.9,0.1-1.3,0.2c2,0.6,3.5,2.4,3.5,4.6v18.6h2.7V668C822.6,665.3,820.4,663.1,817.7,663.1
		z"/>
	<path class="st2" d="M843.4,686.6h-9.7v-19.2c0-2.3,1.9-4.2,4.2-4.2h1.2c2.3,0,4.2,1.9,4.2,4.2V686.6z"/>
	<path class="st3" d="M838.6,663.1c-0.5,0-0.9,0.1-1.3,0.2c2,0.6,3.5,2.4,3.5,4.6v18.6h2.7V668C843.4,665.3,841.3,663.1,838.6,663.1
		z"/>
	<path class="st2" d="M853.1,686.6h-9.7v-19.2c0-2.3,1.9-4.2,4.2-4.2h1.2c2.3,0,4.2,1.9,4.2,4.2V686.6z"/>
	<path class="st3" d="M848.3,663.1c-0.5,0-0.9,0.1-1.3,0.2c2,0.6,3.5,2.4,3.5,4.6v18.6h2.7V668C853.1,665.3,851,663.1,848.3,663.1z"
		/>
	<path class="st2" d="M862.9,686.6h-9.7v-19.2c0-2.3,1.9-4.2,4.2-4.2h1.2c2.3,0,4.2,1.9,4.2,4.2V686.6z"/>
	<path class="st3" d="M858,663.1c-0.5,0-0.9,0.1-1.3,0.2c2,0.6,3.5,2.4,3.5,4.6v18.6h2.7V668C862.9,665.3,860.7,663.1,858,663.1z"/>
	<path class="st2" d="M883.7,686.6H874v-19.2c0-2.3,1.9-4.2,4.2-4.2h1.2c2.3,0,4.2,1.9,4.2,4.2V686.6z"/>
	<path class="st3" d="M878.9,663.1c-0.5,0-0.9,0.1-1.3,0.2c2,0.6,3.5,2.4,3.5,4.6v18.6h2.7V668C883.7,665.3,881.5,663.1,878.9,663.1
		z"/>
	<path class="st2" d="M893.4,686.6h-9.7v-19.2c0-2.3,1.9-4.2,4.2-4.2h1.2c2.3,0,4.2,1.9,4.2,4.2V686.6z"/>
	<path class="st3" d="M888.6,663.1c-0.5,0-0.9,0.1-1.3,0.2c2,0.6,3.5,2.4,3.5,4.6v18.6h2.7V668C893.4,665.3,891.3,663.1,888.6,663.1
		z"/>
	<path class="st2" d="M903.1,686.6h-9.7v-19.2c0-2.3,1.9-4.2,4.2-4.2h1.2c2.3,0,4.2,1.9,4.2,4.2V686.6z"/>
	<path class="st3" d="M898.3,663.1c-0.5,0-0.9,0.1-1.3,0.2c2,0.6,3.5,2.4,3.5,4.6v18.6h2.7V668C903.1,665.3,901,663.1,898.3,663.1z"
		/>
	<path class="st2" d="M924,686.6h-9.7v-19.2c0-2.3,1.9-4.2,4.2-4.2h1.2c2.3,0,4.2,1.9,4.2,4.2V686.6z"/>
	<path class="st3" d="M919.1,663.1c-0.5,0-0.9,0.1-1.3,0.2c2,0.6,3.5,2.4,3.5,4.6v18.6h2.7V668C924,665.3,921.8,663.1,919.1,663.1z"
		/>
	<path class="st2" d="M933.7,686.6H924v-19.2c0-2.3,1.9-4.2,4.2-4.2h1.2c2.3,0,4.2,1.9,4.2,4.2V686.6z"/>
	<path class="st3" d="M928.9,663.1c-0.5,0-0.9,0.1-1.3,0.2c2,0.6,3.5,2.4,3.5,4.6v18.6h2.7V668C933.7,665.3,931.5,663.1,928.9,663.1
		z"/>
	<path class="st2" d="M943.4,686.6h-9.7v-19.2c0-2.3,1.9-4.2,4.2-4.2h1.2c2.3,0,4.2,1.9,4.2,4.2V686.6z"/>
	<path class="st3" d="M938.6,663.1c-0.5,0-0.9,0.1-1.3,0.2c2,0.6,3.5,2.4,3.5,4.6v18.6h2.7V668C943.4,665.3,941.3,663.1,938.6,663.1
		z"/>
	<path class="st2" d="M803.1,719.2h-9.7V700c0-2.3,1.9-4.2,4.2-4.2h1.2c2.3,0,4.2,1.9,4.2,4.2V719.2z"/>
	<path class="st3" d="M798.3,695.8c-0.5,0-0.9,0.1-1.3,0.2c2,0.6,3.5,2.4,3.5,4.6v18.6h2.7v-18.6C803.1,698,801,695.8,798.3,695.8z"
		/>
	<path class="st2" d="M812.9,719.2h-9.7V700c0-2.3,1.9-4.2,4.2-4.2h1.2c2.3,0,4.2,1.9,4.2,4.2V719.2z"/>
	<path class="st3" d="M808,695.8c-0.5,0-0.9,0.1-1.3,0.2c2,0.6,3.5,2.4,3.5,4.6v18.6h2.7v-18.6C812.9,698,810.7,695.8,808,695.8z"/>
	<path class="st2" d="M822.6,719.2h-9.7V700c0-2.3,1.9-4.2,4.2-4.2h1.2c2.3,0,4.2,1.9,4.2,4.2V719.2z"/>
	<path class="st3" d="M817.7,695.8c-0.5,0-0.9,0.1-1.3,0.2c2,0.6,3.5,2.4,3.5,4.6v18.6h2.7v-18.6C822.6,698,820.4,695.8,817.7,695.8
		z"/>
	<path class="st2" d="M843.4,719.2h-9.7V700c0-2.3,1.9-4.2,4.2-4.2h1.2c2.3,0,4.2,1.9,4.2,4.2V719.2z"/>
	<path class="st3" d="M838.6,695.8c-0.5,0-0.9,0.1-1.3,0.2c2,0.6,3.5,2.4,3.5,4.6v18.6h2.7v-18.6C843.4,698,841.3,695.8,838.6,695.8
		z"/>
	<path class="st2" d="M853.1,719.2h-9.7V700c0-2.3,1.9-4.2,4.2-4.2h1.2c2.3,0,4.2,1.9,4.2,4.2V719.2z"/>
	<path class="st3" d="M848.3,695.8c-0.5,0-0.9,0.1-1.3,0.2c2,0.6,3.5,2.4,3.5,4.6v18.6h2.7v-18.6C853.1,698,851,695.8,848.3,695.8z"
		/>
	<path class="st2" d="M862.9,719.2h-9.7V700c0-2.3,1.9-4.2,4.2-4.2h1.2c2.3,0,4.2,1.9,4.2,4.2V719.2z"/>
	<path class="st3" d="M858,695.8c-0.5,0-0.9,0.1-1.3,0.2c2,0.6,3.5,2.4,3.5,4.6v18.6h2.7v-18.6C862.9,698,860.7,695.8,858,695.8z"/>
	<path class="st2" d="M883.7,719.2H874V700c0-2.3,1.9-4.2,4.2-4.2h1.2c2.3,0,4.2,1.9,4.2,4.2V719.2z"/>
	<path class="st3" d="M878.9,695.8c-0.5,0-0.9,0.1-1.3,0.2c2,0.6,3.5,2.4,3.5,4.6v18.6h2.7v-18.6C883.7,698,881.5,695.8,878.9,695.8
		z"/>
	<path class="st2" d="M893.4,719.2h-9.7V700c0-2.3,1.9-4.2,4.2-4.2h1.2c2.3,0,4.2,1.9,4.2,4.2V719.2z"/>
	<path class="st3" d="M888.6,695.8c-0.5,0-0.9,0.1-1.3,0.2c2,0.6,3.5,2.4,3.5,4.6v18.6h2.7v-18.6C893.4,698,891.3,695.8,888.6,695.8
		z"/>
	<path class="st2" d="M903.1,719.2h-9.7V700c0-2.3,1.9-4.2,4.2-4.2h1.2c2.3,0,4.2,1.9,4.2,4.2V719.2z"/>
	<path class="st3" d="M898.3,695.8c-0.5,0-0.9,0.1-1.3,0.2c2,0.6,3.5,2.4,3.5,4.6v18.6h2.7v-18.6C903.1,698,901,695.8,898.3,695.8z"
		/>
	<path class="st2" d="M924,719.2h-9.7V700c0-2.3,1.9-4.2,4.2-4.2h1.2c2.3,0,4.2,1.9,4.2,4.2V719.2z"/>
	<path class="st3" d="M919.1,695.8c-0.5,0-0.9,0.1-1.3,0.2c2,0.6,3.5,2.4,3.5,4.6v18.6h2.7v-18.6C924,698,921.8,695.8,919.1,695.8z"
		/>
	<path class="st2" d="M933.7,719.2H924V700c0-2.3,1.9-4.2,4.2-4.2h1.2c2.3,0,4.2,1.9,4.2,4.2V719.2z"/>
	<path class="st3" d="M928.9,695.8c-0.5,0-0.9,0.1-1.3,0.2c2,0.6,3.5,2.4,3.5,4.6v18.6h2.7v-18.6C933.7,698,931.5,695.8,928.9,695.8
		z"/>
	<path class="st2" d="M943.4,719.2h-9.7V700c0-2.3,1.9-4.2,4.2-4.2h1.2c2.3,0,4.2,1.9,4.2,4.2V719.2z"/>
	<path class="st3" d="M938.6,695.8c-0.5,0-0.9,0.1-1.3,0.2c2,0.6,3.5,2.4,3.5,4.6v18.6h2.7v-18.6C943.4,698,941.3,695.8,938.6,695.8
		z"/>
	<polygon class="st3" points="975.7,358.5 950,358.5 760.7,358.5 760.7,347.6 975.7,347.6 	"/>
	<rect x="760.7" y="723.6" class="st3" width="215" height="10.8"/>
	<polygon class="st3" points="744.7,301.1 760.7,285.1 760.7,374.5 744.7,358.5 	"/>
	<rect x="737.3" y="281.7" class="st2" width="7.3" height="96.1"/>
	<polygon class="st3" points="991.7,301.1 975.7,285.1 975.7,374.5 991.7,358.5 	"/>
	<rect x="991.7" y="281.7" class="st2" width="7.3" height="96.1"/>
</g>
<circle class="st2" cx="1039.9" cy="406.3" r="4.9"/>
<circle class="st2" cx="1131.7" cy="389.2" r="4.9"/>
<circle class="st2" cx="1223.6" cy="406.3" r="4.9"/>
<g>
	<circle class="st2" cx="1131.7" cy="471.8" r="4.9"/>
	<path class="st2" d="M1131.7,473.3c-0.8,0-1.5-0.7-1.5-1.5l-0.1-82.6c0-0.8,0.7-1.5,1.5-1.5h0c0.8,0,1.5,0.7,1.5,1.5l0.1,82.6
		C1133.2,472.7,1132.6,473.3,1131.7,473.3L1131.7,473.3z"/>
	<rect x="1057" y="483.6" class="st2" width="149.4" height="50.5"/>
	<rect x="890.4" y="616.2" class="st3" width="125.7" height="136.3"/>
	<rect x="890.4" y="616.2" class="st2" width="45.1" height="18.2"/>
	<rect x="890.4" y="634.4" class="st2" width="45.1" height="18.2"/>
	<rect x="890.4" y="652.6" class="st2" width="45.1" height="18.2"/>
	<rect x="890.4" y="670.8" class="st2" width="45.1" height="18.2"/>
	<rect x="890.4" y="689" class="st2" width="45.1" height="18.2"/>
	<path class="st4" d="M1008.7,752.4l-0.3-79.5l-3.8,0c0,0,4-32-29.1-41.3c-32.6,8.3-28.8,41.5-28.8,41.5l-3.8,0l0.3,79.5
		L1008.7,752.4z"/>
	<rect x="890.4" y="707.2" class="st2" width="45.1" height="45.2"/>
	<rect x="954.2" y="672.9" class="st2" width="43.2" height="79.5"/>
	<polygon class="st2" points="890.4,616.2 870.4,591.3 1016.1,591.3 1016.1,616.2 	"/>
	<rect x="890.8" y="583.6" class="st2" width="125.3" height="7.7"/>
	<rect x="890.8" y="556.6" class="st2" width="125.3" height="26.9"/>
	<polygon class="st2" points="883.5,544.5 890.8,556.6 1016.1,556.6 1016.1,534.1 895.1,534.1 895,544.4 	"/>
	<rect x="1247.4" y="616.2" class="st3" width="125.7" height="136.3"/>
	<rect x="1327.9" y="616.2" class="st2" width="45.1" height="18.2"/>
	<rect x="1327.9" y="634.4" class="st2" width="45.1" height="18.2"/>
	<rect x="1327.9" y="652.6" class="st2" width="45.1" height="18.2"/>
	<rect x="1327.9" y="670.8" class="st2" width="45.1" height="18.2"/>
	<rect x="1327.9" y="689" class="st2" width="45.1" height="18.2"/>
	<rect x="1327.9" y="707.2" class="st2" width="45.1" height="45.2"/>
	<path class="st4" d="M1254.7,752.4l0.3-79.5l3.8,0c0,0-4-32,29.1-41.3c32.6,8.3,28.8,41.5,28.8,41.5l3.8,0l-0.3,79.5L1254.7,752.4z
		"/>
	<polygon class="st2" points="1373.1,616.2 1393.1,591.3 1247.4,591.3 1247.4,616.2 	"/>
	<rect x="1247.4" y="583.6" class="st2" width="125.3" height="7.7"/>
	<rect x="1247.4" y="556.6" class="st2" width="125.3" height="26.9"/>
	<rect x="1266.1" y="672.9" class="st2" width="43.2" height="79.5"/>
	<polygon class="st2" points="1379.9,544.5 1372.7,556.6 1247.4,556.6 1247.4,534.1 1368.3,534.1 1368.5,544.4 	"/>
	<polygon class="st3" points="1016.1,591.3 1016.1,606.3 1016.1,752.6 1031.9,752.6 1031.9,606.3 1031.9,591.3 	"/>
	<polygon class="st2" points="1031.9,591.3 1031.9,606.3 1031.9,752.6 1047.8,752.6 1047.8,606.3 1047.8,591.3 	"/>
	<polygon class="st4" points="1047.8,591.3 1047.8,606.3 1047.8,752.6 1063.6,752.6 1063.6,606.3 1063.6,591.3 	"/>
	<rect x="1016.1" y="583.6" class="st3" width="47.6" height="7.7"/>
	<rect x="1031.9" y="534.1" class="st2" width="15.9" height="49.5"/>
	<rect x="1034.2" y="489" class="st2" width="11.4" height="45.1"/>
	<rect x="1022.7" y="489" class="st3" width="11.4" height="45.1"/>
	<rect x="1045.6" y="489" class="st4" width="11.4" height="45.1"/>
	<rect x="1035.1" y="438.5" class="st2" width="9.6" height="45.1"/>
	<rect x="1025.4" y="438.5" class="st3" width="9.6" height="45.1"/>
	<rect x="1044.7" y="438.5" class="st4" width="9.6" height="45.1"/>
	<rect x="1016.1" y="483.6" class="st2" width="47.6" height="5.4"/>
	<path class="st2" d="M1025.4,438.5c0,0,6.7-27.3,14.5-27.3s14.5,27.3,14.5,27.3H1025.4z"/>
	<rect x="1199.8" y="606.3" class="st3" width="15.9" height="146.3"/>
	<polygon class="st4" points="1231.5,591.3 1231.5,606.3 1231.5,752.6 1247.4,752.6 1247.4,606.3 1247.4,591.3 	"/>
	<polygon class="st2" points="1215.7,591.3 1215.7,606.3 1215.7,752.6 1231.5,752.6 1231.5,606.3 1231.5,591.3 	"/>
	<rect x="1199.8" y="591.3" class="st3" width="15.9" height="15"/>
	<rect x="1199.8" y="583.6" class="st3" width="47.6" height="7.7"/>
	<rect x="1231.5" y="534.1" class="st4" width="15.9" height="49.5"/>
	<rect x="1215.7" y="534.1" class="st2" width="15.9" height="49.5"/>
	<rect x="1217.9" y="489" class="st2" width="11.4" height="45.1"/>
	<rect x="1229.3" y="489" class="st4" width="11.4" height="45.1"/>
	<rect x="1206.4" y="489" class="st3" width="11.4" height="45.1"/>
	<rect x="1218.8" y="438.5" class="st2" width="9.6" height="45.1"/>
	<rect x="1228.4" y="438.5" class="st4" width="9.6" height="45.1"/>
	<rect x="1209.1" y="438.5" class="st3" width="9.6" height="45.1"/>
	<rect x="1199.8" y="534.1" class="st3" width="15.9" height="49.5"/>
	<rect x="1199.8" y="483.6" class="st2" width="47.6" height="5.4"/>
	<path class="st2" d="M1238.1,438.5c0,0-6.7-27.3-14.5-27.3s-14.5,27.3-14.5,27.3H1238.1z"/>
	<polygon class="st2" points="1131.7,471.8 1054.3,471.8 1054.3,483.6 1131.7,483.6 1209.1,483.6 1209.1,471.8 	"/>
	<polygon class="st2" points="1131.7,534.1 1063.6,534.1 1063.6,583.6 1131.7,583.6 1199.8,583.6 1199.8,534.1 	"/>
	<polygon class="st2" points="1131.7,583.6 1063.6,583.6 1063.6,752.5 1131.7,752.5 1199.8,752.5 1199.8,583.6 	"/>
	<rect x="1063.6" y="534.1" class="st4" width="136.2" height="11.3"/>
	<path class="st3" d="M990.3,752.5v-34.3h-3.7c0,0,3.7-21.3-10.8-25.2c-14.5,4.5-10.8,25.2-10.8,25.2h-3.7v34.3H990.3z"/>
	<rect x="991.3" y="591.3" class="st3" width="12.3" height="24.9"/>
	<rect x="966.2" y="591.3" class="st3" width="12.3" height="24.9"/>
	<rect x="941" y="591.3" class="st3" width="12.3" height="24.9"/>
	<rect x="915.9" y="591.3" class="st3" width="12.3" height="24.9"/>
	<rect x="890.8" y="591.3" class="st3" width="12.3" height="24.9"/>
	<path class="st3" d="M1273.2,752.5v-34.3h3.7c0,0-3.7-21.3,10.8-25.2c14.5,4.5,10.8,25.2,10.8,25.2h3.7v34.3H1273.2z"/>
	<rect x="1259.9" y="591.3" class="st3" width="12.3" height="24.9"/>
	<rect x="1285.1" y="591.3" class="st3" width="12.3" height="24.9"/>
	<rect x="1310.2" y="591.3" class="st3" width="12.3" height="24.9"/>
	<rect x="1335.3" y="591.3" class="st3" width="12.3" height="24.9"/>
	<rect x="1360.4" y="591.3" class="st3" width="12.3" height="24.9"/>
	<rect x="1071" y="545.4" class="st3" width="7.3" height="38.2"/>
	<rect x="1085.6" y="545.4" class="st3" width="7.3" height="38.2"/>
	<rect x="1100.2" y="545.4" class="st3" width="7.3" height="38.2"/>
	<rect x="1114.8" y="545.4" class="st3" width="7.3" height="38.2"/>
	<rect x="1128.1" y="545.4" class="st3" width="7.3" height="38.2"/>
	<path class="st3" d="M1132.7,752.5h58v-76.8h-7.6c0,0,7.6-47.6-50.4-69.3c-58,21.4-50.4,69.3-50.4,69.3h-7.6v76.8H1132.7"/>
	<rect x="1185.2" y="545.4" class="st3" width="7.3" height="38.2"/>
	<rect x="1170.6" y="545.4" class="st3" width="7.3" height="38.2"/>
	<rect x="1156" y="545.4" class="st3" width="7.3" height="38.2"/>
	<rect x="1141.3" y="545.4" class="st3" width="7.3" height="38.2"/>
	<path class="st3" d="M1135.9,477.8c0,0-0.2-5.4-4.2-5.4c-4,0-4.2,5.4-4.2,5.4l1.9,1.3l-1.9,1.2v3.5h4.2h4.2v-3.5l-1.9-1.2
		L1135.9,477.8z"/>
	<path class="st3" d="M1157.1,477.8c0,0-0.2-5.4-4.2-5.4c-4,0-4.2,5.4-4.2,5.4l1.9,1.3l-1.9,1.2v3.5h4.2h4.2v-3.5l-1.9-1.2
		L1157.1,477.8z"/>
	<path class="st3" d="M1114.7,477.8c0,0-0.2-5.4-4.2-5.4s-4.2,5.4-4.2,5.4l1.9,1.3l-1.9,1.2v3.5h4.2h4.2v-3.5l-1.9-1.2L1114.7,477.8
		z"/>
	<path class="st3" d="M1093.5,477.8c0,0-0.2-5.4-4.2-5.4s-4.2,5.4-4.2,5.4l1.9,1.3l-1.9,1.2v3.5h4.2h4.2v-3.5l-1.9-1.2L1093.5,477.8
		z"/>
	<path class="st3" d="M1072.3,477.8c0,0-0.2-5.4-4.2-5.4s-4.2,5.4-4.2,5.4l1.9,1.3l-1.9,1.2v3.5h4.2h4.2v-3.5l-1.9-1.2L1072.3,477.8
		z"/>
	<path class="st3" d="M1178.2,477.8c0,0-0.2-5.4-4.2-5.4c-4,0-4.2,5.4-4.2,5.4l1.9,1.3l-1.9,1.2v3.5h4.2h4.2v-3.5l-1.9-1.2
		L1178.2,477.8z"/>
	<path class="st3" d="M1199.4,477.8c0,0-0.2-5.4-4.2-5.4c-4,0-4.2,5.4-4.2,5.4l1.9,1.3l-1.9,1.2v3.5h4.2h4.2v-3.5l-1.9-1.2
		L1199.4,477.8z"/>
	<rect x="1068.1" y="488.7" class="st3" width="127.1" height="40.1"/>
	<rect x="935.5" y="561.4" class="st3" width="68" height="26.1"/>
	<rect x="1260.4" y="561.4" class="st3" width="68" height="26.1"/>
	<rect x="1063.6" y="583.6" class="st3" width="136.2" height="7.7"/>
	<rect x="890.4" y="633.6" class="st3" width="45.1" height="1.5"/>
	<rect x="890.4" y="651.8" class="st3" width="45.1" height="1.5"/>
	<rect x="890.4" y="670.1" class="st3" width="45.1" height="1.5"/>
	<rect x="890.4" y="688.3" class="st3" width="45.1" height="1.5"/>
	<rect x="890.4" y="706.5" class="st3" width="45.1" height="1.5"/>
	<rect x="1327.9" y="633.6" class="st3" width="45.1" height="1.5"/>
	<rect x="1327.9" y="651.8" class="st3" width="45.1" height="1.5"/>
	<rect x="1327.9" y="670.1" class="st3" width="45.1" height="1.5"/>
	<rect x="1327.9" y="688.3" class="st3" width="45.1" height="1.5"/>
	<rect x="1327.9" y="706.5" class="st3" width="45.1" height="1.5"/>
	<polygon class="st3" points="1047.8,591.3 1063.6,607.2 1063.6,591.3 	"/>
	<polygon class="st3" points="1045.7,489 1057,500.3 1057,489 	"/>
	<polygon class="st3" points="1227.6,489 1238.9,500.3 1238.9,489 	"/>
	<polygon class="st3" points="1228.5,438.5 1238.1,448 1238.1,438.5 	"/>
	<polygon class="st3" points="1044.7,438.5 1054.3,448 1054.3,438.5 	"/>
	<polygon class="st3" points="1231.5,591.3 1246.9,606.7 1246.9,591.3 	"/>
	<polygon class="st3" points="1063.6,534.1 1074.8,545.2 1063.6,545.2 	"/>
	<rect x="1016.1" y="534.1" class="st3" width="15.9" height="49.5"/>
	<rect x="1047.8" y="534.1" class="st4" width="15.9" height="49.5"/>
	<polygon class="st3" points="1247.4,556.6 1247.4,534.1 1270,556.7 	"/>
</g>
<polygon class="st3" points="950,369.1 960.3,358.9 950,358.9 "/>
<g>
	<polygon class="st5" points="416.6,533.8 416.4,533.8 354.7,533.8 354.7,753.9 416.4,753.9 416.6,753.9 478.3,753.9 478.3,533.8 	
		"/>
	<polygon class="st4" points="349.9,420.3 348.3,420.3 347.2,444 351,444 	"/>
	<polygon class="st4" points="417.4,316.3 415.7,316.3 414.7,340.1 418.4,340.1 	"/>
	<path class="st4" d="M373.3,687.7H372c-6.9,0-12.4,5.6-12.4,12.4v53.7h26.1v-53.7C385.7,693.3,380.1,687.7,373.3,687.7z"/>
	<rect x="65.4" y="682.8" class="st5" width="278" height="43.6"/>
	<rect x="142.4" y="592.4" class="st5" width="201" height="90.4"/>
	<rect x="44.5" y="533.8" class="st6" width="310.2" height="19"/>
	<rect x="65.4" y="553.1" class="st5" width="69.1" height="129.7"/>
	<rect x="23.5" y="555.2" class="st5" width="41.8" height="36"/>
	<rect x="23.5" y="719.7" class="st5" width="319.9" height="34.2"/>
	<g>
		<rect x="56.5" y="740.2" class="st7" width="11.1" height="13.7"/>
		<rect x="91.9" y="740.2" class="st7" width="11.1" height="13.7"/>
		<rect x="127.3" y="740.2" class="st7" width="11.1" height="13.7"/>
		<path class="st1" d="M95.9,753.9h-8V734c-1.5-1.2-4.5-3.3-8.1-3.6c-3.7,0.3-6.6,2.3-8.1,3.6v19.8h-8v-23.2l1.1-1.1
			c0.2-0.3,6.1-6.6,14.8-7.1l0.2,0l0.2,0c8.7,0.5,14.6,6.9,14.8,7.1l1.1,1.1V753.9z"/>
		<path class="st7" d="M79.8,726.4c-7.2,0.4-12.1,5.8-12.1,5.8v21.6h12.1h12.1v-21.6C91.9,732.3,87,726.9,79.8,726.4z"/>
		<path class="st3" d="M79.8,726.4c-7.2,0.4-12.1,5.8-12.1,5.8v2.8l12.1,3.3v15.4h12.1v-21.6C91.9,732.3,87,726.9,79.8,726.4z"/>
		<path class="st1" d="M60.5,753.9h-8V734c-1.5-1.2-4.5-3.3-8.1-3.6c-3.7,0.3-6.6,2.3-8.1,3.6v19.8h-8v-23.2l1.1-1.1
			c0.2-0.3,6.1-6.6,14.8-7.1l0.2,0l0.2,0c8.7,0.5,14.6,6.9,14.8,7.1l1.1,1.1V753.9z"/>
		<path class="st7" d="M44.4,726.4c-7.2,0.4-12.1,5.8-12.1,5.8v21.6h12.1h12.1v-21.6C56.5,732.3,51.6,726.9,44.4,726.4z"/>
		<path class="st3" d="M44.4,726.4c-7.2,0.4-12.1,5.8-12.1,5.8v2.8l12.1,3.3v15.4h12.1v-21.6C56.5,732.3,51.6,726.9,44.4,726.4z"/>
		<path class="st1" d="M131.3,753.9h-8V734c-1.5-1.2-4.5-3.3-8.1-3.6c-3.7,0.3-6.6,2.3-8.1,3.6v19.8h-8v-23.2l1.1-1.1
			c0.2-0.3,6.1-6.6,14.8-7.1l0.2,0l0.2,0c8.7,0.5,14.6,6.9,14.8,7.1l1.1,1.1V753.9z"/>
		<path class="st7" d="M115.2,726.4c-7.2,0.4-12.1,5.8-12.1,5.8v21.6h12.1h12.1v-21.6C127.3,732.3,122.4,726.9,115.2,726.4z"/>
		<path class="st3" d="M115.2,726.4c-7.2,0.4-12.1,5.8-12.1,5.8v2.8l12.1,3.3v15.4h12.1v-21.6C127.3,732.3,122.4,726.9,115.2,726.4z
			"/>
		<rect x="162.7" y="740.2" class="st7" width="11.1" height="13.7"/>
		<path class="st1" d="M166.7,753.9h-8V734c-1.5-1.2-4.5-3.3-8.1-3.6c-3.7,0.3-6.6,2.3-8.1,3.6v19.8h-8v-23.2l1.1-1.1
			c0.2-0.3,6.1-6.6,14.8-7.1l0.2,0l0.2,0c8.7,0.5,14.6,6.9,14.8,7.1l1.1,1.1V753.9z"/>
		<path class="st7" d="M150.6,726.4c-7.2,0.4-12.1,5.8-12.1,5.8v21.6h12.1h12.1v-21.6C162.7,732.3,157.8,726.9,150.6,726.4z"/>
		<path class="st3" d="M150.6,726.4c-7.2,0.4-12.1,5.8-12.1,5.8v2.8l12.1,3.3v15.4h12.1v-21.6C162.7,732.3,157.8,726.9,150.6,726.4z
			"/>
		<rect x="198.1" y="740.2" class="st7" width="11.1" height="13.7"/>
		<path class="st1" d="M202.1,753.9h-8V734c-1.5-1.2-4.5-3.3-8.1-3.6c-3.7,0.3-6.6,2.3-8.1,3.6v19.8h-8v-23.2l1.1-1.1
			c0.2-0.3,6.1-6.6,14.8-7.1l0.2,0l0.2,0c8.7,0.5,14.6,6.9,14.8,7.1l1.1,1.1V753.9z"/>
		<path class="st7" d="M186,726.4c-7.2,0.4-12.1,5.8-12.1,5.8v21.6H186h12.1v-21.6C198.1,732.3,193.2,726.9,186,726.4z"/>
		<path class="st3" d="M186,726.4c-7.2,0.4-12.1,5.8-12.1,5.8v2.8l12.1,3.3v15.4h12.1v-21.6C198.1,732.3,193.2,726.9,186,726.4z"/>
		<rect x="233.5" y="740.2" class="st7" width="11.1" height="13.7"/>
		<path class="st1" d="M237.5,753.9h-8V734c-1.5-1.2-4.5-3.3-8.1-3.6c-3.7,0.3-6.6,2.3-8.1,3.6v19.8h-8v-23.2l1.1-1.1
			c0.2-0.3,6.1-6.6,14.8-7.1l0.2,0l0.2,0c8.7,0.5,14.6,6.9,14.8,7.1l1.1,1.1V753.9z"/>
		<path class="st7" d="M221.3,726.4c-7.2,0.4-12.1,5.8-12.1,5.8v21.6h12.1h12.1v-21.6C233.5,732.3,228.5,726.9,221.3,726.4z"/>
		<path class="st3" d="M221.3,726.4c-7.2,0.4-12.1,5.8-12.1,5.8v2.8l12.1,3.3v15.4h12.1v-21.6C233.5,732.3,228.5,726.9,221.3,726.4z
			"/>
		<rect x="268.9" y="740.2" class="st7" width="11.1" height="13.7"/>
		<path class="st1" d="M272.9,753.9h-8V734c-1.5-1.2-4.5-3.3-8.1-3.6c-3.7,0.3-6.6,2.3-8.1,3.6v19.8h-8v-23.2l1.1-1.1
			c0.2-0.3,6.1-6.6,14.8-7.1l0.2,0l0.2,0c8.7,0.5,14.6,6.9,14.8,7.1l1.1,1.1V753.9z"/>
		<path class="st7" d="M256.7,726.4c-7.2,0.4-12.1,5.8-12.1,5.8v21.6h12.1h12.1v-21.6C268.9,732.3,263.9,726.9,256.7,726.4z"/>
		<path class="st3" d="M256.7,726.4c-7.2,0.4-12.1,5.8-12.1,5.8v2.8l12.1,3.3v15.4h12.1v-21.6C268.9,732.3,263.9,726.9,256.7,726.4z
			"/>
		<rect x="304.3" y="740.2" class="st7" width="11.1" height="13.7"/>
		<path class="st1" d="M308.3,753.9h-8V734c-1.5-1.2-4.5-3.3-8.1-3.6c-3.7,0.3-6.6,2.3-8.1,3.6v19.8h-8v-23.2l1.1-1.1
			c0.2-0.3,6.1-6.6,14.8-7.1l0.2,0l0.2,0c8.7,0.5,14.6,6.9,14.8,7.1l1.1,1.1V753.9z"/>
		<path class="st7" d="M292.1,726.4c-7.2,0.4-12.1,5.8-12.1,5.8v21.6h12.1h12.1v-21.6C304.3,732.3,299.3,726.9,292.1,726.4z"/>
		<path class="st3" d="M292.1,726.4c-7.2,0.4-12.1,5.8-12.1,5.8v2.8l12.1,3.3v15.4h12.1v-21.6C304.3,732.3,299.3,726.9,292.1,726.4z
			"/>
		<path class="st1" d="M343.7,753.9h-8V734c-1.5-1.2-4.5-3.3-8.1-3.6c-3.7,0.3-6.6,2.3-8.1,3.6v19.8h-8v-23.2l1.1-1.1
			c0.2-0.3,6.1-6.6,14.8-7.1l0.2,0l0.2,0c8.7,0.5,14.6,6.9,14.8,7.1l1.1,1.1V753.9z"/>
		<path class="st7" d="M327.5,726.4c-7.2,0.4-12.1,5.8-12.1,5.8v21.6h12.1h12.1v-21.6C339.7,732.3,334.7,726.9,327.5,726.4z"/>
		<path class="st3" d="M327.5,726.4c-7.2,0.4-12.1,5.8-12.1,5.8v2.8l12.1,3.3v15.4h12.1v-21.6C339.7,732.3,334.7,726.9,327.5,726.4z
			"/>
	</g>
	<polygon class="st5" points="73.9,651.3 15,651.3 23.5,658 65.4,658 	"/>
	<path class="st7" d="M65.9,651.8H23v-8.3h42.8V651.8z M24,650.8h40.8v-6.3H24V650.8z"/>
	<rect x="23.5" y="540.2" class="st4" width="41.8" height="15.1"/>
	<path class="st6" d="M52.7,509.1l-7,0v0l-1.2,0l-1.2,0v0l-7,0c-18.7,11.2-10.3,31-10.3,31h17.3h2.5H63
		C63,540.2,71.4,520.4,52.7,509.1z"/>
	<path class="st8" d="M48.3,509.1l2.2,0l-4.8,0v0l-1.2,0l-1.2,0v0l-7,0c-18.7,11.2-10.3,31-10.3,31H38
		C38,540.2,29.6,520.4,48.3,509.1z"/>
	<rect x="30.4" y="504.9" class="st2" width="28.1" height="4.3"/>
	<polygon class="st2" points="46.3,494.1 46.3,465 44.2,461.7 42.2,465 42.2,494.1 36.6,504.9 44.2,504.9 51.9,504.9 	"/>
	<rect x="23.5" y="682.8" class="st5" width="41.8" height="36.9"/>
	<path class="st2" d="M36,690.7h-0.5c-2.7,0-4.9,2.2-4.9,4.9v24.1h10.2v-24.1C40.9,692.9,38.7,690.7,36,690.7z"/>
	<path class="st2" d="M53.3,690.7h-0.5c-2.7,0-4.9,2.2-4.9,4.9v24.1h10.2v-24.1C58.1,692.9,55.9,690.7,53.3,690.7z"/>
	<path class="st2" d="M36,562.3h-0.5c-2.7,0-4.9,2.2-4.9,4.9v24.1h10.2v-24.1C40.9,564.5,38.7,562.3,36,562.3z"/>
	<path class="st2" d="M53.3,562.3h-0.5c-2.7,0-4.9,2.2-4.9,4.9v24.1h10.2v-24.1C58.1,564.5,55.9,562.3,53.3,562.3z"/>
	<path class="st7" d="M65.9,555.7H23v-16.1h42.8V555.7z M24,554.7h40.8v-14.1H24V554.7z"/>
	<rect x="23.5" y="591.2" class="st5" width="41.8" height="10.8"/>
	<rect x="23.5" y="602" class="st5" width="13.9" height="49.3"/>
	<rect x="37.5" y="602" class="st2" width="13.9" height="49.3"/>
	<rect x="51.4" y="602" class="st4" width="13.9" height="49.3"/>
	<rect x="23.5" y="658" class="st5" width="13.9" height="24.7"/>
	<rect x="37.5" y="658" class="st2" width="13.9" height="24.7"/>
	<rect x="51.4" y="658" class="st4" width="13.9" height="24.7"/>
	<path class="st4" d="M152.6,690.7h-0.5c-2.7,0-4.9,2.2-4.9,4.9v24.1h10.2v-24.1C157.4,692.9,155.2,690.7,152.6,690.7z"/>
	<rect x="51.2" y="700.1" class="st3" width="3.6" height="10.2"/>
	<rect x="34" y="700.1" class="st3" width="3.6" height="10.2"/>
	<path class="st4" d="M122.6,690.7h-0.9c-5.2,0-9.4,4.2-9.4,9.4v19.5H132v-19.5C132,694.9,127.8,690.7,122.6,690.7z"/>
	<rect x="115.5" y="703.2" class="st3" width="3.4" height="9.6"/>
	<rect x="120.9" y="703.2" class="st3" width="3.4" height="9.6"/>
	<rect x="126.2" y="703.2" class="st3" width="3.4" height="9.6"/>
	<path class="st4" d="M167.9,690.7h-0.5c-2.7,0-4.9,2.2-4.9,4.9v24.1h10.2v-24.1C172.7,692.9,170.5,690.7,167.9,690.7z"/>
	<path class="st4" d="M183.2,690.7h-0.5c-2.7,0-4.9,2.2-4.9,4.9v24.1H188v-24.1C188,692.9,185.8,690.7,183.2,690.7z"/>
	<path class="st4" d="M198.5,690.7H198c-2.7,0-4.9,2.2-4.9,4.9v24.1h10.2v-24.1C203.3,692.9,201.1,690.7,198.5,690.7z"/>
	<path class="st4" d="M213.7,690.7h-0.5c-2.7,0-4.9,2.2-4.9,4.9v24.1h10.2v-24.1C218.6,692.9,216.4,690.7,213.7,690.7z"/>
	<path class="st4" d="M229,690.7h-0.5c-2.7,0-4.9,2.2-4.9,4.9v24.1h10.2v-24.1C233.9,692.9,231.7,690.7,229,690.7z"/>
	<path class="st7" d="M243.3,720.2H137.9v-37.9h105.4V720.2z M138.9,719.2h103.4v-35.9H138.9V719.2z"/>
	<path class="st4" d="M256.9,690.7h-0.5c-2.7,0-4.9,2.2-4.9,4.9v24.1h10.2v-24.1C261.8,692.9,259.6,690.7,256.9,690.7z"/>
	<path class="st4" d="M272.2,690.7h-0.5c-2.7,0-4.9,2.2-4.9,4.9v24.1h10.2v-24.1C277.1,692.9,274.9,690.7,272.2,690.7z"/>
	<path class="st4" d="M287.5,690.7H287c-2.7,0-4.9,2.2-4.9,4.9v24.1h10.2v-24.1C292.4,692.9,290.2,690.7,287.5,690.7z"/>
	<path class="st4" d="M302.8,690.7h-0.5c-2.7,0-4.9,2.2-4.9,4.9v24.1h10.2v-24.1C307.7,692.9,305.5,690.7,302.8,690.7z"/>
	<path class="st4" d="M318.1,690.7h-0.5c-2.7,0-4.9,2.2-4.9,4.9v24.1H323v-24.1C323,692.9,320.8,690.7,318.1,690.7z"/>
	<rect x="361.1" y="700.1" class="st3" width="3.6" height="10.2"/>
	<rect x="367.6" y="700.1" class="st3" width="3.6" height="10.2"/>
	<rect x="374.1" y="700.1" class="st3" width="3.6" height="10.2"/>
	<rect x="380.6" y="700.1" class="st3" width="3.6" height="10.2"/>
	<path class="st4" d="M416.5,670.7L416.5,670.7c-10.9,0-19.8,8.9-19.8,19.8v63.4h39.6v-63.4C436.3,679.5,427.4,670.7,416.5,670.7z"
		/>
	<path class="st4" d="M416.5,630L416.5,630c-10.9,0-19.8,8.9-19.8,19.8v14.8h39.6v-14.8C436.3,638.8,427.4,630,416.5,630z"/>
	<path class="st4" d="M416.5,590.7L416.5,590.7c-10.9,0-19.8,8.9-19.8,19.8v14.8h39.6v-14.8C436.3,599.6,427.4,590.7,416.5,590.7z"
		/>
	<path class="st4" d="M416.5,551.5L416.5,551.5c-10.9,0-19.8,8.9-19.8,19.8v14.8h39.6v-14.8C436.3,560.3,427.4,551.5,416.5,551.5z"
		/>
	<rect x="399" y="689.4" class="st3" width="5.5" height="15.5"/>
	<rect x="408.8" y="689.4" class="st3" width="5.5" height="15.5"/>
	<rect x="418.7" y="689.4" class="st3" width="5.5" height="15.5"/>
	<rect x="428.5" y="689.4" class="st3" width="5.5" height="15.5"/>
	<path class="st4" d="M333.4,690.7h-0.5c-2.7,0-4.9,2.2-4.9,4.9v24.1h10.2v-24.1C338.3,692.9,336.1,690.7,333.4,690.7z"/>
	<path class="st7" d="M347.7,720.2H242.3v-37.9h105.4V720.2z M243.3,719.2h103.4v-35.9H243.3V719.2z"/>
	<path class="st7" d="M134.9,720.2H64.9v-37.9h70.1V720.2z M65.9,719.2h68.1v-35.9H65.9V719.2z"/>
	<path class="st3" d="M129.6,701.1c0-4.1-3.3-7.4-7.4-7.4c-4.1,0-7.4,3.3-7.4,7.4H129.6z"/>
	<path class="st4" d="M100.4,690.7h-0.9c-5.2,0-9.4,4.2-9.4,9.4v19.5h19.7v-19.5C109.8,694.9,105.6,690.7,100.4,690.7z"/>
	<rect x="93.3" y="703.2" class="st3" width="3.4" height="9.6"/>
	<rect x="98.6" y="703.2" class="st3" width="3.4" height="9.6"/>
	<rect x="104" y="703.2" class="st3" width="3.4" height="9.6"/>
	<path class="st3" d="M107.4,701.1c0-4.1-3.3-7.4-7.4-7.4s-7.4,3.3-7.4,7.4H107.4z"/>
	<path class="st4" d="M78.2,690.7h-0.9c-5.2,0-9.4,4.2-9.4,9.4v19.5h19.7v-19.5C87.6,694.9,83.3,690.7,78.2,690.7z"/>
	<rect x="71.1" y="703.2" class="st3" width="3.4" height="9.6"/>
	<rect x="76.4" y="703.2" class="st3" width="3.4" height="9.6"/>
	<rect x="81.7" y="703.2" class="st3" width="3.4" height="9.6"/>
	<path class="st3" d="M85.1,701.1c0-4.1-3.3-7.4-7.4-7.4s-7.4,3.3-7.4,7.4H85.1z"/>
	<g>
		<rect x="150.5" y="663.9" class="st2" width="4.6" height="18.9"/>
		<rect x="155.1" y="663.9" class="st4" width="16.2" height="18.9"/>
		<polygon class="st6" points="171.3,658 149.7,658 147.2,663.9 173.8,663.9 		"/>
		<rect x="150.5" y="639.2" class="st2" width="4.6" height="18.9"/>
		<rect x="155.1" y="639.2" class="st4" width="16.2" height="18.9"/>
		<polygon class="st6" points="171.3,633.3 149.7,633.3 147.2,639.2 173.8,639.2 		"/>
		<rect x="150.5" y="614.4" class="st2" width="4.6" height="18.9"/>
		<rect x="155.1" y="614.4" class="st4" width="16.2" height="18.9"/>
		<polygon class="st6" points="160.5,592.4 147.2,614.4 173.8,614.4 		"/>
	</g>
	<g>
		<rect x="180.6" y="663.9" class="st2" width="4.6" height="18.9"/>
		<rect x="185.2" y="663.9" class="st4" width="16.2" height="18.9"/>
		<polygon class="st6" points="201.4,658 179.8,658 177.3,663.9 203.9,663.9 		"/>
		<rect x="180.6" y="639.2" class="st2" width="4.6" height="18.9"/>
		<rect x="185.2" y="639.2" class="st4" width="16.2" height="18.9"/>
		<polygon class="st6" points="201.4,633.3 179.8,633.3 177.3,639.2 203.9,639.2 		"/>
		<rect x="180.6" y="614.4" class="st2" width="4.6" height="18.9"/>
		<rect x="185.2" y="614.4" class="st4" width="16.2" height="18.9"/>
		<polygon class="st6" points="190.6,592.4 177.3,614.4 203.9,614.4 		"/>
	</g>
	<g>
		<rect x="210.7" y="663.9" class="st2" width="4.6" height="18.9"/>
		<rect x="215.3" y="663.9" class="st4" width="16.2" height="18.9"/>
		<polygon class="st6" points="231.5,658 209.9,658 207.4,663.9 234,663.9 		"/>
		<rect x="210.7" y="639.2" class="st2" width="4.6" height="18.9"/>
		<rect x="215.3" y="639.2" class="st4" width="16.2" height="18.9"/>
		<polygon class="st6" points="231.5,633.3 209.9,633.3 207.4,639.2 234,639.2 		"/>
		<rect x="210.7" y="614.4" class="st2" width="4.6" height="18.9"/>
		<rect x="215.3" y="614.4" class="st4" width="16.2" height="18.9"/>
		<polygon class="st6" points="220.7,592.4 207.4,614.4 234,614.4 		"/>
	</g>
	<g>
		<rect x="254.9" y="663.9" class="st2" width="4.6" height="18.9"/>
		<rect x="259.5" y="663.9" class="st4" width="16.2" height="18.9"/>
		<polygon class="st6" points="275.7,658 254.1,658 251.6,663.9 278.2,663.9 		"/>
		<rect x="254.9" y="639.2" class="st2" width="4.6" height="18.9"/>
		<rect x="259.5" y="639.2" class="st4" width="16.2" height="18.9"/>
		<polygon class="st6" points="275.7,633.3 254.1,633.3 251.6,639.2 278.2,639.2 		"/>
		<rect x="254.9" y="614.4" class="st2" width="4.6" height="18.9"/>
		<rect x="259.5" y="614.4" class="st4" width="16.2" height="18.9"/>
		<polygon class="st6" points="264.9,592.4 251.6,614.4 278.2,614.4 		"/>
	</g>
	<g>
		<rect x="285" y="663.9" class="st2" width="4.6" height="18.9"/>
		<rect x="289.6" y="663.9" class="st4" width="16.2" height="18.9"/>
		<polygon class="st6" points="305.8,658 284.2,658 281.7,663.9 308.3,663.9 		"/>
		<rect x="285" y="639.2" class="st2" width="4.6" height="18.9"/>
		<rect x="289.6" y="639.2" class="st4" width="16.2" height="18.9"/>
		<polygon class="st6" points="305.8,633.3 284.2,633.3 281.7,639.2 308.3,639.2 		"/>
		<rect x="285" y="614.4" class="st2" width="4.6" height="18.9"/>
		<rect x="289.6" y="614.4" class="st4" width="16.2" height="18.9"/>
		<polygon class="st6" points="295,592.4 281.7,614.4 308.3,614.4 		"/>
	</g>
	<g>
		<rect x="315.1" y="663.9" class="st2" width="4.6" height="18.9"/>
		<rect x="319.7" y="663.9" class="st4" width="16.2" height="18.9"/>
		<polygon class="st6" points="335.9,658 314.3,658 311.8,663.9 338.4,663.9 		"/>
		<rect x="315.1" y="639.2" class="st2" width="4.6" height="18.9"/>
		<rect x="319.7" y="639.2" class="st4" width="16.2" height="18.9"/>
		<polygon class="st6" points="335.9,633.3 314.3,633.3 311.8,639.2 338.4,639.2 		"/>
		<rect x="315.1" y="614.4" class="st2" width="4.6" height="18.9"/>
		<rect x="319.7" y="614.4" class="st4" width="16.2" height="18.9"/>
		<polygon class="st6" points="325.1,592.4 311.8,614.4 338.4,614.4 		"/>
	</g>
	<rect x="138.4" y="569.4" class="st5" width="210.6" height="22.9"/>
	<path class="st4" d="M160.9,572.8h-0.7c-4,0-7.2,3.2-7.2,7.2v12.4h15.1V580C168.1,576,164.8,572.8,160.9,572.8z"/>
	<path class="st4" d="M193.5,572.8h-0.7c-4,0-7.2,3.2-7.2,7.2v12.4h15.1V580C200.6,576,197.4,572.8,193.5,572.8z"/>
	<path class="st4" d="M226.1,572.8h-0.7c-4,0-7.2,3.2-7.2,7.2v12.4h15.1V580C233.2,576,230,572.8,226.1,572.8z"/>
	<path class="st4" d="M262.7,572.8H262c-4,0-7.2,3.2-7.2,7.2v12.4h15.1V580C269.9,576,266.7,572.8,262.7,572.8z"/>
	<path class="st4" d="M295.3,572.8h-0.7c-4,0-7.2,3.2-7.2,7.2v12.4h15.1V580C302.5,576,299.3,572.8,295.3,572.8z"/>
	<path class="st4" d="M327.9,572.8h-0.7c-4,0-7.2,3.2-7.2,7.2v12.4h15.1V580C335.1,576,331.9,572.8,327.9,572.8z"/>
	<path class="st4" d="M373.7,577.6H373c-4,0-7.2,3.2-7.2,7.2v12.4h15.1v-12.4C380.9,580.8,377.6,577.6,373.7,577.6z"/>
	<path class="st4" d="M373.7,603.8H373c-4,0-7.2,3.2-7.2,7.2v12.4h15.1V611C380.9,607,377.6,603.8,373.7,603.8z"/>
	<path class="st4" d="M373.7,630H373c-4,0-7.2,3.2-7.2,7.2v12.4h15.1v-12.4C380.9,633.2,377.6,630,373.7,630z"/>
	<path class="st4" d="M373.7,656.2H373c-4,0-7.2,3.2-7.2,7.2v12.4h15.1v-12.4C380.9,659.4,377.6,656.2,373.7,656.2z"/>
	<rect x="343.4" y="569.4" class="st3" width="11.2" height="184.5"/>
	<rect x="239.8" y="569.4" class="st3" width="7.9" height="150.3"/>
	<rect x="134.4" y="569.4" class="st3" width="7.9" height="150.3"/>
	<rect x="134.4" y="553.1" class="st4" width="220.2" height="16.3"/>
	<rect x="147.1" y="556.1" class="st3" width="27.4" height="6.1"/>
	<rect x="182.1" y="556.1" class="st3" width="27.4" height="6.1"/>
	<rect x="217.1" y="556.1" class="st3" width="27.4" height="6.1"/>
	<rect x="252" y="556.1" class="st3" width="27.4" height="6.1"/>
	<rect x="287" y="556.1" class="st3" width="27.4" height="6.1"/>
	<polygon class="st4" points="145.3,553.6 160.8,538.1 176.3,553.6 	"/>
	<polygon class="st3" points="151.8,553.6 160.8,544.6 169.8,553.6 	"/>
	<polygon class="st4" points="180.2,553.6 195.8,538.1 211.3,553.6 	"/>
	<polygon class="st3" points="186.7,553.6 195.8,544.6 204.8,553.6 	"/>
	<polygon class="st4" points="215.2,553.6 230.7,538.1 246.3,553.6 	"/>
	<polygon class="st3" points="221.7,553.6 230.7,544.6 239.8,553.6 	"/>
	<polygon class="st4" points="250.2,553.6 265.7,538.1 281.2,553.6 	"/>
	<polygon class="st3" points="256.7,553.6 265.7,544.6 274.7,553.6 	"/>
	<polygon class="st4" points="285.2,553.6 300.7,538.1 316.2,553.6 	"/>
	<polygon class="st3" points="291.7,553.6 300.7,544.6 309.7,553.6 	"/>
	<rect x="321.4" y="556.1" class="st3" width="27.4" height="6.1"/>
	<polygon class="st4" points="319.6,553.6 335.1,538.1 350.6,553.6 	"/>
	<polygon class="st3" points="326.1,553.6 335.1,544.6 344.1,553.6 	"/>
	<polygon class="st4" points="119.9,555.7 100.3,536.6 80.8,555.7 80.8,681 119.9,681 	"/>
	<g>
		<rect x="84.6" y="658.6" class="st3" width="13.3" height="10.6"/>
		<rect x="101.9" y="658.6" class="st3" width="13.3" height="10.6"/>
	</g>
	<g>
		<rect x="84.6" y="633.3" class="st3" width="13.3" height="10.6"/>
		<rect x="101.9" y="633.3" class="st3" width="13.3" height="10.6"/>
	</g>
	<g>
		<rect x="84.6" y="608" class="st3" width="13.3" height="10.6"/>
		<rect x="101.9" y="608" class="st3" width="13.3" height="10.6"/>
	</g>
	<g>
		<rect x="84.6" y="582.8" class="st3" width="13.3" height="10.6"/>
		<rect x="101.9" y="582.8" class="st3" width="13.3" height="10.6"/>
	</g>
	<g>
		<rect x="84.6" y="557.5" class="st3" width="13.3" height="10.6"/>
		<rect x="101.9" y="557.5" class="st3" width="13.3" height="10.6"/>
	</g>
	<path class="st6" d="M349.1,441c-13.9,0-12.6,25.2-12.6,25.2h12.6h12.6C361.7,466.2,363.1,441,349.1,441z"/>
	<path class="st8" d="M351.9,441.4c-0.9-0.2-1.8-0.4-2.8-0.4c-13.9,0-12.6,25.2-12.6,25.2h5.6C342.1,466.2,340.9,444.5,351.9,441.4z
		"/>
	<rect x="336.5" y="474.9" class="st4" width="25.3" height="39"/>
	<rect x="332.5" y="466.2" class="st4" width="33.1" height="8.7"/>
	<polygon class="st4" points="483,420.3 484.7,420.3 485.7,444 482,444 	"/>
	<polygon class="st4" points="416.6,453.6 416.4,453.6 362.8,453.6 362.8,466.2 416.4,466.2 416.6,466.2 470.1,466.2 470.1,453.6 	
		"/>
	<polygon class="st5" points="416.6,466.2 416.4,466.2 375.2,466.2 375.2,513.9 416.4,513.9 416.6,513.9 457.7,513.9 457.7,466.2 	
		"/>
	<path class="st4" d="M459.7,687.7h1.2c6.9,0,12.4,5.6,12.4,12.4v53.7h-26.1v-53.7C447.2,693.3,452.8,687.7,459.7,687.7z"/>
	<path class="st6" d="M429.7,386.6h-13.1h-0.2h-13.1c-51,31.3-37.9,67-37.9,67h13.4h37.6h0.2h37.6h13.4
		C467.6,453.6,480.7,417.9,429.7,386.6z"/>
	<rect x="489.5" y="682.8" class="st5" width="278" height="43.6"/>
	<rect x="489.5" y="592.4" class="st5" width="201" height="90.4"/>
	<rect x="478.3" y="533.8" class="st6" width="310.2" height="19"/>
	<rect x="698.5" y="553.1" class="st5" width="69.1" height="129.7"/>
	<rect x="767.6" y="555.2" class="st5" width="41.8" height="36"/>
	<rect x="489.5" y="719.7" class="st5" width="319.9" height="34.2"/>
	<g>
		<rect x="765.3" y="740.2" class="st7" width="11.1" height="13.7"/>
		<rect x="729.9" y="740.2" class="st7" width="11.1" height="13.7"/>
		<rect x="694.5" y="740.2" class="st7" width="11.1" height="13.7"/>
		<path class="st1" d="M769.3,753.9h-8V734c-1.5-1.2-4.5-3.3-8.1-3.6c-3.7,0.3-6.6,2.3-8.1,3.6v19.8h-8v-23.2l1.1-1.1
			c0.2-0.3,6.1-6.6,14.8-7.1l0.2,0l0.2,0c8.7,0.5,14.6,6.9,14.8,7.1l1.1,1.1V753.9z"/>
		<path class="st7" d="M753.2,726.4c7.2,0.4,12.1,5.8,12.1,5.8v21.6h-12.1H741v-21.6C741,732.3,746,726.9,753.2,726.4z"/>
		<path class="st3" d="M753.2,726.4c7.2,0.4,12.1,5.8,12.1,5.8v2.8l-12.1,3.3v15.4H741v-21.6C741,732.3,746,726.9,753.2,726.4z"/>
		<path class="st1" d="M804.7,753.9h-8V734c-1.5-1.2-4.5-3.3-8.1-3.6c-3.7,0.3-6.6,2.3-8.1,3.6v19.8h-8v-23.2l1.1-1.1
			c0.2-0.3,6.1-6.6,14.8-7.1l0.2,0l0.2,0c8.7,0.5,14.6,6.9,14.8,7.1l1.1,1.1V753.9z"/>
		<path class="st7" d="M788.6,726.4c7.2,0.4,12.1,5.8,12.1,5.8v21.6h-12.1h-12.1v-21.6C776.4,732.3,781.4,726.9,788.6,726.4z"/>
		<path class="st3" d="M788.6,726.4c7.2,0.4,12.1,5.8,12.1,5.8v2.8l-12.1,3.3v15.4h-12.1v-21.6C776.4,732.3,781.4,726.9,788.6,726.4
			z"/>
		<path class="st1" d="M733.9,753.9h-8V734c-1.5-1.2-4.5-3.3-8.1-3.6c-3.7,0.3-6.6,2.3-8.1,3.6v19.8h-8v-23.2l1.1-1.1
			c0.2-0.3,6.1-6.6,14.8-7.1l0.2,0l0.2,0c8.7,0.5,14.6,6.9,14.8,7.1l1.1,1.1V753.9z"/>
		<path class="st7" d="M717.8,726.4c7.2,0.4,12.1,5.8,12.1,5.8v21.6h-12.1h-12.1v-21.6C705.6,732.3,710.6,726.9,717.8,726.4z"/>
		<path class="st3" d="M717.8,726.4c7.2,0.4,12.1,5.8,12.1,5.8v2.8l-12.1,3.3v15.4h-12.1v-21.6C705.6,732.3,710.6,726.9,717.8,726.4
			z"/>
		<rect x="659.1" y="740.2" class="st7" width="11.1" height="13.7"/>
		<path class="st1" d="M698.5,753.9h-8V734c-1.5-1.2-4.5-3.3-8.1-3.6c-3.7,0.3-6.6,2.3-8.1,3.6v19.8h-8v-23.2l1.1-1.1
			c0.2-0.3,6.1-6.6,14.8-7.1l0.2,0l0.2,0c8.7,0.5,14.6,6.9,14.8,7.1l1.1,1.1V753.9z"/>
		<path class="st7" d="M682.4,726.4c7.2,0.4,12.1,5.8,12.1,5.8v21.6h-12.1h-12.1v-21.6C670.2,732.3,675.2,726.9,682.4,726.4z"/>
		<path class="st3" d="M682.4,726.4c7.2,0.4,12.1,5.8,12.1,5.8v2.8l-12.1,3.3v15.4h-12.1v-21.6C670.2,732.3,675.2,726.9,682.4,726.4
			z"/>
		<rect x="623.7" y="740.2" class="st7" width="11.1" height="13.7"/>
		<path class="st1" d="M663.1,753.9h-8V734c-1.5-1.2-4.5-3.3-8.1-3.6c-3.7,0.3-6.6,2.3-8.1,3.6v19.8h-8v-23.2l1.1-1.1
			c0.2-0.3,6.1-6.6,14.8-7.1l0.2,0l0.2,0c8.7,0.5,14.6,6.9,14.8,7.1l1.1,1.1V753.9z"/>
		<path class="st7" d="M647,726.4c7.2,0.4,12.1,5.8,12.1,5.8v21.6H647h-12.1v-21.6C634.8,732.3,639.8,726.9,647,726.4z"/>
		<path class="st3" d="M647,726.4c7.2,0.4,12.1,5.8,12.1,5.8v2.8l-12.1,3.3v15.4h-12.1v-21.6C634.8,732.3,639.8,726.9,647,726.4z"/>
		<rect x="588.4" y="740.2" class="st7" width="11.1" height="13.7"/>
		<path class="st1" d="M627.7,753.9h-8V734c-1.5-1.2-4.5-3.3-8.1-3.6c-3.7,0.3-6.6,2.3-8.1,3.6v19.8h-8v-23.2l1.1-1.1
			c0.2-0.3,6.1-6.6,14.8-7.1l0.2,0l0.2,0c8.7,0.5,14.6,6.9,14.8,7.1l1.1,1.1V753.9z"/>
		<path class="st7" d="M611.6,726.4c7.2,0.4,12.1,5.8,12.1,5.8v21.6h-12.1h-12.1v-21.6C599.5,732.3,604.4,726.9,611.6,726.4z"/>
		<path class="st3" d="M611.6,726.4c7.2,0.4,12.1,5.8,12.1,5.8v2.8l-12.1,3.3v15.4h-12.1v-21.6C599.5,732.3,604.4,726.9,611.6,726.4
			z"/>
		<rect x="553" y="740.2" class="st7" width="11.1" height="13.7"/>
		<path class="st1" d="M592.4,753.9h-8V734c-1.5-1.2-4.5-3.3-8.1-3.6c-3.7,0.3-6.6,2.3-8.1,3.6v19.8h-8v-23.2l1.1-1.1
			c0.2-0.3,6.1-6.6,14.8-7.1l0.2,0l0.2,0c8.7,0.5,14.6,6.9,14.8,7.1l1.1,1.1V753.9z"/>
		<path class="st7" d="M576.2,726.4c7.2,0.4,12.1,5.8,12.1,5.8v21.6h-12.1h-12.1v-21.6C564.1,732.3,569,726.9,576.2,726.4z"/>
		<path class="st3" d="M576.2,726.4c7.2,0.4,12.1,5.8,12.1,5.8v2.8l-12.1,3.3v15.4h-12.1v-21.6C564.1,732.3,569,726.9,576.2,726.4z"
			/>
		<rect x="517.6" y="740.2" class="st7" width="11.1" height="13.7"/>
		<path class="st1" d="M557,753.9h-8V734c-1.5-1.2-4.5-3.3-8.1-3.6c-3.7,0.3-6.6,2.3-8.1,3.6v19.8h-8v-23.2l1.1-1.1
			c0.2-0.3,6.1-6.6,14.8-7.1l0.2,0l0.2,0c8.7,0.5,14.6,6.9,14.8,7.1l1.1,1.1V753.9z"/>
		<path class="st7" d="M540.8,726.4c7.2,0.4,12.1,5.8,12.1,5.8v21.6h-12.1h-12.1v-21.6C528.7,732.3,533.6,726.9,540.8,726.4z"/>
		<path class="st3" d="M540.8,726.4c7.2,0.4,12.1,5.8,12.1,5.8v2.8l-12.1,3.3v15.4h-12.1v-21.6C528.7,732.3,533.6,726.9,540.8,726.4
			z"/>
		<path class="st1" d="M521.6,753.9h-8V734c-1.5-1.2-4.5-3.3-8.1-3.6c-3.7,0.3-6.6,2.3-8.1,3.6v19.8h-8v-23.2l1.1-1.1
			c0.2-0.3,6.1-6.6,14.8-7.1l0.2,0l0.2,0c8.7,0.5,14.6,6.9,14.8,7.1l1.1,1.1V753.9z"/>
		<path class="st7" d="M505.4,726.4c7.2,0.4,12.1,5.8,12.1,5.8v21.6h-12.1h-12.1v-21.6C493.3,732.3,498.2,726.9,505.4,726.4z"/>
		<path class="st3" d="M505.4,726.4c7.2,0.4,12.1,5.8,12.1,5.8v2.8l-12.1,3.3v15.4h-12.1v-21.6C493.3,732.3,498.2,726.9,505.4,726.4
			z"/>
	</g>
	<polygon class="st5" points="759,651.3 818,651.3 809.4,658 767.6,658 	"/>
	<path class="st7" d="M809.9,651.8h-42.8v-8.3h42.8V651.8z M768.1,650.8h40.8v-6.3h-40.8V650.8z"/>
	<rect x="767.6" y="540.2" class="st4" width="41.8" height="15.1"/>
	<path class="st6" d="M780.3,509.1l7,0v0l1.2,0l1.2,0v0l7,0c18.7,11.2,10.3,31,10.3,31h-17.3h-2.5h-17.3
		C769.9,540.2,761.5,520.4,780.3,509.1z"/>
	<rect x="774.4" y="504.9" class="st2" width="28.1" height="4.3"/>
	<polygon class="st2" points="786.7,494.1 786.7,465 788.7,461.7 790.7,465 790.7,494.1 796.4,504.9 788.7,504.9 781.1,504.9 	"/>
	<rect x="767.6" y="682.8" class="st5" width="41.8" height="36.9"/>
	<path class="st2" d="M796.9,690.7h0.5c2.7,0,4.9,2.2,4.9,4.9v24.1h-10.2v-24.1C792.1,692.9,794.3,690.7,796.9,690.7z"/>
	<path class="st2" d="M779.7,690.7h0.5c2.7,0,4.9,2.2,4.9,4.9v24.1h-10.2v-24.1C774.8,692.9,777,690.7,779.7,690.7z"/>
	<path class="st2" d="M796.9,562.3h0.5c2.7,0,4.9,2.2,4.9,4.9v24.1h-10.2v-24.1C792.1,564.5,794.3,562.3,796.9,562.3z"/>
	<path class="st2" d="M779.7,562.3h0.5c2.7,0,4.9,2.2,4.9,4.9v24.1h-10.2v-24.1C774.8,564.5,777,562.3,779.7,562.3z"/>
	<path class="st7" d="M809.9,555.7h-42.8v-16.1h42.8V555.7z M768.1,554.7h40.8v-14.1h-40.8V554.7z"/>
	<rect x="767.6" y="591.2" class="st5" width="41.8" height="10.8"/>
	<rect x="795.5" y="602" class="st5" width="13.9" height="49.3"/>
	<rect x="781.5" y="602" class="st2" width="13.9" height="49.3"/>
	<rect x="767.6" y="602" class="st4" width="13.9" height="49.3"/>
	<rect x="795.5" y="658" class="st5" width="13.9" height="24.7"/>
	<rect x="781.5" y="658" class="st2" width="13.9" height="24.7"/>
	<rect x="767.6" y="658" class="st4" width="13.9" height="24.7"/>
	<path class="st4" d="M680.4,690.7h0.5c2.7,0,4.9,2.2,4.9,4.9v24.1h-10.2v-24.1C675.5,692.9,677.7,690.7,680.4,690.7z"/>
	<rect x="778.1" y="700.1" class="st3" width="3.6" height="10.2"/>
	<rect x="795.4" y="700.1" class="st3" width="3.6" height="10.2"/>
	<path class="st4" d="M710.3,690.7h0.9c5.2,0,9.4,4.2,9.4,9.4v19.5h-19.7v-19.5C700.9,694.9,705.2,690.7,710.3,690.7z"/>
	<rect x="714" y="703.2" class="st3" width="3.4" height="9.6"/>
	<rect x="708.7" y="703.2" class="st3" width="3.4" height="9.6"/>
	<rect x="703.4" y="703.2" class="st3" width="3.4" height="9.6"/>
	<path class="st4" d="M665.1,690.7h0.5c2.7,0,4.9,2.2,4.9,4.9v24.1h-10.2v-24.1C660.2,692.9,662.4,690.7,665.1,690.7z"/>
	<path class="st4" d="M649.8,690.7h0.5c2.7,0,4.9,2.2,4.9,4.9v24.1h-10.2v-24.1C644.9,692.9,647.1,690.7,649.8,690.7z"/>
	<path class="st4" d="M634.5,690.7h0.5c2.7,0,4.9,2.2,4.9,4.9v24.1h-10.2v-24.1C629.6,692.9,631.8,690.7,634.5,690.7z"/>
	<path class="st4" d="M619.2,690.7h0.5c2.7,0,4.9,2.2,4.9,4.9v24.1h-10.2v-24.1C614.3,692.9,616.5,690.7,619.2,690.7z"/>
	<path class="st4" d="M603.9,690.7h0.5c2.7,0,4.9,2.2,4.9,4.9v24.1H599v-24.1C599,692.9,601.2,690.7,603.9,690.7z"/>
	<path class="st7" d="M695,720.2H589.7v-37.9H695V720.2z M590.7,719.2H694v-35.9H590.7V719.2z"/>
	<path class="st4" d="M576,690.7h0.5c2.7,0,4.9,2.2,4.9,4.9v24.1h-10.2v-24.1C571.2,692.9,573.3,690.7,576,690.7z"/>
	<path class="st4" d="M560.7,690.7h0.5c2.7,0,4.9,2.2,4.9,4.9v24.1h-10.2v-24.1C555.9,692.9,558,690.7,560.7,690.7z"/>
	<path class="st4" d="M545.4,690.7h0.5c2.7,0,4.9,2.2,4.9,4.9v24.1h-10.2v-24.1C540.6,692.9,542.7,690.7,545.4,690.7z"/>
	<path class="st4" d="M530.1,690.7h0.5c2.7,0,4.9,2.2,4.9,4.9v24.1h-10.2v-24.1C525.3,692.9,527.4,690.7,530.1,690.7z"/>
	<path class="st4" d="M514.8,690.7h0.5c2.7,0,4.9,2.2,4.9,4.9v24.1H510v-24.1C510,692.9,512.1,690.7,514.8,690.7z"/>
	<rect x="468.2" y="700.1" class="st3" width="3.6" height="10.2"/>
	<rect x="461.7" y="700.1" class="st3" width="3.6" height="10.2"/>
	<rect x="455.2" y="700.1" class="st3" width="3.6" height="10.2"/>
	<rect x="448.8" y="700.1" class="st3" width="3.6" height="10.2"/>
	<path class="st4" d="M499.5,690.7h0.5c2.7,0,4.9,2.2,4.9,4.9v24.1h-10.2v-24.1C494.7,692.9,496.8,690.7,499.5,690.7z"/>
	<path class="st7" d="M590.7,720.2H485.3v-37.9h105.4V720.2z M486.3,719.2h103.4v-35.9H486.3V719.2z"/>
	<path class="st7" d="M768.1,720.2H698v-37.9h70.1V720.2z M699,719.2h68.1v-35.9H699V719.2z"/>
	<path class="st3" d="M703.4,701.1c0-4.1,3.3-7.4,7.4-7.4c4.1,0,7.4,3.3,7.4,7.4H703.4z"/>
	<path class="st4" d="M732.6,690.7h0.9c5.2,0,9.4,4.2,9.4,9.4v19.5h-19.7v-19.5C723.2,694.9,727.4,690.7,732.6,690.7z"/>
	<rect x="736.2" y="703.2" class="st3" width="3.4" height="9.6"/>
	<rect x="730.9" y="703.2" class="st3" width="3.4" height="9.6"/>
	<rect x="725.6" y="703.2" class="st3" width="3.4" height="9.6"/>
	<path class="st3" d="M725.6,701.1c0-4.1,3.3-7.4,7.4-7.4s7.4,3.3,7.4,7.4H725.6z"/>
	<path class="st4" d="M754.8,690.7h0.9c5.2,0,9.4,4.2,9.4,9.4v19.5h-19.7v-19.5C745.4,694.9,749.6,690.7,754.8,690.7z"/>
	<rect x="758.5" y="703.2" class="st3" width="3.4" height="9.6"/>
	<rect x="753.1" y="703.2" class="st3" width="3.4" height="9.6"/>
	<rect x="747.8" y="703.2" class="st3" width="3.4" height="9.6"/>
	<path class="st3" d="M747.8,701.1c0-4.1,3.3-7.4,7.4-7.4s7.4,3.3,7.4,7.4H747.8z"/>
	<g>
		<rect x="677.8" y="663.9" class="st2" width="4.6" height="18.9"/>
		<rect x="661.6" y="663.9" class="st4" width="16.2" height="18.9"/>
		<polygon class="st6" points="661.6,658 683.3,658 685.7,663.9 659.1,663.9 		"/>
		<rect x="677.8" y="639.2" class="st2" width="4.6" height="18.9"/>
		<rect x="661.6" y="639.2" class="st4" width="16.2" height="18.9"/>
		<polygon class="st6" points="661.6,633.3 683.3,633.3 685.7,639.2 659.1,639.2 		"/>
		<rect x="677.8" y="614.4" class="st2" width="4.6" height="18.9"/>
		<rect x="661.6" y="614.4" class="st4" width="16.2" height="18.9"/>
		<polygon class="st6" points="672.4,592.4 685.7,614.4 659.1,614.4 		"/>
	</g>
	<g>
		<rect x="647.7" y="663.9" class="st2" width="4.6" height="18.9"/>
		<rect x="631.5" y="663.9" class="st4" width="16.2" height="18.9"/>
		<polygon class="st6" points="631.5,658 653.2,658 655.6,663.9 629.1,663.9 		"/>
		<rect x="647.7" y="639.2" class="st2" width="4.6" height="18.9"/>
		<rect x="631.5" y="639.2" class="st4" width="16.2" height="18.9"/>
		<polygon class="st6" points="631.5,633.3 653.2,633.3 655.6,639.2 629.1,639.2 		"/>
		<rect x="647.7" y="614.4" class="st2" width="4.6" height="18.9"/>
		<rect x="631.5" y="614.4" class="st4" width="16.2" height="18.9"/>
		<polygon class="st6" points="642.3,592.4 655.6,614.4 629.1,614.4 		"/>
	</g>
	<g>
		<rect x="617.6" y="663.9" class="st2" width="4.6" height="18.9"/>
		<rect x="601.4" y="663.9" class="st4" width="16.2" height="18.9"/>
		<polygon class="st6" points="601.4,658 623.1,658 625.5,663.9 599,663.9 		"/>
		<rect x="617.6" y="639.2" class="st2" width="4.6" height="18.9"/>
		<rect x="601.4" y="639.2" class="st4" width="16.2" height="18.9"/>
		<polygon class="st6" points="601.4,633.3 623.1,633.3 625.5,639.2 599,639.2 		"/>
		<rect x="617.6" y="614.4" class="st2" width="4.6" height="18.9"/>
		<rect x="601.4" y="614.4" class="st4" width="16.2" height="18.9"/>
		<polygon class="st6" points="612.3,592.4 625.5,614.4 599,614.4 		"/>
	</g>
	<g>
		<rect x="573.4" y="663.9" class="st2" width="4.6" height="18.9"/>
		<rect x="557.2" y="663.9" class="st4" width="16.2" height="18.9"/>
		<polygon class="st6" points="557.2,658 578.9,658 581.4,663.9 554.8,663.9 		"/>
		<rect x="573.4" y="639.2" class="st2" width="4.6" height="18.9"/>
		<rect x="557.2" y="639.2" class="st4" width="16.2" height="18.9"/>
		<polygon class="st6" points="557.2,633.3 578.9,633.3 581.4,639.2 554.8,639.2 		"/>
		<rect x="573.4" y="614.4" class="st2" width="4.6" height="18.9"/>
		<rect x="557.2" y="614.4" class="st4" width="16.2" height="18.9"/>
		<polygon class="st6" points="568.1,592.4 581.4,614.4 554.8,614.4 		"/>
	</g>
	<g>
		<rect x="543.3" y="663.9" class="st2" width="4.6" height="18.9"/>
		<rect x="527.2" y="663.9" class="st4" width="16.2" height="18.9"/>
		<polygon class="st6" points="527.2,658 548.8,658 551.3,663.9 524.7,663.9 		"/>
		<rect x="543.3" y="639.2" class="st2" width="4.6" height="18.9"/>
		<rect x="527.2" y="639.2" class="st4" width="16.2" height="18.9"/>
		<polygon class="st6" points="527.2,633.3 548.8,633.3 551.3,639.2 524.7,639.2 		"/>
		<rect x="543.3" y="614.4" class="st2" width="4.6" height="18.9"/>
		<rect x="527.2" y="614.4" class="st4" width="16.2" height="18.9"/>
		<polygon class="st6" points="538,592.4 551.3,614.4 524.7,614.4 		"/>
	</g>
	<g>
		<rect x="513.3" y="663.9" class="st2" width="4.6" height="18.9"/>
		<rect x="497.1" y="663.9" class="st4" width="16.2" height="18.9"/>
		<polygon class="st6" points="497.1,658 518.7,658 521.2,663.9 494.6,663.9 		"/>
		<rect x="513.3" y="639.2" class="st2" width="4.6" height="18.9"/>
		<rect x="497.1" y="639.2" class="st4" width="16.2" height="18.9"/>
		<polygon class="st6" points="497.1,633.3 518.7,633.3 521.2,639.2 494.6,639.2 		"/>
		<rect x="513.3" y="614.4" class="st2" width="4.6" height="18.9"/>
		<rect x="497.1" y="614.4" class="st4" width="16.2" height="18.9"/>
		<polygon class="st6" points="507.9,592.4 521.2,614.4 494.6,614.4 		"/>
	</g>
	<rect x="483.9" y="569.4" class="st5" width="210.6" height="22.9"/>
	<path class="st4" d="M672.1,572.8h0.7c4,0,7.2,3.2,7.2,7.2v12.4h-15.1V580C664.9,576,668.1,572.8,672.1,572.8z"/>
	<path class="st4" d="M639.5,572.8h0.7c4,0,7.2,3.2,7.2,7.2v12.4h-15.1V580C632.3,576,635.5,572.8,639.5,572.8z"/>
	<path class="st4" d="M606.9,572.8h0.7c4,0,7.2,3.2,7.2,7.2v12.4h-15.1V580C599.7,576,602.9,572.8,606.9,572.8z"/>
	<path class="st4" d="M570.2,572.8h0.7c4,0,7.2,3.2,7.2,7.2v12.4H563V580C563,576,566.2,572.8,570.2,572.8z"/>
	<path class="st4" d="M537.6,572.8h0.7c4,0,7.2,3.2,7.2,7.2v12.4h-15.1V580C530.4,576,533.6,572.8,537.6,572.8z"/>
	<path class="st4" d="M505,572.8h0.7c4,0,7.2,3.2,7.2,7.2v12.4h-15.1V580C497.8,576,501.1,572.8,505,572.8z"/>
	<path class="st4" d="M459.3,577.6h0.7c4,0,7.2,3.2,7.2,7.2v12.4h-15.1v-12.4C452.1,580.8,455.3,577.6,459.3,577.6z"/>
	<path class="st4" d="M459.3,603.8h0.7c4,0,7.2,3.2,7.2,7.2v12.4h-15.1V611C452.1,607,455.3,603.8,459.3,603.8z"/>
	<path class="st4" d="M459.3,630h0.7c4,0,7.2,3.2,7.2,7.2v12.4h-15.1v-12.4C452.1,633.2,455.3,630,459.3,630z"/>
	<path class="st4" d="M459.3,656.2h0.7c4,0,7.2,3.2,7.2,7.2v12.4h-15.1v-12.4C452.1,659.4,455.3,656.2,459.3,656.2z"/>
	<rect x="478.3" y="569.4" class="st3" width="11.2" height="184.5"/>
	<rect x="585.2" y="569.4" class="st3" width="7.9" height="150.3"/>
	<rect x="690.6" y="569.4" class="st3" width="7.9" height="150.3"/>
	<rect x="478.3" y="553.1" class="st4" width="220.2" height="16.3"/>
	<rect x="658.5" y="556.1" class="st3" width="27.4" height="6.1"/>
	<rect x="623.5" y="556.1" class="st3" width="27.4" height="6.1"/>
	<rect x="588.5" y="556.1" class="st3" width="27.4" height="6.1"/>
	<rect x="553.5" y="556.1" class="st3" width="27.4" height="6.1"/>
	<rect x="518.6" y="556.1" class="st3" width="27.4" height="6.1"/>
	<polygon class="st4" points="687.7,553.6 672.1,538.1 656.6,553.6 	"/>
	<polygon class="st3" points="681.2,553.6 672.1,544.6 663.1,553.6 	"/>
	<polygon class="st4" points="652.7,553.6 637.2,538.1 621.7,553.6 	"/>
	<polygon class="st3" points="646.2,553.6 637.2,544.6 628.2,553.6 	"/>
	<polygon class="st4" points="617.7,553.6 602.2,538.1 586.7,553.6 	"/>
	<polygon class="st3" points="611.2,553.6 602.2,544.6 593.2,553.6 	"/>
	<polygon class="st4" points="582.8,553.6 567.2,538.1 551.7,553.6 	"/>
	<polygon class="st3" points="576.3,553.6 567.2,544.6 558.2,553.6 	"/>
	<polygon class="st4" points="547.8,553.6 532.3,538.1 516.7,553.6 	"/>
	<polygon class="st3" points="541.3,553.6 532.3,544.6 523.2,553.6 	"/>
	<rect x="484.1" y="556.1" class="st3" width="27.4" height="6.1"/>
	<polygon class="st4" points="513.4,553.6 497.8,538.1 482.3,553.6 	"/>
	<polygon class="st3" points="506.9,553.6 497.8,544.6 488.8,553.6 	"/>
	<polygon class="st4" points="713,555.7 732.6,536.6 752.2,555.7 752.2,681 713,681 	"/>
	<g>
		<rect x="735" y="658.6" class="st3" width="13.3" height="10.6"/>
		<rect x="717.7" y="658.6" class="st3" width="13.3" height="10.6"/>
	</g>
	<g>
		<rect x="735" y="633.3" class="st3" width="13.3" height="10.6"/>
		<rect x="717.7" y="633.3" class="st3" width="13.3" height="10.6"/>
	</g>
	<g>
		<rect x="735" y="608" class="st3" width="13.3" height="10.6"/>
		<rect x="717.7" y="608" class="st3" width="13.3" height="10.6"/>
	</g>
	<g>
		<rect x="735" y="582.8" class="st3" width="13.3" height="10.6"/>
		<rect x="717.7" y="582.8" class="st3" width="13.3" height="10.6"/>
	</g>
	<g>
		<rect x="735" y="557.5" class="st3" width="13.3" height="10.6"/>
		<rect x="717.7" y="557.5" class="st3" width="13.3" height="10.6"/>
	</g>
	<path class="st6" d="M416.6,335.8L416.6,335.8C416.5,335.7,416.5,335.8,416.6,335.8c-0.1,0-0.1,0-0.2,0v0
		c-13.5,0.1-13.1,17.5-13.1,17.5h13.1h0.2h13.1C429.7,353.3,430.1,335.9,416.6,335.8z"/>
	<polygon class="st4" points="429.7,353.3 416.6,353.3 416.4,353.3 403.3,353.3 397.4,360.5 403.3,360.5 403.3,386.6 416.4,386.6 
		416.6,386.6 429.7,386.6 429.7,360.5 435.5,360.5 	"/>
	<path class="st6" d="M483.8,441c13.9,0,12.6,25.2,12.6,25.2h-12.6h-12.6C471.2,466.2,469.9,441,483.8,441z"/>
	<rect x="471.2" y="474.9" class="st4" width="25.3" height="39"/>
	<rect x="467.3" y="466.2" class="st4" width="33.1" height="8.7"/>
	<polygon class="st4" points="416.6,514.5 416.4,514.5 336.5,514.5 336.5,533.8 416.4,533.8 416.6,533.8 496.5,533.8 496.5,514.5 	
		"/>
	<rect x="336.5" y="474.9" class="st5" width="8.6" height="58.8"/>
	<rect x="344.8" y="474.9" class="st2" width="8.6" height="58.8"/>
	<rect x="353.1" y="474.9" class="st4" width="8.6" height="58.8"/>
	<polygon class="st5" points="361.7,533.8 361.7,513.9 382,534.2 	"/>
	<polygon class="st5" points="361.7,474.9 353.1,474.9 362,483.8 	"/>
	<rect x="471.1" y="474.9" class="st4" width="25.3" height="39"/>
	<rect x="471.1" y="474.9" class="st5" width="8.6" height="58.8"/>
	<rect x="479.4" y="474.9" class="st2" width="8.6" height="58.8"/>
	<rect x="487.7" y="474.9" class="st4" width="8.6" height="58.8"/>
	<polygon class="st5" points="496.4,474.9 487.7,474.9 496.6,483.8 	"/>
	<rect x="403.3" y="360.5" class="st5" width="8.8" height="26.1"/>
	<rect x="412.1" y="360.5" class="st2" width="8.8" height="26.1"/>
	<polygon class="st5" points="420.9,360.5 430,369.6 429.7,360.5 	"/>
	<polygon class="st4" points="374.8,533.8 416.5,492.1 458.1,533.8 	"/>
	<polygon class="st3" points="392.2,533.8 416.5,509.5 440.7,533.8 	"/>
	<polygon class="st5" points="65.4,602 51.4,602 66.1,616.7 	"/>
	<rect x="354.7" y="533.8" class="st4" width="123.6" height="15.3"/>
	<polygon class="st3" points="416.6,466.2 457.5,507.2 458.3,466.2 	"/>
	<path class="st8" d="M385,453.6c0,0-15.2-32.1,31.4-67h-13.1c0,0-47.7,25-37.9,67L385,453.6z"/>
	<path class="st8" d="M487.1,441.4c-0.9-0.2-1.8-0.4-2.8-0.4c-13.9,0-12.6,25.2-12.6,25.2h5.6C477.3,466.2,476.1,444.5,487.1,441.4z
		"/>
	<path class="st8" d="M792.1,509.1l2.2,0l-4.8,0v0l-1.2,0l-1.2,0v0l-7,0c-18.7,11.2-10.3,31-10.3,31h12.1
		C781.8,540.2,773.4,520.4,792.1,509.1z"/>
</g>
<rect y="752.6" class="st3" width="1400" height="29.4"/>
<path class="st1" d="M325,133H126.3c-14.3,0-26-11.7-26-26v0c0-14.3,11.7-26,26-26H325c14.3,0,26,11.7,26,26v0
	C351,121.3,339.3,133,325,133z"/>
<path class="st1" d="M409,172H210.4c-14.3,0-26-11.7-26-26v0c0-14.3,11.7-26,26-26H409c14.3,0,26,11.7,26,26v0
	C435,160.3,423.3,172,409,172z"/>
<path class="st1" d="M1332.6,107H1134c-14.3,0-26-11.7-26-26v0c0-14.3,11.7-26,26-26h198.6c14.3,0,26,11.7,26,26v0
	C1358.6,95.3,1346.9,107,1332.6,107z"/>
<path class="st1" d="M1284.7,81h-87.8c-14.3,0-26-11.7-26-26v0c0-14.3,11.7-26,26-26h87.8c14.3,0,26,11.7,26,26v0
	C1310.7,69.3,1299,81,1284.7,81z"/>
<path class="st1" d="M223,198H91.3c-14.3,0-26-11.7-26-26v0c0-14.3,11.7-26,26-26H223c14.3,0,26,11.7,26,26v0
	C249,186.3,237.3,198,223,198z"/>
<path class="st1" d="M1100.6,271.5h-79.5c-10.7,0-19.5-8.8-19.5-19.5v0c0-10.7,8.8-19.5,19.5-19.5h79.5c10.7,0,19.5,8.8,19.5,19.5v0
	C1120.1,262.7,1111.3,271.5,1100.6,271.5z"/>
<path class="st1" d="M626.4,359.6H547c-10.7,0-19.5-8.8-19.5-19.5v0c0-10.7,8.8-19.5,19.5-19.5h79.5c10.7,0,19.5,8.8,19.5,19.5v0
	C645.9,350.8,637.1,359.6,626.4,359.6z"/>
<path class="st1" d="M608.8,332.3h-52.1c-8.8,0-16-7.2-16-16v0c0-8.8,7.2-16,16-16h52.1c8.8,0,16,7.2,16,16v0
	C624.8,325.1,617.6,332.3,608.8,332.3z"/>
<g>
	<rect y="782" class="st9" width="1400" height="198"/>
	<g>
		<g>
			<line class="st10" x1="0" y1="782" x2="1400" y2="782"/>
			<rect y="778.5" class="st1" width="1400" height="7"/>
		</g>
		<g>
			<line class="st10" x1="0" y1="792.4" x2="1400" y2="792.4"/>
			<rect y="789" class="st1" width="1400" height="6.8"/>
		</g>
		<g>
			<line class="st10" x1="0" y1="802.8" x2="1400" y2="802.8"/>
			<rect y="799.6" class="st1" width="1400" height="6.6"/>
		</g>
		<g>
			<line class="st10" x1="0" y1="813.3" x2="1400" y2="813.3"/>
			<rect y="810.1" class="st1" width="1400" height="6.4"/>
		</g>
		<g>
			<line class="st10" x1="0" y1="823.7" x2="1400" y2="823.7"/>
			<rect y="820.6" class="st1" width="1400" height="6.2"/>
		</g>
		<g>
			<line class="st10" x1="0" y1="834.1" x2="1400" y2="834.1"/>
			<rect y="831.1" class="st1" width="1400" height="5.9"/>
		</g>
		<g>
			<line class="st10" x1="0" y1="844.5" x2="1400" y2="844.5"/>
			<rect y="841.7" class="st1" width="1400" height="5.7"/>
		</g>
		<g>
			<line class="st10" x1="0" y1="855" x2="1400" y2="855"/>
			<rect y="852.2" class="st1" width="1400" height="5.5"/>
		</g>
		<g>
			<line class="st10" x1="0" y1="865.4" x2="1400" y2="865.4"/>
			<rect y="862.7" class="st1" width="1400" height="5.3"/>
		</g>
		<g>
			<line class="st10" x1="0" y1="875.8" x2="1400" y2="875.8"/>
			<rect y="873.2" class="st1" width="1400" height="5.1"/>
		</g>
		<g>
			<line class="st10" x1="0" y1="886.2" x2="1400" y2="886.2"/>
			<rect y="883.8" class="st1" width="1400" height="4.9"/>
		</g>
		<g>
			<line class="st10" x1="0" y1="896.6" x2="1400" y2="896.6"/>
			<rect y="894.3" class="st1" width="1400" height="4.7"/>
		</g>
		<g>
			<line class="st10" x1="0" y1="907.1" x2="1400" y2="907.1"/>
			<rect y="904.8" class="st1" width="1400" height="4.5"/>
		</g>
		<g>
			<line class="st10" x1="0" y1="917.5" x2="1400" y2="917.5"/>
			<rect y="915.3" class="st1" width="1400" height="4.3"/>
		</g>
		<g>
			<line class="st10" x1="0" y1="927.9" x2="1400" y2="927.9"/>
			<rect y="925.9" class="st1" width="1400" height="4.1"/>
		</g>
		<g>
			<line class="st10" x1="0" y1="938.3" x2="1400" y2="938.3"/>
			<rect y="936.4" class="st1" width="1400" height="3.8"/>
		</g>
		<g>
			<line class="st10" x1="0" y1="948.7" x2="1400" y2="948.7"/>
			<rect y="946.9" class="st1" width="1400" height="3.6"/>
		</g>
		<g>
			<line class="st10" x1="0" y1="959.2" x2="1400" y2="959.2"/>
			<rect y="957.4" class="st1" width="1400" height="3.4"/>
		</g>
		<g>
			<line class="st10" x1="0" y1="969.6" x2="1400" y2="969.6"/>
			<rect y="968" class="st1" width="1400" height="3.2"/>
		</g>
		<g>
			<line class="st10" x1="0" y1="980" x2="1400" y2="980"/>
			<rect y="978.5" class="st1" width="1400" height="3"/>
		</g>
	</g>
</g>
</svg>
